<?xml version="1.0" encoding="UTF-8" standalone="no"?>
<!-- Generator: Adobe Illustrator 16.0.0, SVG Export Plug-In . SVG Version: 6.00 Build 0)  -->

<svg
   xmlns:dc="http://purl.org/dc/elements/1.1/"
   xmlns:cc="http://creativecommons.org/ns#"
   xmlns:rdf="http://www.w3.org/1999/02/22-rdf-syntax-ns#"
   xmlns:svg="http://www.w3.org/2000/svg"
   xmlns="http://www.w3.org/2000/svg"
   xmlns:sodipodi="http://sodipodi.sourceforge.net/DTD/sodipodi-0.dtd"
   xmlns:inkscape="http://www.inkscape.org/namespaces/inkscape"
   version="1.1"
   id="Warstwa_1"
   x="0px"
   y="0px"
   width="585px"
   height="915px"
   viewBox="0 0 585 915"
   enable-background="new 0 0 585 915"
   xml:space="preserve"
   sodipodi:docname="login-signet.svg"
   inkscape:version="0.92.4 (f8dce91, 2019-08-02)"><metadata
   id="metadata43"><rdf:RDF><cc:Work
       rdf:about=""><dc:format>image/svg+xml</dc:format><dc:type
         rdf:resource="http://purl.org/dc/dcmitype/StillImage" /></cc:Work></rdf:RDF></metadata><defs
   id="defs41" /><sodipodi:namedview
   pagecolor="#ffffff"
   bordercolor="#666666"
   borderopacity="1"
   objecttolerance="10"
   gridtolerance="10"
   guidetolerance="10"
   inkscape:pageopacity="0"
   inkscape:pageshadow="2"
   inkscape:window-width="1879"
   inkscape:window-height="1016"
   id="namedview39"
   showgrid="false"
   inkscape:zoom="0.2579235"
   inkscape:cx="292.5"
   inkscape:cy="457.5"
   inkscape:window-x="41"
   inkscape:window-y="27"
   inkscape:window-maximized="1"
   inkscape:current-layer="Warstwa_1" />
<path
   fill="none"
   d="M204.481,229.007c-0.36,4.463,1.675,8.775,5.346,11.321c3.666,2.546,8.417,2.936,12.448,1.022  c15.439-7.369,31.953-12.238,48.918-14.43c4.418-0.562,8.211-3.451,9.938-7.581c1.721-4.123,1.121-8.855-1.584-12.422  c-2.699-3.562-7.09-5.409-11.516-4.841c-19.572,2.528-38.619,8.144-56.443,16.631C207.558,220.625,204.848,224.545,204.481,229.007z  "
   id="path2"
   style="fill:#ecedef;fill-opacity:0.94117647" />
<path
   fill="none"
   d="M182.558,242.845c-4.179-1.576-8.873-0.791-12.323,2.047c-27.503,22.9-48.191,52.945-59.803,86.856  c-6.965,20.163-10.51,41.356-10.487,62.693v105.316c0,6.91,5.585,12.521,12.487,12.521c6.891,0,12.481-5.611,12.481-12.521V394.442  c0.041-39.823,14.084-78.356,39.661-108.819c6.495-7.778,13.694-14.935,21.517-21.375c3.448-2.838,5.123-7.305,4.391-11.722  C189.757,248.111,186.737,244.422,182.558,242.845z"
   id="path4"
   style="fill:#ecedef;fill-opacity:0.94117647" />
<path
   fill="none"
   d="M321.066,202.477c-4.41-0.63-8.829,1.147-11.585,4.668c-2.75,3.52-3.425,8.242-1.76,12.394  c1.652,4.157,5.397,7.1,9.817,7.73c74.42,11.987,132.303,71.315,142.619,146.2c0.898,6.143,6.135,10.691,12.323,10.708  c0.612,0,1.223-0.047,1.824-0.138c6.822-1.003,11.543-7.36,10.55-14.206C472.897,284,406.419,216.069,321.066,202.477z"
   id="path6"
   style="fill:#ecedef;fill-opacity:0.94117647" />
<path
   fill="none"
   d="M402.754,674.527c-1.127-0.872-3.952-3.194-8.212-6.659l-11.185-9.083c-0.354-0.369-0.732-0.708-1.127-1.034  c-15.352-12.52-37.687-30.798-62.416-51.053c-28.511-23.411-45.018-58.432-44.955-95.383v-16.569  c-0.121-24.958-0.121-47.583-0.121-65.115v-35.189c-0.029-4.989,1.933-9.782,5.455-13.309c3.23-3.24,7.525-5.197,12.087-5.496  c4.889-0.2,9.647,1.647,13.135,5.099c4.306,4.083,6.752,9.767,6.776,15.713v19.913c0,15.632,0,38.4-0.126,64.862v1.451  c0.183,44.026,19.852,85.703,53.692,113.757c5.141,4.279,10.173,8.448,14.832,12.232c5.352,4.354,13.22,3.526,17.566-1.843  c4.345-5.378,3.522-13.263-1.836-17.622c-4.58-3.75-9.537-7.822-14.649-12.06c-28.126-23.312-44.486-57.94-44.657-94.541v-1.44  c0.125-26.3,0.125-49.136,0.125-64.797V396.45c-0.035-12.834-5.307-25.091-14.598-33.91c-8.487-8.2-19.985-12.514-31.758-11.899  c-10.666,0.671-20.712,5.218-28.271,12.789c-8.21,8.213-12.802,19.384-12.751,31.014v35.189c0,17.532,0,40.231,0.125,65.115v16.534  c-0.062,44.463,19.825,86.604,54.156,114.75c24.118,19.814,45.989,37.702,61.315,50.187c0.365,0.378,0.754,0.733,1.16,1.064  l12.259,10.021c10.688,8.71,10.688,8.71,13.06,9.514c5.935,2.013,12.442-0.698,15.204-6.343  C409.803,684.832,407.967,678.011,402.754,674.527z"
   id="path8"
   style="fill:#ecedef;fill-opacity:0.94117647" />
<path
   fill="none"
   d="M414.824,46.843c15.644,5.661,30.884,12.409,45.595,20.198c3.946,2.087,8.698,1.917,12.483-0.459  c3.78-2.378,6.003-6.599,5.838-11.073c-0.166-4.467-2.687-8.516-6.632-10.609c-15.748-8.333-32.05-15.554-48.797-21.616  c-6.485-2.351-13.645,1.022-15.989,7.525C404.978,37.311,408.333,44.486,414.824,46.843z"
   id="path10"
   style="fill:#ecedef;fill-opacity:0.94117647" />
<path
   fill="none"
   d="M54.624,177.684c3.408-0.003,6.672-1.404,9.028-3.876c80.172-84.371,199.912-118.031,312.129-87.731  c4.358,1.342,9.092,0.206,12.362-2.977c3.278-3.177,4.559-7.885,3.363-12.296c-1.2-4.404-4.706-7.806-9.137-8.872  c-121.056-32.759-250.278,3.537-336.773,94.58c-3.454,3.625-4.421,8.965-2.454,13.575C45.103,174.697,49.627,177.684,54.624,177.684  z"
   id="path12"
   style="fill:#ecedef;fill-opacity:0.94117647" />
<path
   fill="none"
   d="M431.029,78.936c-0.846-0.282-1.716-0.471-2.596-0.574c-0.743-0.224-1.504-0.374-2.27-0.454h-0.103  c-0.596,0.074-1.185,0.195-1.762,0.367c-1.841-0.017-3.625,0.666-4.997,1.899c-0.681,0.349-1.333,0.774-1.934,1.251  c-0.696,0.756-1.302,1.6-1.794,2.505c-0.345,0.425-0.664,0.872-0.951,1.343v0.099c-0.24,0.779-0.411,1.577-0.514,2.38  c-0.251,0.817-0.418,1.656-0.497,2.505v0.091c0.069,0.534,0.177,1.057,0.325,1.572c0.074,1.054,0.287,2.1,0.623,3.109  c0.35,0.721,0.767,1.409,1.253,2.053c0.376,0.694,0.816,1.353,1.315,1.968c0.755,0.709,1.595,1.318,2.498,1.816  c0.417,0.346,0.858,0.66,1.327,0.936c48.7,21.632,91.317,55.01,124.042,97.162c4.282,5.275,11.989,6.16,17.347,1.971  c5.358-4.173,6.405-11.887,2.351-17.346c-35.251-45.375-81.145-81.3-133.589-104.573L431.029,78.936z"
   id="path14"
   style="fill:#ecedef;fill-opacity:0.94117647" />
<path
   fill="none"
   d="M208.416,112.782c-31.313,9.517-60.776,24.299-87.149,43.712c-5.552,4.1-6.747,11.935-2.669,17.509  c4.083,5.573,11.893,6.775,17.457,2.679c24.095-17.745,51.033-31.25,79.641-39.944c4.316-1.262,7.621-4.761,8.65-9.147  c1.029-4.387-0.365-8.993-3.665-12.058C217.387,112.473,212.698,111.418,208.416,112.782z"
   id="path16"
   style="fill:#ecedef;fill-opacity:0.94117647" />
<path
   fill="none"
   d="M100.482,198.452c-1.281-4.309-4.769-7.6-9.133-8.62c-4.374-1.016-8.948,0.391-11.991,3.692  c-29.476,31.302-51.616,68.803-64.825,109.773c-2.132,6.568,1.453,13.631,8,15.778c6.558,2.133,13.603-1.464,15.73-8.04  c12.077-37.456,32.33-71.739,59.284-100.351C100.648,207.433,101.769,202.76,100.482,198.452z"
   id="path18"
   style="fill:#ecedef;fill-opacity:0.94117647" />
<path
   fill="none"
   d="M293.465,100.173c-10.881,0.015-21.751,0.63-32.575,1.828c-4.46,0.454-8.341,3.269-10.167,7.381  c-1.818,4.119-1.297,8.896,1.374,12.514c2.664,3.625,7.061,5.533,11.515,5.002c9.917-1.102,19.882-1.664,29.854-1.677  c136.792-0.304,251.798,102.903,266.637,239.296c0.703,6.339,6.038,11.139,12.397,11.145c0.463,0,0.916-0.024,1.372-0.075  c6.839-0.757,11.78-6.912,11.054-13.773C568.726,212.703,443.009,99.858,293.465,100.173z"
   id="path20"
   style="fill:#ecedef;fill-opacity:0.94117647" />
<path
   fill="none"
   d="M437.045,397.828c1.31-53.513-27.121-103.333-73.792-129.312c-46.663-25.974-103.85-23.818-148.445,5.602  c-18.365,12.033-33.746,28.124-44.949,47.044c-9.965,16.724-16.347,35.35-18.72,54.689c-0.84,6.157-1.258,12.376-1.252,18.591  v164.293c-0.08,44.396,19.745,86.48,53.994,114.604l25.074,20.679c24.571,20.245,47.558,39.198,64.923,53.363  c5.339,4.377,13.213,3.574,17.566-1.789c4.361-5.357,3.563-13.248-1.785-17.618c-17.281-14.147-40.25-33.089-64.786-53.311  l-25.084-20.669c-28.625-23.53-45.132-58.759-44.933-95.882v-163.67c-0.006-5.132,0.338-10.264,1.025-15.345  c1.954-15.95,7.221-31.307,15.455-45.088c23.81-40.186,68.793-62.77,115.144-57.814c61.035,7.484,106.602,59.963,105.596,121.633  v36.685c0.004,6.102,0.422,12.188,1.25,18.225c0.933,6.856,7.223,11.654,14.062,10.72c6.827-0.935,11.614-7.25,10.688-14.102  c-0.704-5.127-1.041-10.287-1.029-15.468V397.828z"
   id="path22"
   style="fill:#ecedef;fill-opacity:0.94117647" />
<path
   fill="none"
   d="M104.812,89.336c17.474,0,31.621-13.768,32.563-31.058c72.249-33.004,153.344-41.78,231.19-24.763  c6.737,1.492,13.399-2.781,14.879-9.538c1.487-6.754-2.779-13.442-9.509-14.928C291.523-8.967,205.712,0.127,129.068,34.617  c-5.994-6.68-14.591-10.96-24.256-10.96c-18.082,0-32.742,14.702-32.742,32.839C72.069,74.632,86.729,89.336,104.812,89.336z"
   id="path24"
   style="fill:#ecedef;fill-opacity:0.94117647" />
<path
   fill="none"
   d="M124.914,535.348c0-6.239-4.257-12.012-10.395-13.006c-7.826-1.267-14.574,4.75-14.574,12.346v32.687  c-0.004,4.813,0.248,9.61,0.732,14.383c0.678,6.682,6.63,11.574,13.292,10.893l0.806-0.083c6.738-0.689,11.422-6.789,10.74-13.546  c-0.416-4.112-0.625-8.248-0.601-12.395V535.348z"
   id="path26"
   style="fill:#ecedef;fill-opacity:0.94117647" />
<path
   fill="none"
   d="M381.922,532.19c2.128,4.079,6.314,6.654,10.895,6.715c4.585,0.059,8.839-2.396,11.075-6.417  c2.23-4.02,2.087-8.939-0.367-12.823c-10.88-18.915-16.548-40.398-16.422-62.237v-62.987c0.012-0.957-0.034-1.909-0.136-2.861  c-1.767-50.594-43.024-90.778-93.502-91.054c-5.409-0.028-10.806,0.453-16.13,1.439c-21.826,3.826-41.57,15.324-55.706,32.433  c-12.722,14.942-20.236,33.646-21.402,53.259c-0.309,2.248-0.439,4.52-0.4,6.784v58.979c0,23.434,0,51.758,0.127,81.649  c-0.098,44.41,19.738,86.511,54.005,114.627l13.449,11.041c31.257,25.713,51.34,42.233,64.486,53.041  c-0.866,2.948-1.475,6.005-1.475,9.233c0,18.137,14.66,32.839,32.742,32.839c18.083,0,32.742-14.702,32.742-32.839  c0-18.136-14.659-32.839-32.742-32.839c-5.651,0-10.886,1.566-15.526,4.094c-16.679-13.699-40.147-33-64.395-52.946l-13.494-10.994  c-28.654-23.587-45.143-58.892-44.876-96.071c-0.079-29.14-0.079-57.425-0.079-80.835v-58.979c-0.036-1.398,0.045-2.791,0.24-4.18  c0.754-14.635,6.29-28.617,15.746-39.793c10.414-12.619,24.983-21.078,41.079-23.871c3.825-0.71,7.712-1.056,11.607-1.026  c37.104,0.184,67.404,29.799,68.543,66.996c-0.03,0.624,0.011,1.255,0.125,1.874v63.865  C362.127,484.251,368.954,509.738,381.922,532.19z"
   id="path28"
   style="fill:#ecedef;fill-opacity:0.94117647" />
<path
   fill="none"
   d="M508.857,357.791c-10.734,5.391-18.174,16.406-18.174,29.267c0,18.135,14.659,32.837,32.742,32.837  s32.742-14.703,32.742-32.837c0-14.476-9.401-26.627-22.367-30.997c-7.385-46.555-27.827-90.178-59.234-125.58  c-4.619-5.081-12.446-5.476-17.555-0.894c-5.099,4.588-5.568,12.439-1.051,17.602C483.679,278.432,501.948,316.794,508.857,357.791z  "
   id="path30"
   style="fill:#ecedef;fill-opacity:0.94117647" />
<path
   fill="none"
   d="M62.64,450.719h0.612c6.833-0.359,12.128-6.158,11.881-13.023c-0.158-3.303-0.158-41.189-0.158-43.254  c0-3.992,0.125-7.988,0.239-11.584c1.425-27.258,8.006-54.006,19.385-78.809c36.109-80.405,116.887-131.141,204.774-128.618  c6.851,0.074,12.521-5.316,12.82-12.183c0.184-6.915-5.255-12.661-12.146-12.846c-97.915-2.792-187.9,53.708-228.17,143.265  c-12.707,27.723-20.038,57.625-21.609,88.101c-0.137,4.145-0.264,8.408-0.264,12.673c0,28.016,0,43.019,0.15,44.596  C50.552,445.644,56.035,450.783,62.64,450.719z"
   id="path32"
   style="fill:#ecedef;fill-opacity:0.94117647" />
<path
   fill="none"
   d="M348.375,182.067l4.432,1.077c23.8,6.354,46.299,16.844,66.483,30.991c5.667,3.96,13.448,2.559,17.393-3.115  c3.947-5.683,2.558-13.487-3.109-17.443c-22.638-15.846-47.866-27.581-74.551-34.674l-4.604-1.13  c-6.621-1.492-13.214,2.587-14.855,9.188C337.922,173.563,341.835,180.265,348.375,182.067z"
   id="path34"
   style="fill:#ecedef;fill-opacity:0.94117647" />
<path
   fill="none"
   d="M571.849,419.895h-0.298c-6.02,0-10.941,4.415-11.896,10.31c-24.018,148.237-188.431,358.58-251.901,435.248  c-8.245,9.959-23.457,9.959-31.701,0c-63.47-76.668-227.888-287.011-251.906-435.248c-0.955-5.895-5.879-10.31-11.833-10.31h-0.304  c-7.394,0-13.021,6.64-11.834,13.959c30.923,190.553,271.76,464.714,282.686,477.066c4.81,5.434,13.274,5.434,18.085,0  c10.926-12.353,251.81-286.571,282.691-477.125C584.817,426.507,579.21,419.895,571.849,419.895z"
   id="path36"
   style="fill:#ecedef;fill-opacity:0.94117647" />
</svg>