<?xml version="1.0" encoding="UTF-8" standalone="no"?>
<svg
   xmlns:dc="http://purl.org/dc/elements/1.1/"
   xmlns:cc="http://creativecommons.org/ns#"
   xmlns:rdf="http://www.w3.org/1999/02/22-rdf-syntax-ns#"
   xmlns:svg="http://www.w3.org/2000/svg"
   xmlns="http://www.w3.org/2000/svg"
   xmlns:sodipodi="http://sodipodi.sourceforge.net/DTD/sodipodi-0.dtd"
   xmlns:inkscape="http://www.inkscape.org/namespaces/inkscape"
   height="480pt"
   viewBox="0 0 480 480"
   width="480pt"
   version="1.1"
   id="svg28"
   sodipodi:docname="24-hours.svg"
   inkscape:version="0.92.4 (5da689c313, 2019-01-14)">
  <metadata
     id="metadata34">
    <rdf:RDF>
      <cc:Work
         rdf:about="">
        <dc:format>image/svg+xml</dc:format>
        <dc:type
           rdf:resource="http://purl.org/dc/dcmitype/StillImage" />
      </cc:Work>
    </rdf:RDF>
  </metadata>
  <defs
     id="defs32" />
  <sodipodi:namedview
     pagecolor="#ffffff"
     bordercolor="#666666"
     borderopacity="1"
     objecttolerance="10"
     gridtolerance="10"
     guidetolerance="10"
     inkscape:pageopacity="0"
     inkscape:pageshadow="2"
     inkscape:window-width="1920"
     inkscape:window-height="1001"
     id="namedview30"
     showgrid="false"
     inkscape:zoom="0.36875"
     inkscape:cx="320"
     inkscape:cy="320"
     inkscape:window-x="-9"
     inkscape:window-y="-9"
     inkscape:window-maximized="1"
     inkscape:current-layer="svg28" />
  <path
     d="m256 32c-8.3125.003906-16.617188.457031-24.878906 1.359375l1.757812 15.914063c87.730469-9.753907 172.046875 36.972656 210.285156 116.527343 38.238282 79.558594 22.054688 174.589844-40.359374 237.003907-62.414063 62.414062-157.445313 78.597656-237.003907 40.359374-79.554687-38.238281-126.28125-122.554687-116.527343-210.285156l-15.914063-1.757812c-.902344 8.261718-1.355469 16.566406-1.359375 24.878906 0 123.710938 100.289062 224 224 224s224-100.289062 224-224-100.289062-224-224-224zm0 0"
     id="path6"
     style="fill:#ffffff" />
  <path
     d="m64.175781 247.664062c-.113281 2.734376-.175781 5.542969-.175781 8.335938 0 106.039062 85.960938 192 192 192s192-85.960938 192-192-85.960938-192-192-192c-2.792969 0-5.601562.0625-8.335938.175781l.671876 16c2.542968-.117187 5.097656-.175781 7.664062-.175781 97.203125 0 176 78.796875 176 176s-78.796875 176-176 176-176-78.796875-176-176c0-2.566406.054688-5.121094.167969-7.664062zm0 0"
     id="path8"
     style="fill:#ffffff" />
  <path
     d="m248 96h16v16h-16zm0 0"
     id="path10"
     style="fill:#ffffff" />
  <path
     d="m96 248h16v16h-16zm0 0"
     id="path12"
     style="fill:#ffffff" />
  <path
     d="m137.207031 363.480469 11.316407-11.316407 11.3125 11.316407-11.3125 11.3125zm0 0"
     id="path14"
     style="fill:#ffffff" />
  <path
     d="m248 400h16v16h-16zm0 0"
     id="path16"
     style="fill:#ffffff" />
  <path
     d="m352.167969 363.480469 11.3125-11.3125 11.316406 11.3125-11.316406 11.3125zm0 0"
     id="path18"
     style="fill:#ffffff" />
  <path
     d="m400 248h16v16h-16zm0 0"
     id="path20"
     style="fill:#ffffff" />
  <path
     d="m352.167969 148.519531 11.3125-11.3125 11.316406 11.3125-11.316406 11.316407zm0 0"
     id="path22"
     style="fill:#ffffff" />
  <path
     d="m152 248v16h78.054688l20.289062 20.289062c3.125 3.121094 8.1875 3.121094 11.3125 0l22.632812-22.632812c3.121094-3.125 3.121094-8.1875 0-11.3125l-20.289062-20.289062v-94.054688h-16v94.054688l-17.945312 17.945312zm104-3.320312 11.320312 11.320312-11.320312 11.320312-11.320312-11.320312zm0 0"
     id="path24"
     style="fill:#ffffff" />
  <path
     d="m120 240c66.273438 0 120-53.726562 120-120s-53.726562-120-120-120-120 53.726562-120 120c.0742188 66.242188 53.757812 119.925781 120 120zm0-224c57.4375 0 104 46.5625 104 104s-46.5625 104-104 104-104-46.5625-104-104c.066406-57.410156 46.589844-103.933594 104-104zm0 0"
     id="path26"
     style="fill:#ffffff" />
</svg>
