<?xml version="1.0" encoding="UTF-8" standalone="no"?>
<!-- Generator: Adobe Illustrator 16.0.0, SVG Export Plug-In . SVG Version: 6.00 Build 0)  -->

<svg
   xmlns:dc="http://purl.org/dc/elements/1.1/"
   xmlns:cc="http://creativecommons.org/ns#"
   xmlns:rdf="http://www.w3.org/1999/02/22-rdf-syntax-ns#"
   xmlns:svg="http://www.w3.org/2000/svg"
   xmlns="http://www.w3.org/2000/svg"
   xmlns:xlink="http://www.w3.org/1999/xlink"
   xmlns:sodipodi="http://sodipodi.sourceforge.net/DTD/sodipodi-0.dtd"
   xmlns:inkscape="http://www.inkscape.org/namespaces/inkscape"
   version="1.1"
   id="Warstwa_1"
   x="0px"
   y="0px"
   width="550"
   height="360"
   viewBox="0 0 550.00001 360"
   enable-background="new 0 0 3015.18 360.311"
   xml:space="preserve"
   sodipodi:docname="icon_4_2.svg"
   inkscape:version="0.92.4 (5da689c313, 2019-01-14)"><metadata
   id="metadata77"><rdf:RDF><cc:Work
       rdf:about=""><dc:format>image/svg+xml</dc:format><dc:type
         rdf:resource="http://purl.org/dc/dcmitype/StillImage" /><dc:title></dc:title></cc:Work></rdf:RDF></metadata><defs
   id="defs75">
	<defs
   id="defs3">
		<rect
   height="360.311"
   width="3015.179"
   id="SVGID_1_"
   x="0"
   y="0" />
	</defs>
	<clipPath
   id="SVGID_2_">
		<use
   id="use5"
   overflow="visible"
   xlink:href="#SVGID_1_"
   style="overflow:visible"
   x="0"
   y="0"
   width="100%"
   height="100%" />
	</clipPath>
	
	
	
	
	
	
	
	
	
	
	
	
	
	
	
	
	
	
	
	
	
	
	
	
	
	
	
	
	
	
	
</defs><sodipodi:namedview
   pagecolor="#ffffff"
   bordercolor="#666666"
   borderopacity="1"
   objecttolerance="10"
   gridtolerance="10"
   guidetolerance="10"
   inkscape:pageopacity="0"
   inkscape:pageshadow="2"
   inkscape:window-width="1920"
   inkscape:window-height="1017"
   id="namedview73"
   showgrid="false"
   showguides="true"
   inkscape:guide-bbox="true"
   inkscape:zoom="0.22627417"
   inkscape:cx="2393.332"
   inkscape:cy="301.17661"
   inkscape:window-x="1912"
   inkscape:window-y="-8"
   inkscape:window-maximized="1"
   inkscape:current-layer="Warstwa_1"><sodipodi:guide
     position="499.41666,120.04679"
     orientation="1,0"
     id="guide884"
     inkscape:locked="false" /></sodipodi:namedview>
<g
   id="g1869"
   transform="translate(-2050.9925,4.6413281e-6)"
   style="fill:#ff3202;fill-opacity:1"><path
     transform="translate(0,-0.31100928)"
     clip-path="url(#SVGID_2_)"
     d="m 2284.391,57.059 c -1.59,-1.279 -3.604,-1.91 -5.641,-1.767 h -30.777 l 28.74,-32.138 2.718,-2.989 1.698,-2.106 c 0.483,-0.693 0.873,-1.447 1.155,-2.243 0.345,-0.841 0.529,-1.74 0.543,-2.65 0.212,-2.042 -0.73,-4.034 -2.445,-5.163 -2.464,-1.229 -5.199,-1.813 -7.949,-1.699 h -36.079 c -1.906,-0.116 -3.789,0.463 -5.3,1.63 -1.224,1.08 -1.896,2.651 -1.834,4.281 0,2.446 0.814,3.964 2.444,4.552 2.386,0.68 4.861,0.978 7.34,0.884 h 23.373 c -0.951,1.359 -2.22,2.967 -3.806,4.824 l -6.114,7.134 -7.883,8.697 -9.376,10.396 c -3.262,3.624 -5.413,6.115 -6.455,7.474 -2.32,2.802 -2.021,6.937 0.68,9.376 1.942,1.475 4.364,2.177 6.795,1.97 h 42.532 c 2.025,0.144 4.031,-0.461 5.641,-1.698 1.24,-1.073 1.937,-2.641 1.902,-4.281 0.039,-1.698 -0.653,-3.333 -1.902,-4.484"
     id="path8"
     inkscape:connector-curvature="0"
     style="fill:#ff3202;fill-opacity:1" /><path
     transform="translate(0,-0.31100928)"
     clip-path="url(#SVGID_2_)"
     d="m 2348.87,93.749 c -1.259,-1.029 -2.862,-1.539 -4.484,-1.427 h -24.664 l 22.966,-25.683 2.174,-2.378 1.358,-1.699 c 0.396,-0.543 0.716,-1.137 0.951,-1.766 0.267,-0.67 0.405,-1.385 0.408,-2.107 0.185,-1.695 -0.64,-3.342 -2.106,-4.212 -1.914,-0.875 -4.013,-1.271 -6.115,-1.155 h -28.877 c -1.513,-0.089 -3.009,0.369 -4.213,1.291 -1.007,0.861 -1.56,2.141 -1.494,3.465 0,1.947 0.656,3.149 1.971,3.601 1.9,0.533 3.872,0.762 5.843,0.679 h 18.617 c -0.771,1.088 -1.789,2.379 -3.058,3.873 l -4.823,5.776 -6.251,6.794 -7.475,8.289 c -2.582,2.899 -4.304,4.892 -5.164,5.98 -0.758,0.92 -1.188,2.069 -1.223,3.261 -0.079,1.619 0.569,3.189 1.766,4.281 1.539,1.159 3.448,1.715 5.368,1.562 h 33.974 c 1.631,0.11 3.246,-0.373 4.552,-1.359 0.991,-0.873 1.54,-2.144 1.495,-3.465 0.047,-1.36 -0.498,-2.674 -1.496,-3.601"
     id="path10"
     inkscape:connector-curvature="0"
     style="fill:#ff3202;fill-opacity:1" /><path
     transform="translate(0,-0.31100928)"
     clip-path="url(#SVGID_2_)"
     d="m 2425.104,52.982 c -1.59,-1.279 -3.604,-1.91 -5.639,-1.767 h -30.847 l 28.739,-32.138 2.719,-2.989 1.699,-2.106 c 0.525,-0.664 0.959,-1.395 1.291,-2.175 0.346,-0.842 0.529,-1.74 0.543,-2.65 0.197,-2.109 -0.834,-4.143 -2.65,-5.231 -2.399,-1.114 -5.034,-1.627 -7.677,-1.495 h -36.216 c -1.905,-0.116 -3.789,0.463 -5.299,1.631 -1.224,1.079 -1.896,2.65 -1.835,4.28 0,2.446 0.816,3.964 2.446,4.553 2.384,0.679 4.861,0.977 7.338,0.882 h 22.966 c -0.952,1.359 -2.22,2.967 -3.806,4.825 l -5.707,6.93 -7.881,8.697 -9.377,10.396 c -3.262,3.624 -5.412,6.115 -6.454,7.474 -2.322,2.802 -2.022,6.937 0.679,9.376 1.942,1.475 4.363,2.177 6.794,1.97 h 42.534 c 2.025,0.144 4.031,-0.461 5.639,-1.698 1.24,-1.073 1.938,-2.641 1.903,-4.281 0.04,-1.697 -0.652,-3.333 -1.902,-4.484"
     id="path12"
     inkscape:connector-curvature="0"
     style="fill:#ff3202;fill-opacity:1" /><path
     transform="translate(0,-0.31100928)"
     clip-path="url(#SVGID_2_)"
     d="m 2414.981,350.513 -20.384,-42.602 c 20.169,-18.82 31.695,-45.116 31.866,-72.701 -0.011,-55.575 -45.072,-100.618 -100.646,-100.607 -55.574,0.011 -100.619,45.072 -100.607,100.646 0,27.609 11.354,54.004 31.39,73.001 l -19.704,42.262 c -1.658,3.365 -0.273,7.438 3.092,9.098 3.366,1.659 7.439,0.274 9.099,-3.092 0.038,-0.077 0.074,-0.153 0.108,-0.23 l 18.412,-39.137 c 34.896,25.147 81.97,25.147 116.865,0 l 18.21,39.137 c 1.531,3.426 5.55,4.961 8.976,3.43 3.426,-1.531 4.962,-5.55 3.43,-8.976 -0.034,-0.076 -0.069,-0.154 -0.107,-0.229 m -89.144,-28.265 c -48.039,-0.074 -86.963,-38.998 -87.038,-87.037 0,-48.068 38.969,-87.038 87.038,-87.038 48.069,0 87.037,38.969 87.037,87.038 0,48.069 -38.968,87.037 -87.037,87.037"
     id="path14"
     inkscape:connector-curvature="0"
     style="fill:#ff3202;fill-opacity:1" /><path
     transform="translate(0,-0.31100928)"
     clip-path="url(#SVGID_2_)"
     d="m 2373.942,282.975 -41.31,-50.211 v -51.91 c 0,-3.752 -3.043,-6.794 -6.796,-6.794 -3.752,0 -6.794,3.042 -6.794,6.794 v 54.356 c 0,1.587 0.549,3.126 1.563,4.349 l 42.873,52.113 c 2.401,2.89 6.69,3.285 9.58,0.884 2.89,-2.402 3.286,-6.691 0.884,-9.581"
     id="path16"
     inkscape:connector-curvature="0"
     style="fill:#ff3202;fill-opacity:1" /><path
     transform="translate(0,-0.31100928)"
     clip-path="url(#SVGID_2_)"
     d="m 2290.438,125.887 c -17.137,-25.422 -51.635,-32.139 -77.057,-15.003 -25.422,17.135 -32.14,51.635 -15.004,77.057 3.459,5.132 7.752,9.649 12.701,13.365 3.002,2.251 7.26,1.645 9.512,-1.359 2.252,-3.002 1.644,-7.261 -1.358,-9.512 -18.5,-13.923 -22.211,-40.205 -8.29,-58.705 7.92,-10.525 20.326,-16.714 33.497,-16.714 13.925,0.012 26.935,6.937 34.72,18.481 2.102,3.114 6.33,3.935 9.445,1.834 3.113,-2.101 3.935,-6.33 1.834,-9.444"
     id="path18"
     inkscape:connector-curvature="0"
     style="fill:#ff3202;fill-opacity:1" /><path
     transform="translate(0,-0.31100928)"
     clip-path="url(#SVGID_2_)"
     d="m 2452.205,123.732 c -18.235,-24.646 -52.996,-29.843 -77.643,-11.609 -5.266,3.896 -9.801,8.694 -13.395,14.172 -2.083,3.132 -1.23,7.361 1.903,9.444 3.133,2.082 7.361,1.23 9.443,-1.903 12.748,-19.328 38.75,-24.661 58.077,-11.913 19.328,12.748 24.662,38.75 11.914,58.078 -2.691,4.079 -6.073,7.655 -9.996,10.569 l -0.068,-0.068 c -3,2.254 -3.604,6.514 -1.35,9.514 2.251,2.996 6.504,3.604 9.504,1.357 24.648,-18.234 29.845,-52.995 11.611,-77.641"
     id="path20"
     inkscape:connector-curvature="0"
     style="fill:#ff3202;fill-opacity:1" /></g>
</svg>