<?xml version="1.0" encoding="UTF-8" standalone="no"?>
<!-- Generator: Adobe Illustrator 16.0.0, SVG Export Plug-In . SVG Version: 6.00 Build 0)  -->

<svg
   xmlns:dc="http://purl.org/dc/elements/1.1/"
   xmlns:cc="http://creativecommons.org/ns#"
   xmlns:rdf="http://www.w3.org/1999/02/22-rdf-syntax-ns#"
   xmlns:svg="http://www.w3.org/2000/svg"
   xmlns="http://www.w3.org/2000/svg"
   xmlns:xlink="http://www.w3.org/1999/xlink"
   xmlns:sodipodi="http://sodipodi.sourceforge.net/DTD/sodipodi-0.dtd"
   xmlns:inkscape="http://www.inkscape.org/namespaces/inkscape"
   version="1.1"
   id="Warstwa_1"
   x="0px"
   y="0px"
   width="550"
   height="360"
   viewBox="0 0 550.00001 360"
   enable-background="new 0 0 3015.18 360.311"
   xml:space="preserve"
   sodipodi:docname="icon_5_1.svg"
   inkscape:version="0.92.4 (5da689c313, 2019-01-14)"><metadata
   id="metadata77"><rdf:RDF><cc:Work
       rdf:about=""><dc:format>image/svg+xml</dc:format><dc:type
         rdf:resource="http://purl.org/dc/dcmitype/StillImage" /><dc:title></dc:title></cc:Work></rdf:RDF></metadata><defs
   id="defs75">
	<defs
   id="defs3">
		<rect
   height="360.311"
   width="3015.179"
   id="SVGID_1_"
   x="0"
   y="0" />
	</defs>
	<clipPath
   id="SVGID_2_">
		<use
   id="use5"
   overflow="visible"
   xlink:href="#SVGID_1_"
   style="overflow:visible"
   x="0"
   y="0"
   width="100%"
   height="100%" />
	</clipPath>
	
	
	
	
	
	
	
	
	
	
	
	
	
	
	
	
	
	
	
	
	
	
	
	
	
	
	
	
	
	
	
</defs><sodipodi:namedview
   pagecolor="#ffffff"
   bordercolor="#666666"
   borderopacity="1"
   objecttolerance="10"
   gridtolerance="10"
   guidetolerance="10"
   inkscape:pageopacity="0"
   inkscape:pageshadow="2"
   inkscape:window-width="1920"
   inkscape:window-height="1017"
   id="namedview73"
   showgrid="false"
   showguides="true"
   inkscape:guide-bbox="true"
   inkscape:zoom="0.22627417"
   inkscape:cx="2393.332"
   inkscape:cy="301.17661"
   inkscape:window-x="1912"
   inkscape:window-y="-8"
   inkscape:window-maximized="1"
   inkscape:current-layer="Warstwa_1"><sodipodi:guide
     position="499.41666,120.04679"
     orientation="1,0"
     id="guide884"
     inkscape:locked="false" /></sodipodi:namedview>
<path
   style="fill:#ffffff"
   inkscape:connector-curvature="0"
   id="path44"
   d="m 3009.173,213.262 c -3.317,0 -6.006,2.691 -6.006,6.005 v 21.403 c 0,12.281 -9.993,22.275 -22.274,22.275 h -34.232 c -1.593,0 -3.119,0.63 -4.247,1.756 l -41.501,41.503 V 268.95 c 0,-3.318 -2.689,-6.005 -6.005,-6.005 h -85.985 c -12.281,0 -22.275,-9.992 -22.275,-22.275 v -90.848 c 0,-12.282 9.994,-22.273 22.275,-22.273 h 171.971 c 12.281,0 22.274,9.991 22.274,22.273 v 21.4 c 0,3.319 2.688,6.006 6.006,6.006 3.314,0 6.006,-2.687 6.006,-6.006 v -21.4 c 0,-18.905 -15.38,-34.285 -34.286,-34.285 h -171.971 c -18.906,0 -34.286,15.38 -34.286,34.285 v 77.155 h -43.712 c -12.809,0 -23.231,10.42 -23.231,23.232 v 55.342 c 0,12.813 10.423,23.232 23.231,23.232 h 18.368 l 29.765,29.767 c 1.15,1.15 2.688,1.761 4.25,1.761 0.772,0 1.556,-0.15 2.297,-0.458 2.244,-0.929 3.709,-3.116 3.709,-5.548 v -25.521 h 46.373 c 12.812,0 23.232,-10.419 23.232,-23.232 v -30.595 h 29.983 v 45.745 c 0,2.431 1.464,4.62 3.709,5.548 0.741,0.308 1.521,0.458 2.297,0.458 1.563,0 3.099,-0.609 4.247,-1.76 l 49.992,-49.991 h 31.746 c 18.906,0 34.286,-15.38 34.286,-34.286 v -21.403 c 0,-3.314 -2.692,-6.006 -6.006,-6.006 m -162.264,92.289 c 0,6.189 -5.033,11.221 -11.224,11.221 h -52.379 c -3.318,0 -6.006,2.691 -6.006,6.007 v 17.028 l -21.274,-21.274 c -1.126,-1.126 -2.654,-1.761 -4.247,-1.761 h -20.855 c -6.188,0 -11.221,-5.031 -11.221,-11.221 v -55.342 c 0,-6.188 5.033,-11.221 11.221,-11.221 h 43.712 v 1.682 c 0,18.906 15.38,34.286 34.286,34.286 h 37.987 z"
   clip-path="url(#SVGID_2_)"
   transform="translate(-2586.4365,-0.31100928)" /><path
   style="fill:#ffffff"
   inkscape:connector-curvature="0"
   id="path46"
   d="m 2953.462,154.893 h -117.109 c -3.316,0 -6.006,2.689 -6.006,6.006 0,3.318 2.689,6.005 6.006,6.005 h 117.109 c 3.315,0 6.005,-2.687 6.005,-6.005 0,-3.317 -2.69,-6.006 -6.005,-6.006"
   clip-path="url(#SVGID_2_)"
   transform="translate(-2619.907,-0.31100928)" /><path
   style="fill:#ffffff"
   inkscape:connector-curvature="0"
   id="path48"
   d="m 2959.467,193.331 c 0,-3.316 -2.688,-6.005 -6.005,-6.005 h -117.11 c -3.315,0 -6.004,2.688 -6.004,6.005 0,3.318 2.688,6.006 6.004,6.006 h 117.11 c 3.316,-10e-4 6.005,-2.688 6.005,-6.006"
   clip-path="url(#SVGID_2_)"
   transform="translate(-2619.9075,-0.31100928)" /><path
   style="fill:#ffffff"
   inkscape:connector-curvature="0"
   id="path50"
   d="m 2836.353,219.755 c -3.316,0 -6.005,2.689 -6.005,6.006 0,3.318 2.688,6.006 6.005,6.006 h 67.563 c 3.315,0 6.006,-2.688 6.006,-6.006 0,-3.316 -2.69,-6.006 -6.006,-6.006 z"
   clip-path="url(#SVGID_2_)"
   transform="translate(-2595.135,-0.31100928)" /><path
   style="fill:#ffffff"
   inkscape:connector-curvature="0"
   id="path52"
   d="m 3009.174,189.24 c -3.308,0 -6.007,2.698 -6.007,6.005 0,3.31 2.699,6.006 6.007,6.006 3.307,0 6.004,-2.696 6.004,-6.006 0,-3.307 -2.698,-6.005 -6.004,-6.005"
   clip-path="url(#SVGID_2_)"
   transform="translate(-2734.1725,-0.31100928)" />
</svg>