<?xml version="1.0" encoding="UTF-8" standalone="no"?>
<!-- Generator: Adobe Illustrator 16.0.0, SVG Export Plug-In . SVG Version: 6.00 Build 0)  -->

<svg
   xmlns:dc="http://purl.org/dc/elements/1.1/"
   xmlns:cc="http://creativecommons.org/ns#"
   xmlns:rdf="http://www.w3.org/1999/02/22-rdf-syntax-ns#"
   xmlns:svg="http://www.w3.org/2000/svg"
   xmlns="http://www.w3.org/2000/svg"
   xmlns:xlink="http://www.w3.org/1999/xlink"
   xmlns:sodipodi="http://sodipodi.sourceforge.net/DTD/sodipodi-0.dtd"
   xmlns:inkscape="http://www.inkscape.org/namespaces/inkscape"
   version="1.1"
   id="Warstwa_1"
   x="0px"
   y="0px"
   width="550"
   height="360"
   viewBox="0 0 550.00001 360"
   enable-background="new 0 0 3015.18 360.311"
   xml:space="preserve"
   sodipodi:docname="icon_1_2.svg"
   inkscape:version="0.92.4 (5da689c313, 2019-01-14)"><metadata
   id="metadata77"><rdf:RDF><cc:Work
       rdf:about=""><dc:format>image/svg+xml</dc:format><dc:type
         rdf:resource="http://purl.org/dc/dcmitype/StillImage" /><dc:title></dc:title></cc:Work></rdf:RDF></metadata><defs
   id="defs75">
	<defs
   id="defs3">
		<rect
   height="360.311"
   width="3015.179"
   id="SVGID_1_"
   x="0"
   y="0" />
	</defs>
	<clipPath
   id="SVGID_2_">
		<use
   id="use5"
   overflow="visible"
   xlink:href="#SVGID_1_"
   style="overflow:visible"
   x="0"
   y="0"
   width="100%"
   height="100%" />
	</clipPath>
	
	
	
	
	
	
	
	
	
	
	
	
	
	
	
	
	
	
	
	
	
	
	
	
	
	
	
	
	
	
	
</defs><sodipodi:namedview
   pagecolor="#ffffff"
   bordercolor="#666666"
   borderopacity="1"
   objecttolerance="10"
   gridtolerance="10"
   guidetolerance="10"
   inkscape:pageopacity="0"
   inkscape:pageshadow="2"
   inkscape:window-width="1920"
   inkscape:window-height="1017"
   id="namedview73"
   showgrid="false"
   showguides="true"
   inkscape:guide-bbox="true"
   inkscape:zoom="0.22627417"
   inkscape:cx="-16.008612"
   inkscape:cy="301.17661"
   inkscape:window-x="1912"
   inkscape:window-y="-8"
   inkscape:window-maximized="1"
   inkscape:current-layer="Warstwa_1"><sodipodi:guide
     position="499.41666,120.04679"
     orientation="1,0"
     id="guide884"
     inkscape:locked="false" /></sodipodi:namedview>
<g
   id="g1774"
   transform="translate(35.9105,-0.311)"
   style="fill:#ff3202;fill-opacity:1"><path
     clip-path="url(#SVGID_2_)"
     d="m 335.212,213.577 c -2.948,-1.621 -5.856,-3.398 -8.643,-5.281 l -45.058,-30.439 c -13.675,-9.238 -29.627,-14.121 -46.129,-14.121 h -82.701 c -21.953,0 -42.608,8.534 -58.161,24.028 -7.995,7.965 -17.103,14.628 -27.071,19.804 -5.895,3.062 -9.557,9.087 -9.557,15.724 0,9.775 7.952,17.727 17.726,17.727 h 28.196 c 3.762,0 6.812,-3.05 6.812,-6.812 0,-3.763 -3.05,-6.813 -6.812,-6.813 H 75.618 c -2.261,0 -4.102,-1.841 -4.102,-4.103 0,-1.533 0.847,-2.925 2.211,-3.633 11.199,-5.814 21.43,-13.299 30.407,-22.242 12.982,-12.935 30.223,-20.056 48.546,-20.056 h 18.515 v 50.034 h -22.631 c -3.762,0 -6.812,3.05 -6.812,6.813 0,3.762 3.05,6.812 6.812,6.812 H 335.35 c 5.6,0 10.156,-4.556 10.156,-10.155 0,-7.173 -3.946,-13.797 -10.294,-17.287 M 184.821,227.394 V 177.36 h 50.562 c 13.774,0 27.089,4.076 38.502,11.786 l 45.058,30.439 c 3.129,2.113 6.393,4.108 9.705,5.929 0.857,0.472 1.575,1.12 2.115,1.88 z"
     id="path34"
     inkscape:connector-curvature="0"
     style="fill:#ff3202;fill-opacity:1" /><path
     clip-path="url(#SVGID_2_)"
     d="m 201.699,251.373 h -21.042 c -3.762,0 -6.812,3.05 -6.812,6.813 0,3.762 3.05,6.812 6.812,6.812 h 21.042 c 3.762,0 6.812,-3.05 6.812,-6.812 0,-3.764 -3.05,-6.813 -6.812,-6.813"
     id="path36"
     inkscape:connector-curvature="0"
     style="fill:#ff3202;fill-opacity:1" /><path
     clip-path="url(#SVGID_2_)"
     d="m 472.301,245.655 -2.152,-3.571 c -8.109,-13.457 -21.598,-22.933 -37.007,-25.998 l -17.587,-3.497 -35.545,-7.067 -9.04,-1.798 c -12.478,-2.481 -24.642,-10.012 -32.707,-15.462 l -45.058,-30.438 c -17.142,-11.58 -37.137,-17.701 -57.823,-17.701 h -82.701 c -27.518,0 -53.41,10.697 -72.904,30.118 -12.335,12.289 -27.863,20.672 -44.905,24.241 l -9.78,2.048 C 10.553,199.575 0,212.568 0,227.422 v 65.974 c 0,7.87 4.646,15.021 11.839,18.217 l 27.133,12.059 c 1.64,8.58 5.774,16.773 12.403,23.402 8.81,8.811 20.382,13.216 31.956,13.216 11.573,0 23.144,-4.405 31.955,-13.216 5.666,-5.666 9.499,-12.477 11.521,-19.693 h 226.234 c 2.022,7.217 5.856,14.027 11.522,19.693 8.536,8.536 19.884,13.237 31.956,13.237 12.071,0 23.42,-4.7 31.956,-13.237 5.666,-5.666 9.499,-12.477 11.521,-19.693 h 12.923 c 13.928,0 25.26,-11.332 25.26,-25.26 v -35.332 c -0.002,-7.448 -2.035,-14.755 -5.878,-21.134 m -366.649,91.787 c -5.962,5.962 -13.89,9.246 -22.322,9.246 -8.433,0 -16.36,-3.284 -22.322,-9.246 -9.565,-9.564 -11.692,-23.788 -6.393,-35.431 0.043,-0.093 0.084,-0.188 0.127,-0.28 0.162,-0.346 0.333,-0.688 0.507,-1.027 0.082,-0.161 0.164,-0.32 0.25,-0.479 0.158,-0.296 0.323,-0.589 0.491,-0.881 0.115,-0.2 0.234,-0.399 0.355,-0.598 0.155,-0.257 0.314,-0.513 0.478,-0.766 0.148,-0.229 0.301,-0.455 0.456,-0.68 0.153,-0.224 0.306,-0.447 0.464,-0.667 0.183,-0.251 0.372,-0.498 0.563,-0.743 0.148,-0.193 0.293,-0.388 0.446,-0.577 0.224,-0.277 0.459,-0.548 0.692,-0.819 0.134,-0.154 0.262,-0.312 0.398,-0.465 0.348,-0.386 0.705,-0.763 1.073,-1.135 0.032,-0.031 0.061,-0.064 0.093,-0.097 0.069,-0.07 0.144,-0.136 0.214,-0.204 0.312,-0.307 0.626,-0.609 0.947,-0.899 0.083,-0.076 0.171,-0.146 0.255,-0.22 0.319,-0.284 0.64,-0.565 0.969,-0.833 0.031,-0.025 0.063,-0.049 0.094,-0.074 11.547,-9.343 28.199,-9.333 39.732,0.038 0.013,0.011 0.027,0.021 0.041,0.031 0.352,0.287 0.697,0.588 1.04,0.892 0.061,0.055 0.125,0.105 0.185,0.161 0.396,0.357 0.785,0.727 1.166,1.107 0.411,0.411 0.807,0.834 1.192,1.263 0.169,0.188 0.328,0.382 0.492,0.573 0.199,0.233 0.4,0.468 0.593,0.706 0.215,0.269 0.424,0.541 0.629,0.813 0.116,0.152 0.231,0.306 0.343,0.46 0.249,0.344 0.492,0.691 0.727,1.043 0.04,0.06 0.079,0.12 0.118,0.181 8.014,12.241 6.65,28.863 -4.093,39.607 m 313.188,0 c -5.963,5.962 -13.89,9.246 -22.323,9.246 -8.433,0 -16.359,-3.284 -22.321,-9.246 -10.745,-10.744 -12.109,-27.369 -4.095,-39.607 0.038,-0.06 0.077,-0.118 0.116,-0.176 0.234,-0.354 0.478,-0.701 0.729,-1.047 0.11,-0.153 0.225,-0.304 0.339,-0.455 0.207,-0.274 0.416,-0.548 0.634,-0.818 0.191,-0.236 0.389,-0.468 0.588,-0.699 0.165,-0.193 0.327,-0.39 0.498,-0.579 0.384,-0.429 0.78,-0.851 1.192,-1.262 5.962,-5.962 13.888,-9.246 22.321,-9.246 8.432,0 16.36,3.284 22.322,9.246 0.411,0.411 0.807,0.834 1.192,1.263 0.169,0.188 0.329,0.383 0.494,0.575 0.199,0.232 0.399,0.466 0.591,0.703 0.216,0.27 0.425,0.542 0.631,0.815 0.115,0.153 0.23,0.305 0.342,0.459 0.249,0.345 0.493,0.69 0.727,1.043 0.04,0.06 0.079,0.119 0.118,0.18 8.012,12.238 6.648,28.862 -4.095,39.605 m 45.715,-35.321 v 0 c -0.001,6.417 -5.222,11.637 -11.638,11.637 h -11.215 c -0.267,-9.881 -3.754,-19.307 -10.03,-27.035 -0.042,-0.053 -0.082,-0.106 -0.125,-0.159 -0.388,-0.473 -0.791,-0.938 -1.2,-1.398 -0.105,-0.118 -0.204,-0.239 -0.309,-0.356 -0.434,-0.478 -0.882,-0.945 -1.337,-1.407 -0.078,-0.078 -0.149,-0.16 -0.228,-0.238 -5.869,-5.867 -13.066,-9.924 -20.914,-11.885 -3.568,-0.893 -7.269,-1.351 -11.042,-1.351 -3.018,0 -5.99,0.294 -8.886,0.867 -8.684,1.723 -16.668,5.967 -23.07,12.368 -0.076,0.077 -0.147,0.157 -0.222,0.234 -0.458,0.465 -0.908,0.934 -1.342,1.412 -0.103,0.113 -0.198,0.231 -0.299,0.345 -0.413,0.466 -0.82,0.935 -1.211,1.412 -0.039,0.048 -0.076,0.098 -0.115,0.146 -6.281,7.729 -9.772,17.161 -10.04,27.047 H 128.514 c -0.268,-9.897 -3.766,-19.341 -10.063,-27.075 -0.028,-0.037 -0.057,-0.074 -0.085,-0.11 -0.412,-0.503 -0.838,-0.995 -1.272,-1.482 -0.081,-0.09 -0.156,-0.182 -0.237,-0.271 -0.509,-0.562 -1.032,-1.114 -1.573,-1.655 -2.202,-2.202 -4.578,-4.13 -7.082,-5.782 -7.514,-4.955 -16.193,-7.433 -24.872,-7.433 -11.573,0 -23.146,4.405 -31.956,13.215 -0.504,0.504 -0.99,1.021 -1.466,1.543 -0.141,0.155 -0.277,0.313 -0.416,0.469 -0.336,0.38 -0.666,0.765 -0.989,1.152 -0.143,0.173 -0.286,0.347 -0.426,0.522 -0.333,0.417 -0.658,0.836 -0.976,1.261 -0.099,0.133 -0.2,0.263 -0.296,0.396 -0.854,1.168 -1.646,2.373 -2.378,3.608 -0.021,0.034 -0.04,0.07 -0.061,0.104 -0.358,0.608 -0.701,1.225 -1.028,1.848 -0.01,0.018 -0.019,0.036 -0.03,0.054 -2.375,4.521 -3.971,9.408 -4.704,14.479 l -21.231,-9.437 c -2.277,-1.013 -3.748,-3.276 -3.748,-5.768 v -65.974 c 0,-8.443 5.999,-15.828 14.263,-17.56 l 9.78,-2.048 c 19.632,-4.112 37.519,-13.769 51.728,-27.924 16.923,-16.86 39.399,-26.145 63.288,-26.145 h 82.7 c 17.959,0 35.317,5.314 50.198,15.366 l 45.056,30.438 c 9.042,6.108 22.785,14.572 37.677,17.535 l 62.172,12.363 c 11.657,2.319 21.86,9.486 27.996,19.667 l 2.152,3.571 c 2.565,4.256 3.92,9.133 3.92,14.103 z"
     id="path38"
     inkscape:connector-curvature="0"
     style="fill:#ff3202;fill-opacity:1" /><path
     clip-path="url(#SVGID_2_)"
     d="m 83.33,294.438 c -5.524,0 -10.718,2.152 -14.623,6.058 -3.906,3.906 -6.058,9.1 -6.058,14.624 0,5.524 2.152,10.719 6.058,14.623 3.905,3.906 9.099,6.058 14.624,6.058 5.524,0 10.718,-2.15 14.624,-6.058 8.063,-8.063 8.063,-21.184 0,-29.247 -3.908,-3.907 -9.101,-6.058 -14.625,-6.058 m 4.99,25.672 c -1.333,1.332 -3.105,2.066 -4.99,2.066 -1.885,0 -3.657,-0.734 -4.99,-2.067 -1.333,-1.333 -2.068,-3.104 -2.068,-4.99 0,-1.886 0.735,-3.656 2.068,-4.989 1.333,-1.333 3.105,-2.068 4.99,-2.068 1.885,0 3.657,0.735 4.99,2.068 2.751,2.751 2.751,7.228 0,9.98"
     id="path40"
     inkscape:connector-curvature="0"
     style="fill:#ff3202;fill-opacity:1" /><path
     clip-path="url(#SVGID_2_)"
     d="m 396.517,294.438 c -5.524,0 -10.717,2.152 -14.624,6.058 -8.063,8.063 -8.063,21.184 0,29.247 3.906,3.907 9.1,6.058 14.624,6.058 5.525,0 10.718,-2.15 14.624,-6.057 3.907,-3.904 6.057,-9.099 6.057,-14.623 0,-5.524 -2.15,-10.718 -6.056,-14.624 -3.906,-3.907 -9.1,-6.059 -14.625,-6.059 m 4.99,25.673 c -1.333,1.332 -3.104,2.066 -4.99,2.066 -1.885,0 -3.657,-0.734 -4.99,-2.066 -2.751,-2.752 -2.751,-7.229 0,-9.979 1.333,-1.333 3.105,-2.068 4.99,-2.068 1.886,0 3.657,0.734 4.991,2.068 1.333,1.333 2.067,3.104 2.067,4.989 0,1.884 -0.733,3.656 -2.068,4.99"
     id="path42"
     inkscape:connector-curvature="0"
     style="fill:#ff3202;fill-opacity:1" /></g>
</svg>