<?xml version="1.0" encoding="UTF-8" standalone="no"?>
<!-- Generator: Adobe Illustrator 16.0.0, SVG Export Plug-In . SVG Version: 6.00 Build 0)  -->

<svg
   xmlns:dc="http://purl.org/dc/elements/1.1/"
   xmlns:cc="http://creativecommons.org/ns#"
   xmlns:rdf="http://www.w3.org/1999/02/22-rdf-syntax-ns#"
   xmlns:svg="http://www.w3.org/2000/svg"
   xmlns="http://www.w3.org/2000/svg"
   xmlns:xlink="http://www.w3.org/1999/xlink"
   xmlns:sodipodi="http://sodipodi.sourceforge.net/DTD/sodipodi-0.dtd"
   xmlns:inkscape="http://www.inkscape.org/namespaces/inkscape"
   version="1.1"
   id="Warstwa_1"
   x="0px"
   y="0px"
   width="550"
   height="360"
   viewBox="0 0 550.00001 360"
   enable-background="new 0 0 3015.18 360.311"
   xml:space="preserve"
   sodipodi:docname="icon_3_2.svg"
   inkscape:version="0.92.4 (5da689c313, 2019-01-14)"><metadata
   id="metadata77"><rdf:RDF><cc:Work
       rdf:about=""><dc:format>image/svg+xml</dc:format><dc:type
         rdf:resource="http://purl.org/dc/dcmitype/StillImage" /><dc:title></dc:title></cc:Work></rdf:RDF></metadata><defs
   id="defs75">
	<defs
   id="defs3">
		<rect
   height="360.311"
   width="3015.179"
   id="SVGID_1_"
   x="0"
   y="0" />
	</defs>
	<clipPath
   id="SVGID_2_">
		<use
   id="use5"
   overflow="visible"
   xlink:href="#SVGID_1_"
   style="overflow:visible"
   x="0"
   y="0"
   width="100%"
   height="100%" />
	</clipPath>
	
	
	
	
	
	
	
	
	
	
	
	
	
	
	
	
	
	
	
	
	
	
	
	
	
	
	
	
	
	
	
</defs><sodipodi:namedview
   pagecolor="#ffffff"
   bordercolor="#666666"
   borderopacity="1"
   objecttolerance="10"
   gridtolerance="10"
   guidetolerance="10"
   inkscape:pageopacity="0"
   inkscape:pageshadow="2"
   inkscape:window-width="1920"
   inkscape:window-height="1017"
   id="namedview73"
   showgrid="false"
   showguides="true"
   inkscape:guide-bbox="true"
   inkscape:zoom="0.22627417"
   inkscape:cx="2450.2413"
   inkscape:cy="301.17661"
   inkscape:window-x="1912"
   inkscape:window-y="-8"
   inkscape:window-maximized="1"
   inkscape:current-layer="Warstwa_1"><sodipodi:guide
     position="499.41666,120.04679"
     orientation="1,0"
     id="guide884"
     inkscape:locked="false" /></sodipodi:namedview>
<g
   id="g1860"
   transform="translate(-1455.806,9.28e-6)"
   style="fill:#ff3202;fill-opacity:1"><path
     transform="translate(0,-0.31100928)"
     clip-path="url(#SVGID_2_)"
     d="m 1874.217,34.685 h -20.841 c -3.11,0 -5.081,1.971 -5.081,4.148 h -10e-4 v 67.398 c 0,2.799 3.318,4.252 6.74,4.252 3.318,0 6.74,-1.452 6.74,-4.252 V 82.174 h 11.614 c 13.686,0 24.366,-6.533 24.366,-23.538 v -0.621 c 0,-17.005 -10.367,-23.33 -23.537,-23.33 m 10.057,24.989 c 0,8.087 -4.147,11.924 -10.888,11.924 h -11.612 V 46.506 h 11.612 c 6.74,0 10.888,3.836 10.888,11.924 z"
     id="path22"
     inkscape:connector-curvature="0"
     style="fill:#ff3202;fill-opacity:1" /><path
     transform="translate(0,-0.31100928)"
     clip-path="url(#SVGID_2_)"
     d="m 1816.635,229.29 c -2.632,-1.449 -5.229,-3.035 -7.717,-4.717 l -40.234,-27.178 c -12.21,-8.25 -26.453,-12.61 -41.188,-12.61 h -73.847 c -19.601,0 -38.045,7.619 -51.933,21.454 -7.139,7.113 -15.271,13.063 -24.172,17.684 -5.263,2.734 -8.533,8.113 -8.533,14.04 0,8.729 7.101,15.828 15.828,15.828 h 25.176 c 3.359,0 6.083,-2.724 6.083,-6.082 0,-3.359 -2.724,-6.083 -6.083,-6.083 h -25.176 c -2.02,0 -3.664,-1.644 -3.664,-3.663 0,-1.369 0.756,-2.611 1.976,-3.243 10,-5.192 19.135,-11.876 27.15,-19.862 11.592,-11.548 26.986,-17.908 43.348,-17.908 h 16.532 v 44.677 h -20.208 c -3.358,0 -6.083,2.724 -6.083,6.083 0,3.358 2.725,6.082 6.083,6.082 h 166.785 c 5.001,0 9.069,-4.067 9.069,-9.067 0,-6.405 -3.523,-12.319 -9.192,-15.435 m -134.287,12.336 V 196.95 h 45.147 c 12.3,0 24.188,3.64 34.38,10.524 l 40.234,27.18 c 2.793,1.887 5.708,3.668 8.664,5.295 0.766,0.421 1.407,1 1.89,1.678 h -130.315 z"
     id="path24"
     inkscape:connector-curvature="0"
     style="fill:#ff3202;fill-opacity:1" /><path
     transform="translate(0,-0.31100928)"
     clip-path="url(#SVGID_2_)"
     d="m 1697.419,263.038 h -18.789 c -3.358,0 -6.082,2.724 -6.082,6.083 0,3.358 2.724,6.082 6.082,6.082 h 18.789 c 3.358,0 6.083,-2.724 6.083,-6.082 0,-3.36 -2.725,-6.083 -6.083,-6.083"
     id="path26"
     inkscape:connector-curvature="0"
     style="fill:#ff3202;fill-opacity:1" /><path
     transform="translate(0,-0.31100928)"
     clip-path="url(#SVGID_2_)"
     d="m 1939.046,257.932 -1.921,-3.188 c -7.242,-12.017 -19.286,-20.478 -33.045,-23.215 l -15.704,-3.123 V 148.81 h 40.639 c 8.368,0 15.175,-6.808 15.175,-15.175 V 15.174 c 0,-8.368 -6.808,-15.175 -15.175,-15.175 h -118.461 c -8.367,0 -15.174,6.808 -15.174,15.175 V 60.11 c 0,3.36 2.723,6.083 6.082,6.083 3.36,0 6.083,-2.723 6.083,-6.083 V 15.174 c 0,-1.659 1.351,-3.01 3.01,-3.01 h 118.462 c 1.659,0 3.009,1.351 3.009,3.01 v 118.462 c 0,1.659 -1.35,3.009 -3.009,3.009 h -118.463 c -1.659,0 -3.009,-1.35 -3.009,-3.009 V 99.654 c 0,-3.359 -2.725,-6.083 -6.083,-6.083 -3.36,0 -6.083,2.724 -6.083,6.083 v 33.982 c 0,8.368 6.807,15.174 15.174,15.174 h 46.084 v 73.285 l -8.072,-1.605 c -11.142,-2.215 -22.003,-8.939 -29.206,-13.806 l -40.231,-27.178 C 1763.82,169.165 1745.968,163.7 1727.496,163.7 h -73.846 c -24.571,0 -47.69,9.551 -65.098,26.893 -11.014,10.974 -24.879,18.458 -40.096,21.646 l -8.733,1.828 c -12.982,2.719 -22.405,14.32 -22.405,27.585 v 58.909 c 0,7.027 4.148,13.412 10.571,16.266 l 24.227,10.769 c 1.467,7.661 5.157,14.978 11.076,20.896 7.866,7.866 18.199,11.8 28.534,11.8 10.334,0 20.666,-3.934 28.533,-11.8 5.06,-5.06 8.481,-11.142 10.288,-17.585 h 202.009 c 1.805,6.443 5.228,12.525 10.288,17.585 7.622,7.621 17.754,11.819 28.534,11.819 10.778,0 20.913,-4.197 28.535,-11.819 5.059,-5.06 8.481,-11.142 10.286,-17.585 h 11.539 c 12.438,0 22.556,-10.117 22.556,-22.555 v -31.55 c 0,-6.649 -1.816,-13.174 -5.248,-18.87 M 1868.803,148.81 h 7.409 v 77.177 l -7.409,-1.474 z m -257.147,191.08 c -5.323,5.324 -12.402,8.256 -19.932,8.256 -7.53,0 -14.607,-2.932 -19.932,-8.256 -8.54,-8.54 -10.44,-21.24 -5.708,-31.636 0.038,-0.083 0.075,-0.168 0.112,-0.251 0.145,-0.309 0.298,-0.614 0.453,-0.917 0.073,-0.144 0.146,-0.286 0.224,-0.429 0.141,-0.263 0.288,-0.525 0.438,-0.784 0.104,-0.181 0.21,-0.357 0.317,-0.534 0.139,-0.229 0.279,-0.458 0.427,-0.685 0.133,-0.204 0.269,-0.406 0.408,-0.606 0.137,-0.2 0.271,-0.399 0.415,-0.595 0.162,-0.226 0.331,-0.445 0.501,-0.665 0.133,-0.173 0.262,-0.346 0.398,-0.516 0.2,-0.247 0.41,-0.489 0.618,-0.731 0.119,-0.137 0.233,-0.278 0.355,-0.414 0.31,-0.345 0.63,-0.682 0.959,-1.013 0.027,-0.029 0.054,-0.059 0.082,-0.087 0.063,-0.063 0.128,-0.121 0.19,-0.183 0.279,-0.273 0.561,-0.544 0.847,-0.804 0.073,-0.067 0.151,-0.129 0.227,-0.196 0.285,-0.253 0.572,-0.504 0.866,-0.743 0.026,-0.021 0.057,-0.043 0.084,-0.065 10.31,-8.344 25.18,-8.333 35.477,0.033 0.013,0.011 0.024,0.018 0.037,0.028 0.314,0.256 0.622,0.525 0.929,0.796 0.055,0.049 0.111,0.095 0.166,0.145 0.354,0.318 0.7,0.647 1.041,0.988 0.366,0.367 0.72,0.744 1.063,1.127 0.151,0.169 0.293,0.343 0.438,0.513 0.18,0.208 0.358,0.418 0.53,0.63 0.192,0.24 0.378,0.483 0.563,0.727 0.104,0.136 0.206,0.272 0.306,0.41 0.223,0.307 0.44,0.617 0.649,0.932 0.036,0.054 0.07,0.107 0.105,0.161 7.158,10.93 5.94,25.77 -3.653,35.364 m 279.653,0 c -5.325,5.324 -12.402,8.256 -19.933,8.256 -7.529,0 -14.607,-2.932 -19.932,-8.256 -9.594,-9.594 -10.812,-24.438 -3.655,-35.366 0.033,-0.053 0.068,-0.104 0.104,-0.156 0.209,-0.315 0.426,-0.627 0.65,-0.936 0.099,-0.137 0.201,-0.271 0.304,-0.405 0.185,-0.246 0.371,-0.489 0.565,-0.731 0.171,-0.211 0.348,-0.417 0.525,-0.624 0.147,-0.173 0.291,-0.348 0.444,-0.518 0.344,-0.383 0.697,-0.76 1.063,-1.126 5.324,-5.323 12.401,-8.256 19.932,-8.256 7.529,0 14.607,2.933 19.932,8.256 0.367,0.366 0.72,0.744 1.064,1.127 0.151,0.169 0.295,0.343 0.44,0.514 0.179,0.208 0.357,0.416 0.528,0.628 0.194,0.241 0.379,0.484 0.564,0.729 0.102,0.137 0.204,0.271 0.305,0.409 0.223,0.308 0.439,0.617 0.648,0.932 0.036,0.054 0.071,0.106 0.106,0.16 7.156,10.928 5.937,25.77 -3.654,35.363 m 40.82,-31.538 v 0 c -10e-4,5.729 -4.663,10.39 -10.393,10.39 h -10.013 c -0.239,-8.822 -3.353,-17.239 -8.957,-24.14 -0.037,-0.047 -0.073,-0.095 -0.112,-0.142 -0.346,-0.422 -0.705,-0.837 -1.07,-1.249 -0.094,-0.105 -0.183,-0.213 -0.276,-0.319 -0.387,-0.426 -0.787,-0.844 -1.195,-1.256 -0.067,-0.069 -0.132,-0.144 -0.201,-0.212 -5.24,-5.24 -11.669,-8.862 -18.676,-10.613 -3.186,-0.796 -6.49,-1.206 -9.859,-1.206 -2.694,0 -5.35,0.263 -7.935,0.775 -7.754,1.537 -14.883,5.328 -20.6,11.043 -0.068,0.069 -0.13,0.141 -0.198,0.21 -0.409,0.414 -0.811,0.833 -1.199,1.261 -0.091,0.102 -0.176,0.206 -0.266,0.308 -0.369,0.415 -0.733,0.835 -1.082,1.261 -0.035,0.043 -0.068,0.087 -0.103,0.13 -5.608,6.903 -8.726,15.324 -8.966,24.15 H 1632.07 c -0.238,-8.837 -3.362,-17.27 -8.984,-24.177 -0.026,-0.032 -0.051,-0.064 -0.077,-0.098 -0.367,-0.448 -0.748,-0.887 -1.136,-1.323 -0.072,-0.08 -0.14,-0.162 -0.211,-0.242 -0.454,-0.502 -0.922,-0.995 -1.404,-1.479 -1.966,-1.966 -4.088,-3.688 -6.324,-5.162 -6.71,-4.426 -14.459,-6.638 -22.209,-6.638 -10.334,0 -20.668,3.934 -28.534,11.8 -0.45,0.45 -0.884,0.911 -1.31,1.378 -0.126,0.139 -0.246,0.279 -0.371,0.419 -0.3,0.339 -0.595,0.682 -0.882,1.029 -0.128,0.154 -0.256,0.309 -0.381,0.466 -0.298,0.371 -0.589,0.746 -0.871,1.126 -0.089,0.118 -0.181,0.234 -0.267,0.354 -0.762,1.043 -1.469,2.119 -2.123,3.222 -0.018,0.031 -0.035,0.063 -0.054,0.094 -0.319,0.543 -0.625,1.094 -0.918,1.65 -0.01,0.015 -0.017,0.032 -0.026,0.048 -2.12,4.036 -3.547,8.4 -4.199,12.928 l -18.958,-8.427 c -2.034,-0.903 -3.348,-2.924 -3.348,-5.149 v -58.909 c 0,-7.539 5.356,-14.133 12.736,-15.68 l 8.733,-1.828 c 17.528,-3.672 33.501,-12.294 46.188,-24.935 15.111,-15.055 35.18,-23.345 56.512,-23.345 h 73.846 c 16.035,0 31.533,4.745 44.821,13.72 l 40.232,27.179 c 8.074,5.455 20.345,13.012 33.642,15.657 l 55.516,11.04 c 10.408,2.07 19.52,8.471 24.998,17.561 l 1.922,3.189 c 2.29,3.8 3.5,8.154 3.5,12.592 z"
     id="path28"
     inkscape:connector-curvature="0"
     style="fill:#ff3202;fill-opacity:1" /><path
     transform="translate(0,-0.31100928)"
     clip-path="url(#SVGID_2_)"
     d="m 1604.783,306.901 c -3.489,-3.488 -8.126,-5.409 -13.06,-5.409 -4.932,0 -9.569,1.922 -13.057,5.409 -3.488,3.487 -5.409,8.125 -5.409,13.058 0,4.934 1.921,9.57 5.409,13.059 3.487,3.486 8.125,5.408 13.058,5.408 4.934,0 9.571,-1.921 13.059,-5.408 7.2,-7.202 7.2,-18.916 0,-26.117 m -8.603,17.514 c -1.189,1.189 -2.771,1.846 -4.456,1.846 -1.683,0 -3.265,-0.656 -4.454,-1.847 -1.19,-1.189 -1.848,-2.771 -1.848,-4.456 0,-1.684 0.656,-3.266 1.848,-4.455 1.189,-1.19 2.771,-1.847 4.454,-1.847 1.685,0 3.267,0.655 4.456,1.847 2.457,2.456 2.457,6.455 0,8.912"
     id="path30"
     inkscape:connector-curvature="0"
     style="fill:#ff3202;fill-opacity:1" /><path
     transform="translate(0,-0.31100928)"
     clip-path="url(#SVGID_2_)"
     d="m 1884.435,306.902 c -3.487,-3.488 -8.125,-5.41 -13.059,-5.41 -4.933,0 -9.569,1.921 -13.06,5.409 -7.198,7.201 -7.198,18.915 0,26.116 3.489,3.487 8.127,5.408 13.06,5.408 4.934,0 9.569,-1.921 13.058,-5.407 3.488,-3.488 5.409,-8.125 5.409,-13.059 0,-4.932 -1.921,-9.57 -5.408,-13.057 m -8.603,17.514 c -1.19,1.189 -2.772,1.845 -4.456,1.845 -1.683,0 -3.267,-0.655 -4.456,-1.845 -2.456,-2.457 -2.456,-6.455 0,-8.912 1.189,-1.189 2.773,-1.846 4.456,-1.846 1.684,0 3.266,0.655 4.456,1.846 1.19,1.191 1.846,2.772 1.846,4.456 0,1.682 -0.656,3.265 -1.846,4.456"
     id="path32"
     inkscape:connector-curvature="0"
     style="fill:#ff3202;fill-opacity:1" /></g>
</svg>