<?xml version="1.0" encoding="UTF-8" standalone="no"?>
<!-- Generator: Adobe Illustrator 16.0.0, SVG Export Plug-In . SVG Version: 6.00 Build 0)  -->

<svg
   xmlns:dc="http://purl.org/dc/elements/1.1/"
   xmlns:cc="http://creativecommons.org/ns#"
   xmlns:rdf="http://www.w3.org/1999/02/22-rdf-syntax-ns#"
   xmlns:svg="http://www.w3.org/2000/svg"
   xmlns="http://www.w3.org/2000/svg"
   xmlns:xlink="http://www.w3.org/1999/xlink"
   xmlns:sodipodi="http://sodipodi.sourceforge.net/DTD/sodipodi-0.dtd"
   xmlns:inkscape="http://www.inkscape.org/namespaces/inkscape"
   version="1.1"
   id="Warstwa_1"
   x="0px"
   y="0px"
   width="550"
   height="360"
   viewBox="0 0 550.00001 360"
   enable-background="new 0 0 3015.18 360.311"
   xml:space="preserve"
   sodipodi:docname="icon_2_2.svg"
   inkscape:version="0.92.4 (5da689c313, 2019-01-14)"><metadata
   id="metadata77"><rdf:RDF><cc:Work
       rdf:about=""><dc:format>image/svg+xml</dc:format><dc:type
         rdf:resource="http://purl.org/dc/dcmitype/StillImage" /><dc:title></dc:title></cc:Work></rdf:RDF></metadata><defs
   id="defs75">
	<defs
   id="defs3">
		<rect
   height="360.311"
   width="3015.179"
   id="SVGID_1_"
   x="0"
   y="0" />
	</defs>
	<clipPath
   id="SVGID_2_">
		<use
   id="use5"
   overflow="visible"
   xlink:href="#SVGID_1_"
   style="overflow:visible"
   x="0"
   y="0"
   width="100%"
   height="100%" />
	</clipPath>
	
	
	
	
	
	
	
	
	
	
	
	
	
	
	
	
	
	
	
	
	
	
	
	
	
	
	
	
	
	
	
</defs><sodipodi:namedview
   pagecolor="#ffffff"
   bordercolor="#666666"
   borderopacity="1"
   objecttolerance="10"
   gridtolerance="10"
   guidetolerance="10"
   inkscape:pageopacity="0"
   inkscape:pageshadow="2"
   inkscape:window-width="1920"
   inkscape:window-height="1017"
   id="namedview73"
   showgrid="false"
   showguides="true"
   inkscape:guide-bbox="true"
   inkscape:zoom="0.64"
   inkscape:cx="343.13236"
   inkscape:cy="67.124486"
   inkscape:window-x="1912"
   inkscape:window-y="-8"
   inkscape:window-maximized="1"
   inkscape:current-layer="Warstwa_1"><sodipodi:guide
     position="499.41666,120.04679"
     orientation="1,0"
     id="guide884"
     inkscape:locked="false" /></sodipodi:namedview>
<path
   style="fill:#010102"
   inkscape:connector-curvature="0"
   id="path8"
   d="m 2284.391,57.059 c -1.59,-1.279 -3.604,-1.91 -5.641,-1.767 h -30.777 l 28.74,-32.138 2.718,-2.989 1.698,-2.106 c 0.483,-0.693 0.873,-1.447 1.155,-2.243 0.345,-0.841 0.529,-1.74 0.543,-2.65 0.212,-2.042 -0.73,-4.034 -2.445,-5.163 -2.464,-1.229 -5.199,-1.813 -7.949,-1.699 h -36.079 c -1.906,-0.116 -3.789,0.463 -5.3,1.63 -1.224,1.08 -1.896,2.651 -1.834,4.281 0,2.446 0.814,3.964 2.444,4.552 2.386,0.68 4.861,0.978 7.34,0.884 h 23.373 c -0.951,1.359 -2.22,2.967 -3.806,4.824 l -6.114,7.134 -7.883,8.697 -9.376,10.396 c -3.262,3.624 -5.413,6.115 -6.455,7.474 -2.32,2.802 -2.021,6.937 0.68,9.376 1.942,1.475 4.364,2.177 6.795,1.97 h 42.532 c 2.025,0.144 4.031,-0.461 5.641,-1.698 1.24,-1.073 1.937,-2.641 1.902,-4.281 0.039,-1.698 -0.653,-3.333 -1.902,-4.484"
   clip-path="url(#SVGID_2_)"
   transform="translate(0,-0.31100928)" /><path
   style="fill:#010102"
   inkscape:connector-curvature="0"
   id="path10"
   d="m 2348.87,93.749 c -1.259,-1.029 -2.862,-1.539 -4.484,-1.427 h -24.664 l 22.966,-25.683 2.174,-2.378 1.358,-1.699 c 0.396,-0.543 0.716,-1.137 0.951,-1.766 0.267,-0.67 0.405,-1.385 0.408,-2.107 0.185,-1.695 -0.64,-3.342 -2.106,-4.212 -1.914,-0.875 -4.013,-1.271 -6.115,-1.155 h -28.877 c -1.513,-0.089 -3.009,0.369 -4.213,1.291 -1.007,0.861 -1.56,2.141 -1.494,3.465 0,1.947 0.656,3.149 1.971,3.601 1.9,0.533 3.872,0.762 5.843,0.679 h 18.617 c -0.771,1.088 -1.789,2.379 -3.058,3.873 l -4.823,5.776 -6.251,6.794 -7.475,8.289 c -2.582,2.899 -4.304,4.892 -5.164,5.98 -0.758,0.92 -1.188,2.069 -1.223,3.261 -0.079,1.619 0.569,3.189 1.766,4.281 1.539,1.159 3.448,1.715 5.368,1.562 h 33.974 c 1.631,0.11 3.246,-0.373 4.552,-1.359 0.991,-0.873 1.54,-2.144 1.495,-3.465 0.047,-1.36 -0.498,-2.674 -1.496,-3.601"
   clip-path="url(#SVGID_2_)"
   transform="translate(0,-0.31100928)" /><path
   style="fill:#010102"
   inkscape:connector-curvature="0"
   id="path12"
   d="m 2425.104,52.982 c -1.59,-1.279 -3.604,-1.91 -5.639,-1.767 h -30.847 l 28.739,-32.138 2.719,-2.989 1.699,-2.106 c 0.525,-0.664 0.959,-1.395 1.291,-2.175 0.346,-0.842 0.529,-1.74 0.543,-2.65 0.197,-2.109 -0.834,-4.143 -2.65,-5.231 -2.399,-1.114 -5.034,-1.627 -7.677,-1.495 h -36.216 c -1.905,-0.116 -3.789,0.463 -5.299,1.631 -1.224,1.079 -1.896,2.65 -1.835,4.28 0,2.446 0.816,3.964 2.446,4.553 2.384,0.679 4.861,0.977 7.338,0.882 h 22.966 c -0.952,1.359 -2.22,2.967 -3.806,4.825 l -5.707,6.93 -7.881,8.697 -9.377,10.396 c -3.262,3.624 -5.412,6.115 -6.454,7.474 -2.322,2.802 -2.022,6.937 0.679,9.376 1.942,1.475 4.363,2.177 6.794,1.97 h 42.534 c 2.025,0.144 4.031,-0.461 5.639,-1.698 1.24,-1.073 1.938,-2.641 1.903,-4.281 0.04,-1.697 -0.652,-3.333 -1.902,-4.484"
   clip-path="url(#SVGID_2_)"
   transform="translate(0,-0.31100928)" /><path
   style="fill:#010102"
   inkscape:connector-curvature="0"
   id="path14"
   d="m 2414.981,350.513 -20.384,-42.602 c 20.169,-18.82 31.695,-45.116 31.866,-72.701 -0.011,-55.575 -45.072,-100.618 -100.646,-100.607 -55.574,0.011 -100.619,45.072 -100.607,100.646 0,27.609 11.354,54.004 31.39,73.001 l -19.704,42.262 c -1.658,3.365 -0.273,7.438 3.092,9.098 3.366,1.659 7.439,0.274 9.099,-3.092 0.038,-0.077 0.074,-0.153 0.108,-0.23 l 18.412,-39.137 c 34.896,25.147 81.97,25.147 116.865,0 l 18.21,39.137 c 1.531,3.426 5.55,4.961 8.976,3.43 3.426,-1.531 4.962,-5.55 3.43,-8.976 -0.034,-0.076 -0.069,-0.154 -0.107,-0.229 m -89.144,-28.265 c -48.039,-0.074 -86.963,-38.998 -87.038,-87.037 0,-48.068 38.969,-87.038 87.038,-87.038 48.069,0 87.037,38.969 87.037,87.038 0,48.069 -38.968,87.037 -87.037,87.037"
   clip-path="url(#SVGID_2_)"
   transform="translate(0,-0.31100928)" /><path
   style="fill:#010102"
   inkscape:connector-curvature="0"
   id="path16"
   d="m 2373.942,282.975 -41.31,-50.211 v -51.91 c 0,-3.752 -3.043,-6.794 -6.796,-6.794 -3.752,0 -6.794,3.042 -6.794,6.794 v 54.356 c 0,1.587 0.549,3.126 1.563,4.349 l 42.873,52.113 c 2.401,2.89 6.69,3.285 9.58,0.884 2.89,-2.402 3.286,-6.691 0.884,-9.581"
   clip-path="url(#SVGID_2_)"
   transform="translate(0,-0.31100928)" /><path
   style="fill:#010102"
   inkscape:connector-curvature="0"
   id="path18"
   d="m 2290.438,125.887 c -17.137,-25.422 -51.635,-32.139 -77.057,-15.003 -25.422,17.135 -32.14,51.635 -15.004,77.057 3.459,5.132 7.752,9.649 12.701,13.365 3.002,2.251 7.26,1.645 9.512,-1.359 2.252,-3.002 1.644,-7.261 -1.358,-9.512 -18.5,-13.923 -22.211,-40.205 -8.29,-58.705 7.92,-10.525 20.326,-16.714 33.497,-16.714 13.925,0.012 26.935,6.937 34.72,18.481 2.102,3.114 6.33,3.935 9.445,1.834 3.113,-2.101 3.935,-6.33 1.834,-9.444"
   clip-path="url(#SVGID_2_)"
   transform="translate(0,-0.31100928)" /><path
   style="fill:#010102"
   inkscape:connector-curvature="0"
   id="path20"
   d="m 2452.205,123.732 c -18.235,-24.646 -52.996,-29.843 -77.643,-11.609 -5.266,3.896 -9.801,8.694 -13.395,14.172 -2.083,3.132 -1.23,7.361 1.903,9.444 3.133,2.082 7.361,1.23 9.443,-1.903 12.748,-19.328 38.75,-24.661 58.077,-11.913 19.328,12.748 24.662,38.75 11.914,58.078 -2.691,4.079 -6.073,7.655 -9.996,10.569 l -0.068,-0.068 c -3,2.254 -3.604,6.514 -1.35,9.514 2.251,2.996 6.504,3.604 9.504,1.357 24.648,-18.234 29.845,-52.995 11.611,-77.641"
   clip-path="url(#SVGID_2_)"
   transform="translate(0,-0.31100928)" /><path
   style="fill:#010102"
   inkscape:connector-curvature="0"
   id="path22"
   d="m 1874.217,34.685 h -20.841 c -3.11,0 -5.081,1.971 -5.081,4.148 h -10e-4 v 67.398 c 0,2.799 3.318,4.252 6.74,4.252 3.318,0 6.74,-1.452 6.74,-4.252 V 82.174 h 11.614 c 13.686,0 24.366,-6.533 24.366,-23.538 v -0.621 c 0,-17.005 -10.367,-23.33 -23.537,-23.33 m 10.057,24.989 c 0,8.087 -4.147,11.924 -10.888,11.924 h -11.612 V 46.506 h 11.612 c 6.74,0 10.888,3.836 10.888,11.924 z"
   clip-path="url(#SVGID_2_)"
   transform="translate(0,-0.31100928)" /><path
   style="fill:#010102"
   inkscape:connector-curvature="0"
   id="path24"
   d="m 1816.635,229.29 c -2.632,-1.449 -5.229,-3.035 -7.717,-4.717 l -40.234,-27.178 c -12.21,-8.25 -26.453,-12.61 -41.188,-12.61 h -73.847 c -19.601,0 -38.045,7.619 -51.933,21.454 -7.139,7.113 -15.271,13.063 -24.172,17.684 -5.263,2.734 -8.533,8.113 -8.533,14.04 0,8.729 7.101,15.828 15.828,15.828 h 25.176 c 3.359,0 6.083,-2.724 6.083,-6.082 0,-3.359 -2.724,-6.083 -6.083,-6.083 h -25.176 c -2.02,0 -3.664,-1.644 -3.664,-3.663 0,-1.369 0.756,-2.611 1.976,-3.243 10,-5.192 19.135,-11.876 27.15,-19.862 11.592,-11.548 26.986,-17.908 43.348,-17.908 h 16.532 v 44.677 h -20.208 c -3.358,0 -6.083,2.724 -6.083,6.083 0,3.358 2.725,6.082 6.083,6.082 h 166.785 c 5.001,0 9.069,-4.067 9.069,-9.067 0,-6.405 -3.523,-12.319 -9.192,-15.435 m -134.287,12.336 V 196.95 h 45.147 c 12.3,0 24.188,3.64 34.38,10.524 l 40.234,27.18 c 2.793,1.887 5.708,3.668 8.664,5.295 0.766,0.421 1.407,1 1.89,1.678 h -130.315 z"
   clip-path="url(#SVGID_2_)"
   transform="translate(0,-0.31100928)" /><path
   style="fill:#010102"
   inkscape:connector-curvature="0"
   id="path26"
   d="m 1697.419,263.038 h -18.789 c -3.358,0 -6.082,2.724 -6.082,6.083 0,3.358 2.724,6.082 6.082,6.082 h 18.789 c 3.358,0 6.083,-2.724 6.083,-6.082 0,-3.36 -2.725,-6.083 -6.083,-6.083"
   clip-path="url(#SVGID_2_)"
   transform="translate(0,-0.31100928)" /><path
   style="fill:#010102"
   inkscape:connector-curvature="0"
   id="path28"
   d="m 1939.046,257.932 -1.921,-3.188 c -7.242,-12.017 -19.286,-20.478 -33.045,-23.215 l -15.704,-3.123 V 148.81 h 40.639 c 8.368,0 15.175,-6.808 15.175,-15.175 V 15.174 c 0,-8.368 -6.808,-15.175 -15.175,-15.175 h -118.461 c -8.367,0 -15.174,6.808 -15.174,15.175 V 60.11 c 0,3.36 2.723,6.083 6.082,6.083 3.36,0 6.083,-2.723 6.083,-6.083 V 15.174 c 0,-1.659 1.351,-3.01 3.01,-3.01 h 118.462 c 1.659,0 3.009,1.351 3.009,3.01 v 118.462 c 0,1.659 -1.35,3.009 -3.009,3.009 h -118.463 c -1.659,0 -3.009,-1.35 -3.009,-3.009 V 99.654 c 0,-3.359 -2.725,-6.083 -6.083,-6.083 -3.36,0 -6.083,2.724 -6.083,6.083 v 33.982 c 0,8.368 6.807,15.174 15.174,15.174 h 46.084 v 73.285 l -8.072,-1.605 c -11.142,-2.215 -22.003,-8.939 -29.206,-13.806 l -40.231,-27.178 C 1763.82,169.165 1745.968,163.7 1727.496,163.7 h -73.846 c -24.571,0 -47.69,9.551 -65.098,26.893 -11.014,10.974 -24.879,18.458 -40.096,21.646 l -8.733,1.828 c -12.982,2.719 -22.405,14.32 -22.405,27.585 v 58.909 c 0,7.027 4.148,13.412 10.571,16.266 l 24.227,10.769 c 1.467,7.661 5.157,14.978 11.076,20.896 7.866,7.866 18.199,11.8 28.534,11.8 10.334,0 20.666,-3.934 28.533,-11.8 5.06,-5.06 8.481,-11.142 10.288,-17.585 h 202.009 c 1.805,6.443 5.228,12.525 10.288,17.585 7.622,7.621 17.754,11.819 28.534,11.819 10.778,0 20.913,-4.197 28.535,-11.819 5.059,-5.06 8.481,-11.142 10.286,-17.585 h 11.539 c 12.438,0 22.556,-10.117 22.556,-22.555 v -31.55 c 0,-6.649 -1.816,-13.174 -5.248,-18.87 M 1868.803,148.81 h 7.409 v 77.177 l -7.409,-1.474 z m -257.147,191.08 c -5.323,5.324 -12.402,8.256 -19.932,8.256 -7.53,0 -14.607,-2.932 -19.932,-8.256 -8.54,-8.54 -10.44,-21.24 -5.708,-31.636 0.038,-0.083 0.075,-0.168 0.112,-0.251 0.145,-0.309 0.298,-0.614 0.453,-0.917 0.073,-0.144 0.146,-0.286 0.224,-0.429 0.141,-0.263 0.288,-0.525 0.438,-0.784 0.104,-0.181 0.21,-0.357 0.317,-0.534 0.139,-0.229 0.279,-0.458 0.427,-0.685 0.133,-0.204 0.269,-0.406 0.408,-0.606 0.137,-0.2 0.271,-0.399 0.415,-0.595 0.162,-0.226 0.331,-0.445 0.501,-0.665 0.133,-0.173 0.262,-0.346 0.398,-0.516 0.2,-0.247 0.41,-0.489 0.618,-0.731 0.119,-0.137 0.233,-0.278 0.355,-0.414 0.31,-0.345 0.63,-0.682 0.959,-1.013 0.027,-0.029 0.054,-0.059 0.082,-0.087 0.063,-0.063 0.128,-0.121 0.19,-0.183 0.279,-0.273 0.561,-0.544 0.847,-0.804 0.073,-0.067 0.151,-0.129 0.227,-0.196 0.285,-0.253 0.572,-0.504 0.866,-0.743 0.026,-0.021 0.057,-0.043 0.084,-0.065 10.31,-8.344 25.18,-8.333 35.477,0.033 0.013,0.011 0.024,0.018 0.037,0.028 0.314,0.256 0.622,0.525 0.929,0.796 0.055,0.049 0.111,0.095 0.166,0.145 0.354,0.318 0.7,0.647 1.041,0.988 0.366,0.367 0.72,0.744 1.063,1.127 0.151,0.169 0.293,0.343 0.438,0.513 0.18,0.208 0.358,0.418 0.53,0.63 0.192,0.24 0.378,0.483 0.563,0.727 0.104,0.136 0.206,0.272 0.306,0.41 0.223,0.307 0.44,0.617 0.649,0.932 0.036,0.054 0.07,0.107 0.105,0.161 7.158,10.93 5.94,25.77 -3.653,35.364 m 279.653,0 c -5.325,5.324 -12.402,8.256 -19.933,8.256 -7.529,0 -14.607,-2.932 -19.932,-8.256 -9.594,-9.594 -10.812,-24.438 -3.655,-35.366 0.033,-0.053 0.068,-0.104 0.104,-0.156 0.209,-0.315 0.426,-0.627 0.65,-0.936 0.099,-0.137 0.201,-0.271 0.304,-0.405 0.185,-0.246 0.371,-0.489 0.565,-0.731 0.171,-0.211 0.348,-0.417 0.525,-0.624 0.147,-0.173 0.291,-0.348 0.444,-0.518 0.344,-0.383 0.697,-0.76 1.063,-1.126 5.324,-5.323 12.401,-8.256 19.932,-8.256 7.529,0 14.607,2.933 19.932,8.256 0.367,0.366 0.72,0.744 1.064,1.127 0.151,0.169 0.295,0.343 0.44,0.514 0.179,0.208 0.357,0.416 0.528,0.628 0.194,0.241 0.379,0.484 0.564,0.729 0.102,0.137 0.204,0.271 0.305,0.409 0.223,0.308 0.439,0.617 0.648,0.932 0.036,0.054 0.071,0.106 0.106,0.16 7.156,10.928 5.937,25.77 -3.654,35.363 m 40.82,-31.538 v 0 c -10e-4,5.729 -4.663,10.39 -10.393,10.39 h -10.013 c -0.239,-8.822 -3.353,-17.239 -8.957,-24.14 -0.037,-0.047 -0.073,-0.095 -0.112,-0.142 -0.346,-0.422 -0.705,-0.837 -1.07,-1.249 -0.094,-0.105 -0.183,-0.213 -0.276,-0.319 -0.387,-0.426 -0.787,-0.844 -1.195,-1.256 -0.067,-0.069 -0.132,-0.144 -0.201,-0.212 -5.24,-5.24 -11.669,-8.862 -18.676,-10.613 -3.186,-0.796 -6.49,-1.206 -9.859,-1.206 -2.694,0 -5.35,0.263 -7.935,0.775 -7.754,1.537 -14.883,5.328 -20.6,11.043 -0.068,0.069 -0.13,0.141 -0.198,0.21 -0.409,0.414 -0.811,0.833 -1.199,1.261 -0.091,0.102 -0.176,0.206 -0.266,0.308 -0.369,0.415 -0.733,0.835 -1.082,1.261 -0.035,0.043 -0.068,0.087 -0.103,0.13 -5.608,6.903 -8.726,15.324 -8.966,24.15 H 1632.07 c -0.238,-8.837 -3.362,-17.27 -8.984,-24.177 -0.026,-0.032 -0.051,-0.064 -0.077,-0.098 -0.367,-0.448 -0.748,-0.887 -1.136,-1.323 -0.072,-0.08 -0.14,-0.162 -0.211,-0.242 -0.454,-0.502 -0.922,-0.995 -1.404,-1.479 -1.966,-1.966 -4.088,-3.688 -6.324,-5.162 -6.71,-4.426 -14.459,-6.638 -22.209,-6.638 -10.334,0 -20.668,3.934 -28.534,11.8 -0.45,0.45 -0.884,0.911 -1.31,1.378 -0.126,0.139 -0.246,0.279 -0.371,0.419 -0.3,0.339 -0.595,0.682 -0.882,1.029 -0.128,0.154 -0.256,0.309 -0.381,0.466 -0.298,0.371 -0.589,0.746 -0.871,1.126 -0.089,0.118 -0.181,0.234 -0.267,0.354 -0.762,1.043 -1.469,2.119 -2.123,3.222 -0.018,0.031 -0.035,0.063 -0.054,0.094 -0.319,0.543 -0.625,1.094 -0.918,1.65 -0.01,0.015 -0.017,0.032 -0.026,0.048 -2.12,4.036 -3.547,8.4 -4.199,12.928 l -18.958,-8.427 c -2.034,-0.903 -3.348,-2.924 -3.348,-5.149 v -58.909 c 0,-7.539 5.356,-14.133 12.736,-15.68 l 8.733,-1.828 c 17.528,-3.672 33.501,-12.294 46.188,-24.935 15.111,-15.055 35.18,-23.345 56.512,-23.345 h 73.846 c 16.035,0 31.533,4.745 44.821,13.72 l 40.232,27.179 c 8.074,5.455 20.345,13.012 33.642,15.657 l 55.516,11.04 c 10.408,2.07 19.52,8.471 24.998,17.561 l 1.922,3.189 c 2.29,3.8 3.5,8.154 3.5,12.592 z"
   clip-path="url(#SVGID_2_)"
   transform="translate(0,-0.31100928)" /><path
   style="fill:#010102"
   inkscape:connector-curvature="0"
   id="path30"
   d="m 1604.783,306.901 c -3.489,-3.488 -8.126,-5.409 -13.06,-5.409 -4.932,0 -9.569,1.922 -13.057,5.409 -3.488,3.487 -5.409,8.125 -5.409,13.058 0,4.934 1.921,9.57 5.409,13.059 3.487,3.486 8.125,5.408 13.058,5.408 4.934,0 9.571,-1.921 13.059,-5.408 7.2,-7.202 7.2,-18.916 0,-26.117 m -8.603,17.514 c -1.189,1.189 -2.771,1.846 -4.456,1.846 -1.683,0 -3.265,-0.656 -4.454,-1.847 -1.19,-1.189 -1.848,-2.771 -1.848,-4.456 0,-1.684 0.656,-3.266 1.848,-4.455 1.189,-1.19 2.771,-1.847 4.454,-1.847 1.685,0 3.267,0.655 4.456,1.847 2.457,2.456 2.457,6.455 0,8.912"
   clip-path="url(#SVGID_2_)"
   transform="translate(0,-0.31100928)" /><path
   style="fill:#010102"
   inkscape:connector-curvature="0"
   id="path32"
   d="m 1884.435,306.902 c -3.487,-3.488 -8.125,-5.41 -13.059,-5.41 -4.933,0 -9.569,1.921 -13.06,5.409 -7.198,7.201 -7.198,18.915 0,26.116 3.489,3.487 8.127,5.408 13.06,5.408 4.934,0 9.569,-1.921 13.058,-5.407 3.488,-3.488 5.409,-8.125 5.409,-13.059 0,-4.932 -1.921,-9.57 -5.408,-13.057 m -8.603,17.514 c -1.19,1.189 -2.772,1.845 -4.456,1.845 -1.683,0 -3.267,-0.655 -4.456,-1.845 -2.456,-2.457 -2.456,-6.455 0,-8.912 1.189,-1.189 2.773,-1.846 4.456,-1.846 1.684,0 3.266,0.655 4.456,1.846 1.19,1.191 1.846,2.772 1.846,4.456 0,1.682 -0.656,3.265 -1.846,4.456"
   clip-path="url(#SVGID_2_)"
   transform="translate(0,-0.31100928)" /><path
   style="fill:#010102"
   inkscape:connector-curvature="0"
   id="path44"
   d="m 3009.173,213.262 c -3.317,0 -6.006,2.691 -6.006,6.005 v 21.403 c 0,12.281 -9.993,22.275 -22.274,22.275 h -34.232 c -1.593,0 -3.119,0.63 -4.247,1.756 l -41.501,41.503 V 268.95 c 0,-3.318 -2.689,-6.005 -6.005,-6.005 h -85.985 c -12.281,0 -22.275,-9.992 -22.275,-22.275 v -90.848 c 0,-12.282 9.994,-22.273 22.275,-22.273 h 171.971 c 12.281,0 22.274,9.991 22.274,22.273 v 21.4 c 0,3.319 2.688,6.006 6.006,6.006 3.314,0 6.006,-2.687 6.006,-6.006 v -21.4 c 0,-18.905 -15.38,-34.285 -34.286,-34.285 h -171.971 c -18.906,0 -34.286,15.38 -34.286,34.285 v 77.155 h -43.712 c -12.809,0 -23.231,10.42 -23.231,23.232 v 55.342 c 0,12.813 10.423,23.232 23.231,23.232 h 18.368 l 29.765,29.767 c 1.15,1.15 2.688,1.761 4.25,1.761 0.772,0 1.556,-0.15 2.297,-0.458 2.244,-0.929 3.709,-3.116 3.709,-5.548 v -25.521 h 46.373 c 12.812,0 23.232,-10.419 23.232,-23.232 v -30.595 h 29.983 v 45.745 c 0,2.431 1.464,4.62 3.709,5.548 0.741,0.308 1.521,0.458 2.297,0.458 1.563,0 3.099,-0.609 4.247,-1.76 l 49.992,-49.991 h 31.746 c 18.906,0 34.286,-15.38 34.286,-34.286 v -21.403 c 0,-3.314 -2.692,-6.006 -6.006,-6.006 m -162.264,92.289 c 0,6.189 -5.033,11.221 -11.224,11.221 h -52.379 c -3.318,0 -6.006,2.691 -6.006,6.007 v 17.028 l -21.274,-21.274 c -1.126,-1.126 -2.654,-1.761 -4.247,-1.761 h -20.855 c -6.188,0 -11.221,-5.031 -11.221,-11.221 v -55.342 c 0,-6.188 5.033,-11.221 11.221,-11.221 h 43.712 v 1.682 c 0,18.906 15.38,34.286 34.286,34.286 h 37.987 z"
   clip-path="url(#SVGID_2_)"
   transform="translate(0,-0.31100928)" /><path
   style="fill:#010102"
   inkscape:connector-curvature="0"
   id="path46"
   d="m 2953.462,154.893 h -117.109 c -3.316,0 -6.006,2.689 -6.006,6.006 0,3.318 2.689,6.005 6.006,6.005 h 117.109 c 3.315,0 6.005,-2.687 6.005,-6.005 0,-3.317 -2.69,-6.006 -6.005,-6.006"
   clip-path="url(#SVGID_2_)"
   transform="translate(0,-0.31100928)" /><path
   style="fill:#010102"
   inkscape:connector-curvature="0"
   id="path48"
   d="m 2959.467,193.331 c 0,-3.316 -2.688,-6.005 -6.005,-6.005 h -117.11 c -3.315,0 -6.004,2.688 -6.004,6.005 0,3.318 2.688,6.006 6.004,6.006 h 117.11 c 3.316,-10e-4 6.005,-2.688 6.005,-6.006"
   clip-path="url(#SVGID_2_)"
   transform="translate(0,-0.31100928)" /><path
   style="fill:#010102"
   inkscape:connector-curvature="0"
   id="path50"
   d="m 2836.353,219.755 c -3.316,0 -6.005,2.689 -6.005,6.006 0,3.318 2.688,6.006 6.005,6.006 h 67.563 c 3.315,0 6.006,-2.688 6.006,-6.006 0,-3.316 -2.69,-6.006 -6.006,-6.006 z"
   clip-path="url(#SVGID_2_)"
   transform="translate(0,-0.31100928)" /><path
   style="fill:#010102"
   inkscape:connector-curvature="0"
   id="path52"
   d="m 3009.174,189.24 c -3.308,0 -6.007,2.698 -6.007,6.005 0,3.31 2.699,6.006 6.007,6.006 3.307,0 6.004,-2.696 6.004,-6.006 0,-3.307 -2.698,-6.005 -6.004,-6.005"
   clip-path="url(#SVGID_2_)"
   transform="translate(0,-0.31100928)" /><g
   id="g1852"
   transform="translate(-722.748,4.6413281e-6)"
   style="fill:#ff3202;fill-opacity:1"><path
     transform="translate(0,-0.31100928)"
     clip-path="url(#SVGID_2_)"
     d="m 1151.065,235.451 c -2.509,-1.38 -4.983,-2.892 -7.355,-4.494 l -38.341,-25.901 c -11.636,-7.861 -25.21,-12.016 -39.252,-12.016 h -70.373 c -18.68,0 -36.255,7.261 -49.491,20.445 -6.803,6.778 -14.553,12.448 -23.035,16.853 -5.016,2.604 -8.132,7.731 -8.132,13.379 0,8.318 6.766,15.084 15.084,15.084 h 23.992 c 3.201,0 5.797,-2.596 5.797,-5.797 0,-3.201 -2.596,-5.796 -5.797,-5.796 H 930.17 c -1.925,0 -3.492,-1.566 -3.492,-3.491 0,-1.305 0.722,-2.487 1.882,-3.091 9.53,-4.948 18.236,-11.316 25.875,-18.928 11.046,-11.005 25.717,-17.065 41.308,-17.065 h 15.755 v 42.575 h -19.257 c -3.201,0 -5.797,2.595 -5.797,5.796 0,3.201 2.596,5.797 5.797,5.797 h 158.941 c 4.765,0 8.642,-3.876 8.642,-8.642 10e-4,-6.102 -3.356,-11.739 -8.759,-14.708 m -127.971,11.757 v -42.576 h 43.024 c 11.722,0 23.051,3.469 32.764,10.029 l 38.34,25.901 c 2.663,1.799 5.44,3.496 8.258,5.046 0.73,0.401 1.341,0.954 1.801,1.6 z"
     id="path54"
     inkscape:connector-curvature="0"
     style="fill:#ff3202;fill-opacity:1" /><path
     transform="translate(0,-0.31100928)"
     clip-path="url(#SVGID_2_)"
     d="m 1037.456,267.613 h -17.905 c -3.201,0 -5.797,2.595 -5.797,5.796 0,3.201 2.596,5.797 5.797,5.797 h 17.905 c 3.201,0 5.797,-2.596 5.797,-5.797 0,-3.201 -2.596,-5.796 -5.797,-5.796"
     id="path56"
     inkscape:connector-curvature="0"
     style="fill:#ff3202;fill-opacity:1" /><path
     transform="translate(0,-0.31100928)"
     clip-path="url(#SVGID_2_)"
     d="m 1267.719,262.747 -1.831,-3.038 c -6.9,-11.451 -18.379,-19.515 -31.49,-22.123 l -14.966,-2.976 -30.246,-6.014 -7.693,-1.529 c -10.617,-2.112 -20.968,-8.521 -27.831,-13.157 l -38.341,-25.9 c -14.587,-9.854 -31.601,-15.063 -49.203,-15.063 h -70.372 c -23.417,0 -45.449,9.102 -62.036,25.628 -10.497,10.458 -23.71,17.59 -38.211,20.628 l -8.323,1.742 c -12.372,2.591 -21.351,13.647 -21.351,26.288 v 56.139 c 0,6.696 3.953,12.781 10.074,15.501 l 23.088,10.261 c 1.396,7.301 4.913,14.273 10.555,19.914 7.496,7.497 17.343,11.245 27.191,11.245 9.849,0 19.695,-3.748 27.192,-11.245 4.822,-4.821 8.083,-10.617 9.804,-16.758 h 192.508 c 1.721,6.141 4.983,11.937 9.805,16.758 7.263,7.263 16.919,11.265 27.191,11.265 10.272,0 19.93,-4 27.193,-11.265 4.822,-4.821 8.083,-10.617 9.804,-16.758 h 10.997 c 11.851,0 21.493,-9.642 21.493,-21.494 v -30.064 c -10e-4,-6.339 -1.731,-12.557 -5.001,-17.985 m -311.992,78.104 c -5.074,5.073 -11.819,7.867 -18.995,7.867 -7.175,0 -13.92,-2.794 -18.994,-7.867 -8.139,-8.139 -9.949,-20.241 -5.44,-30.148 0.037,-0.08 0.072,-0.16 0.108,-0.239 0.138,-0.294 0.284,-0.585 0.432,-0.874 0.07,-0.137 0.14,-0.272 0.213,-0.408 0.134,-0.251 0.274,-0.5 0.417,-0.748 0.098,-0.171 0.2,-0.341 0.302,-0.509 0.133,-0.219 0.267,-0.437 0.407,-0.65 0.126,-0.196 0.257,-0.389 0.389,-0.58 0.13,-0.189 0.259,-0.38 0.395,-0.567 0.154,-0.214 0.316,-0.424 0.478,-0.633 0.127,-0.164 0.25,-0.329 0.38,-0.491 0.19,-0.235 0.39,-0.466 0.589,-0.696 0.113,-0.132 0.222,-0.266 0.338,-0.396 0.296,-0.328 0.6,-0.649 0.913,-0.966 0.027,-0.026 0.052,-0.056 0.079,-0.082 0.06,-0.06 0.122,-0.115 0.183,-0.173 0.265,-0.262 0.532,-0.52 0.805,-0.767 0.071,-0.064 0.145,-0.124 0.217,-0.188 0.271,-0.241 0.545,-0.48 0.825,-0.708 0.026,-0.021 0.054,-0.041 0.08,-0.063 9.825,-7.951 23.996,-7.941 33.809,0.031 0.011,0.01 0.023,0.018 0.035,0.028 0.299,0.243 0.593,0.5 0.884,0.758 0.052,0.046 0.107,0.09 0.158,0.137 0.337,0.305 0.668,0.618 0.992,0.942 0.35,0.35 0.687,0.71 1.014,1.075 0.144,0.16 0.28,0.324 0.419,0.487 0.17,0.198 0.341,0.398 0.505,0.601 0.183,0.229 0.36,0.46 0.535,0.692 0.099,0.13 0.197,0.26 0.292,0.392 0.212,0.292 0.419,0.588 0.618,0.887 0.035,0.051 0.068,0.103 0.101,0.154 6.819,10.416 5.659,24.559 -3.483,33.702 m 266.5,0 c -5.074,5.073 -11.82,7.867 -18.995,7.867 -7.175,0 -13.92,-2.794 -18.994,-7.867 -9.143,-9.143 -10.303,-23.288 -3.484,-33.702 0.033,-0.051 0.065,-0.102 0.099,-0.15 0.199,-0.301 0.407,-0.597 0.62,-0.89 0.094,-0.132 0.191,-0.261 0.289,-0.389 0.176,-0.233 0.354,-0.466 0.539,-0.695 0.163,-0.202 0.331,-0.398 0.5,-0.596 0.141,-0.165 0.279,-0.331 0.424,-0.492 0.327,-0.365 0.664,-0.725 1.014,-1.074 5.074,-5.073 11.818,-7.868 18.994,-7.868 7.175,0 13.921,2.795 18.994,7.868 0.35,0.35 0.687,0.71 1.014,1.075 0.145,0.159 0.281,0.325 0.421,0.488 0.17,0.198 0.34,0.396 0.503,0.599 0.184,0.229 0.361,0.461 0.537,0.694 0.098,0.129 0.196,0.26 0.291,0.39 0.212,0.293 0.42,0.588 0.618,0.888 0.034,0.051 0.068,0.102 0.101,0.153 6.817,10.414 5.657,24.559 -3.485,33.701 m 38.901,-30.056 v 0 c 0,5.46 -4.441,9.901 -9.901,9.901 h -9.543 c -0.227,-8.407 -3.195,-16.429 -8.535,-23.005 -0.036,-0.043 -0.07,-0.09 -0.106,-0.135 -0.33,-0.403 -0.673,-0.798 -1.021,-1.19 -0.089,-0.101 -0.173,-0.203 -0.263,-0.303 -0.369,-0.407 -0.75,-0.805 -1.138,-1.197 -0.066,-0.067 -0.127,-0.136 -0.193,-0.203 -4.994,-4.993 -11.119,-8.444 -17.797,-10.113 -3.036,-0.759 -6.186,-1.149 -9.396,-1.149 -2.568,0 -5.097,0.25 -7.561,0.738 -7.39,1.467 -14.183,5.077 -19.631,10.524 -0.065,0.066 -0.125,0.134 -0.189,0.199 -0.39,0.396 -0.772,0.794 -1.142,1.203 -0.087,0.095 -0.168,0.195 -0.254,0.292 -0.351,0.396 -0.698,0.795 -1.031,1.201 -0.033,0.041 -0.065,0.083 -0.098,0.124 -5.344,6.577 -8.315,14.604 -8.543,23.015 H 975.182 c -0.228,-8.422 -3.205,-16.457 -8.563,-23.04 -0.025,-0.03 -0.049,-0.062 -0.074,-0.092 -0.349,-0.429 -0.712,-0.848 -1.082,-1.262 -0.068,-0.075 -0.132,-0.154 -0.201,-0.231 -0.433,-0.478 -0.878,-0.948 -1.338,-1.408 -1.874,-1.874 -3.896,-3.515 -6.026,-4.92 -6.395,-4.217 -13.78,-6.325 -21.166,-6.325 -9.847,0 -19.695,3.748 -27.191,11.245 -0.429,0.428 -0.843,0.867 -1.248,1.313 -0.12,0.132 -0.235,0.267 -0.354,0.399 -0.286,0.323 -0.567,0.649 -0.841,0.981 -0.122,0.146 -0.243,0.294 -0.363,0.443 -0.284,0.354 -0.56,0.711 -0.83,1.072 -0.085,0.113 -0.171,0.224 -0.253,0.338 -0.726,0.994 -1.4,2.02 -2.024,3.07 -0.017,0.03 -0.034,0.06 -0.051,0.089 -0.304,0.518 -0.596,1.042 -0.875,1.572 -0.008,0.015 -0.016,0.031 -0.025,0.046 -2.021,3.846 -3.38,8.005 -4.003,12.319 l -18.066,-8.029 c -1.938,-0.861 -3.189,-2.788 -3.189,-4.907 v -56.139 c 0,-7.186 5.105,-13.469 12.137,-14.942 l 8.322,-1.743 c 16.705,-3.499 31.925,-11.716 44.016,-23.761 14.401,-14.346 33.526,-22.248 53.854,-22.248 h 70.372 c 15.281,0 30.051,4.522 42.715,13.075 l 38.339,25.9 c 7.694,5.198 19.388,12.4 32.06,14.921 l 52.904,10.521 c 9.92,1.974 18.602,8.072 23.823,16.736 l 1.831,3.039 c 2.183,3.62 3.336,7.771 3.336,12 z"
     id="path58"
     inkscape:connector-curvature="0"
     style="fill:#ff3202;fill-opacity:1" /><path
     transform="translate(0,-0.31100928)"
     clip-path="url(#SVGID_2_)"
     d="m 936.732,304.258 c -4.701,0 -9.12,1.831 -12.443,5.155 -3.324,3.322 -5.155,7.742 -5.155,12.442 0,4.701 1.831,9.12 5.155,12.444 3.323,3.323 7.742,5.155 12.444,5.155 4.701,0 9.12,-1.831 12.443,-5.155 6.862,-6.862 6.862,-18.026 0,-24.887 -3.323,-3.324 -7.742,-5.154 -12.444,-5.154 m 4.247,21.844 c -1.134,1.135 -2.642,1.759 -4.246,1.759 -1.605,0 -3.112,-0.624 -4.246,-1.759 -1.134,-1.135 -1.76,-2.642 -1.76,-4.246 0,-1.604 0.625,-3.112 1.76,-4.246 1.134,-1.135 2.641,-1.76 4.246,-1.76 1.604,0 3.112,0.624 4.246,1.76 2.34,2.342 2.34,6.151 0,8.492"
     id="path60"
     inkscape:connector-curvature="0"
     style="fill:#ff3202;fill-opacity:1" /><path
     transform="translate(0,-0.31100928)"
     clip-path="url(#SVGID_2_)"
     d="m 1203.232,304.258 c -4.701,0 -9.119,1.83 -12.444,5.155 -6.861,6.86 -6.861,18.024 0,24.887 3.324,3.324 7.743,5.155 12.444,5.155 4.702,0 9.12,-1.831 12.444,-5.155 3.324,-3.323 5.154,-7.742 5.154,-12.443 0,-4.7 -1.83,-9.12 -5.154,-12.442 -3.323,-3.326 -7.742,-5.157 -12.444,-5.157 m 4.246,21.845 c -1.134,1.135 -2.642,1.759 -4.246,1.759 -1.604,0 -3.112,-0.624 -4.246,-1.759 -2.341,-2.341 -2.341,-6.149 0,-8.492 1.134,-1.134 2.642,-1.76 4.246,-1.76 1.604,0 3.112,0.625 4.247,1.76 1.134,1.135 1.759,2.642 1.759,4.246 0,1.603 -0.624,3.111 -1.76,4.246"
     id="path62"
     inkscape:connector-curvature="0"
     style="fill:#ff3202;fill-opacity:1" /><path
     transform="translate(0,-0.31100928)"
     clip-path="url(#SVGID_2_)"
     d="m 880.045,185.212 v -42.576 h 43.024 c 11.722,0 23.051,3.469 32.763,10.03 l 7.373,4.98 c 5.006,-1.572 10.138,-2.779 15.366,-3.609 l -16.25,-10.978 c -11.636,-7.861 -25.21,-12.016 -39.253,-12.016 h -70.372 c -18.68,0 -36.256,7.261 -49.491,20.446 -6.803,6.778 -14.553,12.447 -23.035,16.851 -5.016,2.606 -8.132,7.732 -8.132,13.381 0,8.317 6.766,15.083 15.084,15.083 h 23.992 c 3.201,0 5.797,-2.596 5.797,-5.797 0,-3.2 -2.596,-5.796 -5.797,-5.796 h -23.992 c -1.925,0 -3.492,-1.566 -3.492,-3.491 0,-1.304 0.721,-2.488 1.882,-3.091 9.53,-4.948 18.236,-11.317 25.874,-18.928 11.047,-11.005 25.718,-17.066 41.309,-17.066 h 15.755 v 42.576 h -19.257 c -3.201,0 -5.797,2.596 -5.797,5.796 0,3.201 2.596,5.797 5.797,5.797 h 50.811 c 6.799,-2.616 13.03,-6.538 18.368,-11.592 z"
     id="path64"
     inkscape:connector-curvature="0"
     style="fill:#ff3202;fill-opacity:1" /><path
     transform="translate(0,-0.31100928)"
     clip-path="url(#SVGID_2_)"
     d="m 832.133,258.702 c -0.228,-8.422 -3.205,-16.457 -8.563,-23.04 -0.025,-0.03 -0.049,-0.062 -0.074,-0.093 -0.349,-0.428 -0.713,-0.846 -1.082,-1.261 -0.068,-0.076 -0.132,-0.155 -0.201,-0.231 -0.433,-0.478 -0.878,-0.948 -1.338,-1.408 -1.874,-1.874 -3.896,-3.515 -6.027,-4.919 -6.394,-4.218 -13.779,-6.326 -21.164,-6.326 -9.848,0 -19.696,3.748 -27.193,11.245 -0.428,0.428 -0.842,0.867 -1.247,1.313 -0.12,0.132 -0.235,0.267 -0.354,0.399 -0.286,0.323 -0.567,0.649 -0.841,0.98 -0.122,0.147 -0.244,0.295 -0.363,0.444 -0.283,0.354 -0.56,0.711 -0.83,1.072 -0.084,0.113 -0.171,0.224 -0.253,0.338 -0.726,0.994 -1.4,2.019 -2.023,3.07 -0.018,0.029 -0.034,0.06 -0.052,0.09 -0.304,0.517 -0.596,1.042 -0.875,1.571 -0.008,0.015 -0.016,0.031 -0.024,0.046 -2.021,3.846 -3.38,8.005 -4.003,12.319 l -18.067,-8.029 c -1.937,-0.861 -3.189,-2.788 -3.189,-4.906 v -56.14 c 0,-7.185 5.105,-13.469 12.137,-14.943 l 8.322,-1.742 c 16.705,-3.5 31.926,-11.716 44.016,-23.761 14.4,-14.348 33.526,-22.248 53.854,-22.248 h 70.372 c 15.282,0 30.051,4.521 42.714,13.075 l 25.408,17.164 c 1.513,-0.062 3.029,-0.1 4.552,-0.1 h 16.015 c -0.391,-0.26 -0.776,-0.518 -1.147,-0.768 l -38.34,-25.901 C 957.686,116.158 940.672,110.95 923.069,110.95 h -70.372 c -23.416,0 -45.449,9.102 -62.037,25.628 -10.496,10.457 -23.709,17.59 -38.21,20.627 l -8.322,1.743 c -12.372,2.591 -21.352,13.647 -21.352,26.288 v 56.14 c 0,6.695 3.954,12.78 10.074,15.5 l 23.088,10.261 c 1.396,7.302 4.914,14.273 10.554,19.914 7.497,7.497 17.344,11.245 27.192,11.245 9.848,0 19.695,-3.748 27.192,-11.245 4.822,-4.821 8.083,-10.617 9.804,-16.758 h 14.879 v -11.592 h -13.426 z m -19.455,20.153 c -5.073,5.073 -11.819,7.867 -18.994,7.867 -7.176,0 -13.922,-2.794 -18.995,-7.867 -8.138,-8.139 -9.949,-20.241 -5.44,-30.147 0.037,-0.08 0.072,-0.161 0.109,-0.24 0.137,-0.294 0.282,-0.585 0.431,-0.874 0.07,-0.136 0.139,-0.272 0.213,-0.408 0.134,-0.251 0.274,-0.5 0.417,-0.748 0.099,-0.171 0.199,-0.341 0.302,-0.509 0.133,-0.219 0.267,-0.437 0.407,-0.651 0.127,-0.194 0.257,-0.388 0.388,-0.579 0.131,-0.189 0.261,-0.381 0.395,-0.567 0.156,-0.213 0.317,-0.423 0.479,-0.633 0.126,-0.163 0.249,-0.329 0.38,-0.491 0.191,-0.235 0.39,-0.465 0.589,-0.696 0.113,-0.132 0.222,-0.266 0.339,-0.396 0.295,-0.328 0.599,-0.649 0.913,-0.965 0.026,-0.027 0.051,-0.056 0.078,-0.083 0.06,-0.06 0.122,-0.115 0.183,-0.174 0.265,-0.261 0.533,-0.519 0.805,-0.766 0.071,-0.064 0.146,-0.124 0.217,-0.188 0.272,-0.24 0.545,-0.48 0.825,-0.708 0.026,-0.021 0.054,-0.041 0.08,-0.063 9.825,-7.951 23.996,-7.942 33.809,0.032 0.011,0.009 0.023,0.017 0.035,0.026 0.3,0.244 0.593,0.5 0.885,0.759 0.052,0.047 0.106,0.09 0.158,0.137 0.337,0.305 0.667,0.619 0.991,0.942 0.35,0.35 0.687,0.71 1.014,1.074 0.144,0.161 0.28,0.325 0.419,0.488 0.17,0.198 0.341,0.398 0.505,0.601 0.184,0.229 0.36,0.46 0.536,0.692 0.098,0.13 0.196,0.26 0.291,0.391 0.212,0.293 0.419,0.589 0.618,0.889 0.035,0.051 0.068,0.102 0.101,0.152 6.819,10.416 5.659,24.56 -3.483,33.703"
     id="path66"
     inkscape:connector-curvature="0"
     style="fill:#ff3202;fill-opacity:1" /><path
     transform="translate(0,-0.31100928)"
     clip-path="url(#SVGID_2_)"
     d="m 793.684,242.262 c -4.701,0 -9.121,1.831 -12.444,5.155 -3.323,3.322 -5.155,7.742 -5.155,12.442 0,4.701 1.832,9.12 5.155,12.444 3.323,3.323 7.743,5.155 12.444,5.155 4.701,0 9.121,-1.831 12.444,-5.155 6.862,-6.862 6.862,-18.026 0,-24.887 -3.325,-3.324 -7.743,-5.154 -12.444,-5.154 m 4.246,21.844 c -1.134,1.135 -2.643,1.759 -4.246,1.759 -1.605,0 -3.112,-0.624 -4.247,-1.759 -1.133,-1.135 -1.759,-2.642 -1.759,-4.246 0,-1.604 0.625,-3.112 1.759,-4.246 1.135,-1.135 2.642,-1.76 4.247,-1.76 1.603,0 3.112,0.625 4.246,1.76 2.341,2.342 2.341,6.151 0,8.492"
     id="path68"
     inkscape:connector-curvature="0"
     style="fill:#ff3202;fill-opacity:1" /></g>
</svg>