<?xml version="1.0" encoding="UTF-8" standalone="no"?>
<!-- Created with Inkscape (http://www.inkscape.org/) -->

<svg
   xmlns:dc="http://purl.org/dc/elements/1.1/"
   xmlns:cc="http://creativecommons.org/ns#"
   xmlns:rdf="http://www.w3.org/1999/02/22-rdf-syntax-ns#"
   xmlns:svg="http://www.w3.org/2000/svg"
   xmlns="http://www.w3.org/2000/svg"
   xmlns:xlink="http://www.w3.org/1999/xlink"
   xmlns:sodipodi="http://sodipodi.sourceforge.net/DTD/sodipodi-0.dtd"
   xmlns:inkscape="http://www.inkscape.org/namespaces/inkscape"
   version="1.1"
   id="svg2"
   width="820"
   height="712"
   viewBox="0 0 820 712"
   sodipodi:docname="how-its-work-03.svg"
   inkscape:version="0.92.4 (f8dce91, 2019-08-02)">
  <metadata
     id="metadata8">
    <rdf:RDF>
      <cc:Work
         rdf:about="">
        <dc:format>image/svg+xml</dc:format>
        <dc:type
           rdf:resource="http://purl.org/dc/dcmitype/StillImage" />
        <dc:title></dc:title>
      </cc:Work>
    </rdf:RDF>
  </metadata>
  <defs
     id="defs6">
    <rect
       height="83.687"
       width="53.662"
       id="SVGID_1_" />
    <path
       d="M25.439,27.618c-2.002,0.35-3.813,1.402-5.11,2.966c-1.167,1.367-1.856,3.077-1.964,4.872    c-0.028,0.205-0.04,0.413-0.036,0.62v5.395c0,2.143,0,4.732,0.012,7.467c-0.009,4.063,1.811,7.913,4.954,10.484l1.234,1.01    c2.868,2.352,4.709,3.863,5.916,4.851c-0.08,0.271-0.137,0.551-0.137,0.846c0,1.658,1.347,3.003,3.006,3.003    c1.656,0,3.003-1.345,3.003-3.003c0-1.659-1.347-3.005-3.003-3.005c-0.52,0-0.999,0.145-1.426,0.375    c-1.529-1.254-3.683-3.018-5.908-4.843l-1.236-1.005c-2.629-2.157-4.142-5.387-4.118-8.787c-0.007-2.666-0.007-5.252-0.007-7.393    v-5.395c-0.003-0.128,0.005-0.256,0.022-0.382c0.069-1.339,0.576-2.618,1.445-3.64c0.955-1.154,2.291-1.928,3.767-2.183    c0.352-0.065,0.709-0.097,1.066-0.094c3.404,0.017,6.183,2.725,6.287,6.128c-0.002,0.057,0.001,0.114,0.012,0.171v5.841    c-0.001,2.373,0.626,4.704,1.815,6.758c0.195,0.373,0.579,0.608,0.999,0.613c0.422,0.006,0.812-0.219,1.017-0.587    c0.204-0.366,0.191-0.817-0.034-1.173c-0.998-1.729-1.518-3.693-1.506-5.692v-5.761c0.001-0.087-0.004-0.175-0.013-0.262    c-0.162-4.627-3.947-8.302-8.577-8.328c-0.014,0-0.029,0-0.043,0C26.395,27.486,25.914,27.53,25.439,27.618"
       id="SVGID_3_" />
    <path
       d="M41.921,20.998c-0.468,0.42-0.511,1.138-0.095,1.61c2.541,2.857,4.217,6.366,4.851,10.116    c-0.984,0.493-1.667,1.5-1.667,2.676c0,1.659,1.346,3.003,3.004,3.003s3.002-1.344,3.002-3.003c0-1.323-0.861-2.434-2.051-2.835    c-0.676-4.258-2.553-8.247-5.434-11.486c-0.227-0.247-0.535-0.373-0.847-0.373C42.413,20.706,42.14,20.803,41.921,20.998"
       id="SVGID_6_" />
    <path
       d="M6.592,26.859c-1.166,2.536-1.838,5.271-1.982,8.058c-0.013,0.379-0.025,0.769-0.025,1.159    c0,2.562,0,3.935,0.014,4.079c0.037,0.604,0.54,1.074,1.146,1.068h0.056c0.627-0.032,1.112-0.562,1.089-1.19    c-0.014-0.303-0.014-3.768-0.014-3.957c0-0.365,0.012-0.731,0.022-1.059c0.13-2.493,0.734-4.939,1.778-7.208    c3.312-7.354,10.723-11.995,18.785-11.764c0.628,0.007,1.148-0.486,1.176-1.114c0.017-0.633-0.481-1.159-1.113-1.175    c-0.214-0.006-0.426-0.009-0.637-0.009C18.151,13.747,10.199,18.862,6.592,26.859"
       id="SVGID_9_" />
    <path
       d="M31.147,15.27c-0.15,0.604,0.209,1.217,0.809,1.382l0.406,0.098c2.184,0.582,4.247,1.541,6.1,2.835    c0.52,0.362,1.233,0.234,1.595-0.285c0.362-0.519,0.234-1.234-0.284-1.596c-2.077-1.449-4.393-2.522-6.84-3.17L32.51,14.43    c-0.085-0.019-0.17-0.028-0.253-0.028C31.743,14.402,31.277,14.751,31.147,15.27"
       id="SVGID_12_" />
    <path
       d="M52.428,38.403c-0.552,0-1.003,0.405-1.091,0.944c-2.203,13.558-17.286,32.797-23.108,39.809    c-0.756,0.91-2.15,0.91-2.907,0C19.499,72.144,4.417,52.905,2.214,39.347c-0.088-0.539-0.54-0.944-1.086-0.944H1.1    c-0.611,0-1.091,0.495-1.1,1.083v0.031c0.001,0.054,0.005,0.109,0.014,0.164C2.85,57.109,24.943,82.185,25.946,83.314    c0.441,0.497,1.218,0.497,1.66,0c1.002-1.13,23.099-26.21,25.932-43.639c0.107-0.666-0.406-1.272-1.081-1.272H52.428z"
       id="SVGID_15_" />
  </defs>
  <sodipodi:namedview
     pagecolor="#ffffff"
     bordercolor="#666666"
     borderopacity="1"
     objecttolerance="10"
     gridtolerance="10"
     guidetolerance="10"
     inkscape:pageopacity="0"
     inkscape:pageshadow="2"
     inkscape:window-width="1879"
     inkscape:window-height="1016"
     id="namedview4"
     showgrid="false"
     inkscape:zoom="0.23437809"
     inkscape:cx="10.152546"
     inkscape:cy="-0.89721967"
     inkscape:window-x="41"
     inkscape:window-y="27"
     inkscape:window-maximized="1"
     inkscape:current-layer="svg2" />
  <g
     inkscape:groupmode="layer"
     id="layer1"
     inkscape:label="Layer 1" />
  <g
     inkscape:groupmode="layer"
     id="layer2"
     inkscape:label="Layer 2" />
  <g
     id="g1029"
     transform="matrix(2.2729225,0,0,2.2729225,334.66938,1.80013)">
    <g
       id="g870">
	<defs
   id="defs839">
		<rect
   height="83.686996"
   width="53.661999"
   id="rect960"
   x="0"
   y="0" />

	</defs>

	<clipPath
   id="SVGID_2_">
		<use
   id="use841"
   overflow="visible"
   xlink:href="#SVGID_1_"
   style="overflow:visible"
   x="0"
   y="0"
   width="100%"
   height="100%" />

	</clipPath>

	<path
   id="path844"
   d="m 18.756,20.945 c -0.033,0.408 0.153,0.803 0.49,1.036 0.337,0.233 0.773,0.268 1.143,0.093 1.416,-0.674 2.93,-1.119 4.487,-1.32 0.405,-0.051 0.753,-0.315 0.911,-0.693 0.158,-0.377 0.103,-0.81 -0.145,-1.137 -0.247,-0.325 -0.651,-0.494 -1.056,-0.442 -1.796,0.231 -3.543,0.745 -5.178,1.521 -0.37,0.175 -0.618,0.534 -0.652,0.942"
   clip-path="url(#SVGID_2_)"
   inkscape:connector-curvature="0"
   style="fill:#23354b" />

	<path
   id="path846"
   d="m 16.745,22.21 c -0.384,-0.144 -0.814,-0.072 -1.131,0.187 -2.522,2.095 -4.421,4.843 -5.485,7.944 -0.64,1.845 -0.965,3.783 -0.962,5.735 v 9.632 c 0,0.632 0.512,1.146 1.145,1.146 0.632,0 1.145,-0.514 1.145,-1.146 v -9.632 c 0.004,-3.643 1.292,-7.167 3.639,-9.953 0.595,-0.712 1.255,-1.366 1.973,-1.955 0.317,-0.26 0.47,-0.668 0.403,-1.072 -0.067,-0.404 -0.344,-0.741 -0.727,-0.886"
   clip-path="url(#SVGID_2_)"
   inkscape:connector-curvature="0"
   style="fill:#23354b" />

	<path
   id="path848"
   d="m 29.45,18.519 c -0.404,-0.058 -0.81,0.105 -1.062,0.427 -0.252,0.322 -0.315,0.754 -0.162,1.134 0.151,0.379 0.495,0.649 0.9,0.707 6.827,1.096 12.137,6.522 13.083,13.371 0.082,0.562 0.563,0.978 1.13,0.98 0.057,0 0.112,-0.005 0.168,-0.013 0.625,-0.092 1.059,-0.673 0.968,-1.299 C 43.379,25.975 37.28,19.762 29.45,18.519"
   clip-path="url(#SVGID_2_)"
   inkscape:connector-curvature="0"
   style="fill:#23354b" />

	<path
   id="path850"
   d="M 36.944,61.693 C 36.84,61.613 36.582,61.401 36.19,61.085 l -1.025,-0.83 C 35.133,60.221 35.098,60.19 35.061,60.159 33.653,59.014 31.604,57.343 29.336,55.489 26.72,53.348 25.206,50.145 25.211,46.766 V 45.25 C 25.2,42.967 25.2,40.897 25.2,39.294 v -3.219 c -0.003,-0.456 0.177,-0.895 0.5,-1.217 0.297,-0.296 0.69,-0.476 1.109,-0.503 0.448,-0.018 0.885,0.151 1.204,0.466 0.396,0.374 0.62,0.894 0.622,1.438 v 1.821 c 0,1.43 0,3.512 -0.011,5.932 v 0.133 c 0.016,4.027 1.82,7.839 4.924,10.404 0.472,0.392 0.934,0.772 1.361,1.12 0.49,0.397 1.213,0.321 1.611,-0.169 0.399,-0.492 0.323,-1.214 -0.169,-1.612 -0.42,-0.343 -0.874,-0.716 -1.344,-1.104 -2.58,-2.132 -4.08,-5.299 -4.097,-8.646 v -0.132 c 0.012,-2.405 0.012,-4.494 0.012,-5.926 v -1.82 c -0.002,-1.174 -0.486,-2.295 -1.338,-3.102 -0.779,-0.75 -1.833,-1.144 -2.914,-1.088 -0.979,0.061 -1.901,0.477 -2.594,1.169 -0.753,0.752 -1.174,1.773 -1.169,2.837 v 3.219 c 0,1.603 0,3.679 0.011,5.956 v 1.512 c -0.006,4.066 1.819,7.921 4.967,10.495 2.213,1.813 4.219,3.448 5.625,4.591 0.034,0.034 0.07,0.066 0.106,0.097 l 1.125,0.917 c 0.979,0.796 0.979,0.796 1.197,0.87 0.545,0.184 1.143,-0.063 1.396,-0.58 0.257,-0.517 0.089,-1.141 -0.39,-1.46"
   clip-path="url(#SVGID_2_)"
   inkscape:connector-curvature="0"
   style="fill:#23354b" />

	<path
   id="path852"
   d="m 38.052,4.284 c 1.436,0.518 2.833,1.135 4.183,1.848 C 42.596,6.323 43.033,6.307 43.38,6.09 43.727,5.872 43.931,5.486 43.915,5.076 43.9,4.668 43.669,4.298 43.307,4.106 41.864,3.344 40.368,2.684 38.831,2.129 38.237,1.914 37.579,2.223 37.365,2.818 c -0.217,0.594 0.091,1.251 0.687,1.466"
   clip-path="url(#SVGID_2_)"
   inkscape:connector-curvature="0"
   style="fill:#23354b" />

	<path
   id="path854"
   d="m 5.009,16.251 c 0.312,0 0.612,-0.128 0.828,-0.354 C 13.192,8.18 24.176,5.101 34.47,7.872 34.869,7.995 35.304,7.891 35.604,7.6 35.906,7.31 36.022,6.879 35.913,6.475 35.803,6.072 35.481,5.761 35.075,5.664 23.97,2.668 12.115,5.987 4.181,14.314 c -0.317,0.332 -0.405,0.82 -0.225,1.242 0.18,0.422 0.595,0.695 1.053,0.695"
   clip-path="url(#SVGID_2_)"
   inkscape:connector-curvature="0"
   style="fill:#23354b" />

	<path
   id="path856"
   d="M 39.538,7.219 C 39.46,7.193 39.381,7.176 39.3,7.167 39.232,7.147 39.162,7.133 39.092,7.126 h -0.01 C 39.027,7.133 38.975,7.144 38.921,7.159 38.752,7.158 38.588,7.22 38.462,7.333 38.399,7.365 38.34,7.404 38.285,7.448 38.222,7.517 38.165,7.594 38.12,7.677 38.089,7.716 38.059,7.757 38.033,7.8 V 7.808 C 38.011,7.88 37.995,7.952 37.985,8.026 37.963,8.101 37.947,8.178 37.94,8.255 v 0.008 c 0.006,0.049 0.016,0.097 0.029,0.144 0.007,0.097 0.026,0.192 0.058,0.285 0.032,0.066 0.071,0.129 0.115,0.188 0.034,0.063 0.074,0.123 0.121,0.179 0.068,0.065 0.146,0.121 0.229,0.166 0.038,0.032 0.078,0.061 0.121,0.086 4.468,1.979 8.377,5.032 11.379,8.887 0.393,0.482 1.1,0.563 1.592,0.18 0.491,-0.382 0.587,-1.087 0.215,-1.587 -3.233,-4.15 -7.443,-7.435 -12.254,-9.564 z"
   clip-path="url(#SVGID_2_)"
   inkscape:connector-curvature="0"
   style="fill:#23354b" />

	<path
   id="path858"
   d="m 19.117,10.315 c -2.873,0.87 -5.575,2.222 -7.995,3.998 -0.509,0.375 -0.618,1.091 -0.244,1.601 0.374,0.51 1.091,0.62 1.6,0.245 2.211,-1.623 4.682,-2.858 7.306,-3.653 0.396,-0.116 0.699,-0.436 0.794,-0.837 0.095,-0.401 -0.033,-0.822 -0.336,-1.103 -0.303,-0.279 -0.732,-0.376 -1.125,-0.251"
   clip-path="url(#SVGID_2_)"
   inkscape:connector-curvature="0"
   style="fill:#23354b" />

	<path
   id="path860"
   d="M 9.216,18.15 C 9.099,17.756 8.779,17.455 8.378,17.361 c -0.401,-0.092 -0.82,0.036 -1.099,0.338 -2.705,2.863 -4.736,6.293 -5.947,10.04 -0.196,0.601 0.133,1.247 0.734,1.443 0.601,0.196 1.248,-0.134 1.443,-0.735 1.107,-3.426 2.966,-6.562 5.437,-9.178 0.286,-0.297 0.388,-0.725 0.27,-1.119"
   clip-path="url(#SVGID_2_)"
   inkscape:connector-curvature="0"
   style="fill:#23354b" />

	<path
   id="path862"
   d="m 26.919,9.162 c -0.998,10e-4 -1.995,0.058 -2.988,0.167 -0.409,0.041 -0.766,0.299 -0.933,0.675 -0.167,0.377 -0.119,0.814 0.126,1.145 0.244,0.331 0.648,0.506 1.056,0.457 0.91,-0.101 1.824,-0.152 2.739,-0.153 12.548,-0.028 23.099,9.412 24.459,21.886 0.064,0.58 0.554,1.019 1.138,1.02 0.042,0 0.084,-0.003 0.125,-0.007 0.629,-0.069 1.081,-0.632 1.015,-1.26 C 52.169,19.454 40.637,9.133 26.919,9.162"
   clip-path="url(#SVGID_2_)"
   inkscape:connector-curvature="0"
   style="fill:#23354b" />

	<path
   id="path864"
   d="m 40.09,36.386 c 0.12,-4.895 -2.488,-9.451 -6.77,-11.827 -4.28,-2.376 -9.526,-2.179 -13.617,0.512 -1.684,1.101 -3.095,2.572 -4.123,4.303 -0.914,1.53 -1.5,3.233 -1.718,5.002 -0.077,0.563 -0.115,1.132 -0.114,1.7 v 15.027 c -0.008,4.06 1.811,7.909 4.953,10.481 l 2.3,1.892 c 2.254,1.852 4.362,3.585 5.955,4.881 0.49,0.4 1.213,0.327 1.612,-0.164 0.399,-0.49 0.326,-1.211 -0.164,-1.611 -1.585,-1.294 -3.692,-3.026 -5.943,-4.876 L 20.16,59.815 c -2.626,-2.152 -4.139,-5.374 -4.122,-8.769 v -14.97 c 0,-0.469 0.031,-0.939 0.095,-1.403 0.179,-1.459 0.662,-2.864 1.417,-4.124 2.185,-3.676 6.311,-5.741 10.563,-5.288 5.599,0.685 9.779,5.484 9.687,11.125 v 3.355 c 0.001,0.558 0.039,1.115 0.115,1.667 0.085,0.627 0.662,1.066 1.29,0.98 0.626,-0.085 1.065,-0.663 0.98,-1.289 C 40.12,40.63 40.089,40.158 40.09,39.684 Z"
   clip-path="url(#SVGID_2_)"
   inkscape:connector-curvature="0"
   style="fill:#23354b" />

	<path
   id="path866"
   d="m 9.613,8.17 c 1.603,0 2.9,-1.259 2.986,-2.841 C 19.227,2.311 26.667,1.508 33.807,3.065 34.425,3.201 35.036,2.81 35.173,2.192 35.308,1.574 34.917,0.962 34.3,0.827 26.74,-0.82 18.87,0.011 11.838,3.166 11.288,2.555 10.5,2.164 9.613,2.164 c -1.659,0 -3.004,1.344 -3.004,3.003 0,1.659 1.346,3.003 3.004,3.003"
   clip-path="url(#SVGID_2_)"
   inkscape:connector-curvature="0"
   style="fill:#23354b" />

	<path
   id="path868"
   d="m 11.457,48.963 c 0,-0.57 -0.391,-1.099 -0.953,-1.188 -0.719,-0.116 -1.337,0.434 -1.337,1.128 v 2.989 c -10e-4,0.441 0.022,0.88 0.066,1.316 0.063,0.611 0.609,1.058 1.22,0.996 l 0.074,-0.008 c 0.618,-0.063 1.048,-0.62 0.985,-1.238 -0.038,-0.376 -0.057,-0.755 -0.055,-1.134 z"
   clip-path="url(#SVGID_2_)"
   inkscape:connector-curvature="0"
   style="fill:#23354b" />

</g>
    <g
       id="g885">
	<defs
   id="defs873">
		<path
   d="m 25.439,27.618 c -2.002,0.35 -3.813,1.402 -5.11,2.966 -1.167,1.367 -1.856,3.077 -1.964,4.872 -0.028,0.205 -0.04,0.413 -0.036,0.62 v 5.395 c 0,2.143 0,4.732 0.012,7.467 -0.009,4.063 1.811,7.913 4.954,10.484 l 1.234,1.01 c 2.868,2.352 4.709,3.863 5.916,4.851 -0.08,0.271 -0.137,0.551 -0.137,0.846 0,1.658 1.347,3.003 3.006,3.003 1.656,0 3.003,-1.345 3.003,-3.003 0,-1.659 -1.347,-3.005 -3.003,-3.005 -0.52,0 -0.999,0.145 -1.426,0.375 -1.529,-1.254 -3.683,-3.018 -5.908,-4.843 l -1.236,-1.005 c -2.629,-2.157 -4.142,-5.387 -4.118,-8.787 -0.007,-2.666 -0.007,-5.252 -0.007,-7.393 v -5.395 c -0.003,-0.128 0.005,-0.256 0.022,-0.382 0.069,-1.339 0.576,-2.618 1.445,-3.64 0.955,-1.154 2.291,-1.928 3.767,-2.183 0.352,-0.065 0.709,-0.097 1.066,-0.094 3.404,0.017 6.183,2.725 6.287,6.128 -0.002,0.057 10e-4,0.114 0.012,0.171 v 5.841 c -0.001,2.373 0.626,4.704 1.815,6.758 0.195,0.373 0.579,0.608 0.999,0.613 0.422,0.006 0.812,-0.219 1.017,-0.587 0.204,-0.366 0.191,-0.817 -0.034,-1.173 -0.998,-1.729 -1.518,-3.693 -1.506,-5.692 v -5.761 c 10e-4,-0.087 -0.004,-0.175 -0.013,-0.262 -0.162,-4.627 -3.947,-8.302 -8.577,-8.328 -0.014,0 -0.029,0 -0.043,0 -0.481,0.001 -0.962,0.045 -1.437,0.133"
   id="path979"
   inkscape:connector-curvature="0" />

	</defs>

	<clipPath
   id="SVGID_4_">
		<use
   id="use875"
   overflow="visible"
   xlink:href="#SVGID_3_"
   style="overflow:visible"
   x="0"
   y="0"
   width="100%"
   height="100%" />

	</clipPath>

	
		<linearGradient
   gradientTransform="matrix(0.3333,-72.6667,-72.6667,-0.3333,6108.8193,114.3952)"
   y2="83.685097"
   x2="1"
   y1="83.685097"
   x1="0"
   gradientUnits="userSpaceOnUse"
   id="SVGID_5_">
		<stop
   id="stop878"
   style="stop-color:#EF4136"
   offset="0" />

		<stop
   id="stop880"
   style="stop-color:#F7941E"
   offset="1" />

	</linearGradient>

	<polygon
   id="polygon883"
   points="37.253,69.218 18.134,69.13 18.325,27.399 37.444,27.487 "
   clip-path="url(#SVGID_4_)"
   style="fill:url(#SVGID_5_)" />

</g>
    <g
       id="g900">
	<defs
   id="defs888">
		<path
   d="m 41.921,20.998 c -0.468,0.42 -0.511,1.138 -0.095,1.61 2.541,2.857 4.217,6.366 4.851,10.116 -0.984,0.493 -1.667,1.5 -1.667,2.676 0,1.659 1.346,3.003 3.004,3.003 1.658,0 3.002,-1.344 3.002,-3.003 0,-1.323 -0.861,-2.434 -2.051,-2.835 -0.676,-4.258 -2.553,-8.247 -5.434,-11.486 -0.227,-0.247 -0.535,-0.373 -0.847,-0.373 -0.271,0 -0.544,0.097 -0.763,0.292"
   id="path989"
   inkscape:connector-curvature="0" />

	</defs>

	<clipPath
   id="SVGID_7_">
		<use
   id="use890"
   overflow="visible"
   xlink:href="#SVGID_6_"
   style="overflow:visible"
   x="0"
   y="0"
   width="100%"
   height="100%" />

	</clipPath>

	
		<linearGradient
   gradientTransform="matrix(0.3333,-72.6667,-72.6667,-0.3333,6127.2568,114.4577)"
   y2="83.686996"
   x2="1"
   y1="83.686996"
   x1="0"
   gradientUnits="userSpaceOnUse"
   id="SVGID_8_">
		<stop
   id="stop893"
   style="stop-color:#EF4136"
   offset="0" />

		<stop
   id="stop895"
   style="stop-color:#F7941E"
   offset="1" />

	</linearGradient>

	<polygon
   id="polygon898"
   points="51.016,38.447 41.329,38.403 41.41,20.662 51.098,20.707 "
   clip-path="url(#SVGID_7_)"
   style="fill:url(#SVGID_8_)" />

</g>
    <g
       id="g915">
	<defs
   id="defs903">
		<path
   d="m 6.592,26.859 c -1.166,2.536 -1.838,5.271 -1.982,8.058 -0.013,0.379 -0.025,0.769 -0.025,1.159 0,2.562 0,3.935 0.014,4.079 0.037,0.604 0.54,1.074 1.146,1.068 H 5.801 C 6.428,41.191 6.913,40.661 6.89,40.033 6.876,39.73 6.876,36.265 6.876,36.076 c 0,-0.365 0.012,-0.731 0.022,-1.059 0.13,-2.493 0.734,-4.939 1.778,-7.208 3.312,-7.354 10.723,-11.995 18.785,-11.764 0.628,0.007 1.148,-0.486 1.176,-1.114 0.017,-0.633 -0.481,-1.159 -1.113,-1.175 -0.214,-0.006 -0.426,-0.009 -0.637,-0.009 -8.736,0 -16.688,5.115 -20.295,13.112"
   id="path999"
   inkscape:connector-curvature="0" />

	</defs>

	<clipPath
   id="SVGID_10_">
		<use
   id="use905"
   overflow="visible"
   xlink:href="#SVGID_9_"
   style="overflow:visible"
   x="0"
   y="0"
   width="100%"
   height="100%" />

	</clipPath>

	
		<linearGradient
   gradientTransform="matrix(0.3333,-72.6667,-72.6667,-0.3333,6097.5693,114.3327)"
   y2="83.685097"
   x2="1"
   y1="83.685097"
   x1="0"
   gradientUnits="userSpaceOnUse"
   id="SVGID_11_">
		<stop
   id="stop908"
   style="stop-color:#EF4136"
   offset="0" />

		<stop
   id="stop910"
   style="stop-color:#F7941E"
   offset="1" />

	</linearGradient>

	<polygon
   id="polygon913"
   points="28.652,41.339 4.459,41.229 4.585,13.637 28.779,13.748 "
   clip-path="url(#SVGID_10_)"
   style="fill:url(#SVGID_11_)" />

</g>
    <g
       id="g930">
	<defs
   id="defs918">
		<path
   d="m 31.147,15.27 c -0.15,0.604 0.209,1.217 0.809,1.382 l 0.406,0.098 c 2.184,0.582 4.247,1.541 6.1,2.835 0.52,0.362 1.233,0.234 1.595,-0.285 0.362,-0.519 0.234,-1.234 -0.284,-1.596 -2.077,-1.449 -4.393,-2.522 -6.84,-3.17 L 32.51,14.43 c -0.085,-0.019 -0.17,-0.028 -0.253,-0.028 -0.514,0 -0.98,0.349 -1.11,0.868"
   id="path1009"
   inkscape:connector-curvature="0" />

	</defs>

	<clipPath
   id="SVGID_13_">
		<use
   id="use920"
   overflow="visible"
   xlink:href="#SVGID_12_"
   style="overflow:visible"
   x="0"
   y="0"
   width="100%"
   height="100%" />

	</clipPath>

	
		<linearGradient
   gradientTransform="matrix(0.3333,-72.6667,-72.6667,-0.3333,6116.6318,114.3952)"
   y2="83.686996"
   x2="1"
   y1="83.686996"
   x1="0"
   gradientUnits="userSpaceOnUse"
   id="SVGID_14_">
		<stop
   id="stop923"
   style="stop-color:#EF4136"
   offset="0" />

		<stop
   id="stop925"
   style="stop-color:#F7941E"
   offset="1" />

	</linearGradient>

	<polygon
   id="polygon928"
   points="40.419,19.99 30.972,19.947 30.997,14.359 40.444,14.402 "
   clip-path="url(#SVGID_13_)"
   style="fill:url(#SVGID_14_)" />

</g>
    <g
       id="g945">
	<defs
   id="defs933">
		<path
   d="m 52.428,38.403 c -0.552,0 -1.003,0.405 -1.091,0.944 -2.203,13.558 -17.286,32.797 -23.108,39.809 -0.756,0.91 -2.15,0.91 -2.907,0 C 19.499,72.144 4.417,52.905 2.214,39.347 2.126,38.808 1.674,38.403 1.128,38.403 H 1.1 c -0.611,0 -1.091,0.495 -1.1,1.083 v 0.031 c 0.001,0.054 0.005,0.109 0.014,0.164 2.836,17.428 24.929,42.504 25.932,43.633 0.441,0.497 1.218,0.497 1.66,0 1.002,-1.13 23.099,-26.21 25.932,-43.639 0.107,-0.666 -0.406,-1.272 -1.081,-1.272 z"
   id="path1019"
   inkscape:connector-curvature="0" />

	</defs>

	<clipPath
   id="SVGID_16_">
		<use
   id="use935"
   overflow="visible"
   xlink:href="#SVGID_15_"
   style="overflow:visible"
   x="0"
   y="0"
   width="100%"
   height="100%" />

	</clipPath>

	
		<linearGradient
   gradientTransform="matrix(0.3333,-72.6667,-72.6667,-0.3333,6107.8193,114.3952)"
   y2="83.683098"
   x2="1"
   y1="83.683098"
   x1="0"
   gradientUnits="userSpaceOnUse"
   id="SVGID_17_">
		<stop
   id="stop938"
   style="stop-color:#EF4136"
   offset="0" />

		<stop
   id="stop940"
   style="stop-color:#F7941E"
   offset="1" />

	</linearGradient>

	<polygon
   id="polygon943"
   points="53.644,84.057 -0.208,83.81 0.001,38.157 53.854,38.404 "
   clip-path="url(#SVGID_16_)"
   style="fill:url(#SVGID_17_)" />

</g>
  </g>
</svg>
