<?xml version="1.0" encoding="UTF-8" standalone="no"?>
<!-- Generator: Adobe Illustrator 16.0.0, SVG Export Plug-In . SVG Version: 6.00 Build 0)  -->

<svg
   xmlns:dc="http://purl.org/dc/elements/1.1/"
   xmlns:cc="http://creativecommons.org/ns#"
   xmlns:rdf="http://www.w3.org/1999/02/22-rdf-syntax-ns#"
   xmlns:svg="http://www.w3.org/2000/svg"
   xmlns="http://www.w3.org/2000/svg"
   xmlns:xlink="http://www.w3.org/1999/xlink"
   xmlns:sodipodi="http://sodipodi.sourceforge.net/DTD/sodipodi-0.dtd"
   xmlns:inkscape="http://www.inkscape.org/namespaces/inkscape"
   version="1.1"
   id="Warstwa_1"
   x="0px"
   y="0px"
   width="114"
   height="114"
   viewBox="0 0 114 114"
   enable-background="new 0 0 323.505 83.687"
   xml:space="preserve"
   sodipodi:docname="signet.svg"
   inkscape:version="0.92.4 (f8dce91, 2019-08-02)"><metadata
   id="metadata190"><rdf:RDF><cc:Work
       rdf:about=""><dc:format>image/svg+xml</dc:format><dc:type
         rdf:resource="http://purl.org/dc/dcmitype/StillImage" /><dc:title></dc:title></cc:Work></rdf:RDF></metadata><defs
   id="defs188">
	<defs
   id="defs33">
		<rect
   height="83.686996"
   width="323.505"
   id="SVGID_7_"
   x="0"
   y="0" />
	</defs>
	<clipPath
   id="SVGID_8_">
		<use
   id="use35"
   overflow="visible"
   xlink:href="#SVGID_7_"
   style="overflow:visible"
   x="0"
   y="0"
   width="100%"
   height="100%" />
	</clipPath>
	
	
	
	
	
	
	
	
	
	
	
	
	
	
	
	
	
	
	
	
	
	
	
	
	
	
	
	
	
	
	
	
	
	
	
</defs><sodipodi:namedview
   pagecolor="#ffffff"
   bordercolor="#666666"
   borderopacity="1"
   objecttolerance="10"
   gridtolerance="10"
   guidetolerance="10"
   inkscape:pageopacity="0"
   inkscape:pageshadow="2"
   inkscape:window-width="1879"
   inkscape:window-height="1043"
   id="namedview186"
   showgrid="false"
   inkscape:zoom="1.2580949"
   inkscape:cx="161.7525"
   inkscape:cy="41.843498"
   inkscape:window-x="41"
   inkscape:window-y="0"
   inkscape:window-maximized="1"
   inkscape:current-layer="Warstwa_1" />







<g
   id="g1216"
   transform="translate(0,30.313004)"><path
     clip-path="url(#SVGID_8_)"
     d="m 18.756,20.945 c -0.033,0.408 0.154,0.803 0.49,1.035 0.337,0.233 0.773,0.269 1.143,0.094 1.416,-0.674 2.93,-1.12 4.487,-1.32 0.405,-0.051 0.753,-0.316 0.911,-0.693 0.158,-0.378 0.103,-0.81 -0.145,-1.137 -0.247,-0.325 -0.651,-0.494 -1.056,-0.442 -1.796,0.231 -3.543,0.745 -5.178,1.521 -0.37,0.175 -0.618,0.534 -0.652,0.942"
     id="path82"
     inkscape:connector-curvature="0"
     style="fill:#ffffff" /><path
     clip-path="url(#SVGID_8_)"
     d="m 16.745,22.211 c -0.384,-0.144 -0.814,-0.072 -1.131,0.187 -2.522,2.095 -4.42,4.843 -5.485,7.944 -0.64,1.845 -0.965,3.783 -0.962,5.734 v 9.633 c 0,0.632 0.512,1.146 1.145,1.146 0.632,0 1.145,-0.514 1.145,-1.146 v -9.633 c 0.004,-3.642 1.292,-7.166 3.639,-9.952 0.595,-0.712 1.255,-1.367 1.973,-1.955 0.317,-0.26 0.47,-0.668 0.403,-1.073 -0.067,-0.404 -0.344,-0.742 -0.727,-0.885"
     id="path84"
     inkscape:connector-curvature="0"
     style="fill:#ffffff" /><path
     clip-path="url(#SVGID_8_)"
     d="m 29.45,18.518 c -0.404,-0.058 -0.81,0.105 -1.062,0.427 -0.252,0.322 -0.314,0.754 -0.162,1.134 0.152,0.38 0.495,0.649 0.901,0.707 6.827,1.096 12.136,6.523 13.083,13.372 0.082,0.561 0.562,0.977 1.13,0.979 0.056,0 0.112,-0.004 0.168,-0.013 0.626,-0.091 1.058,-0.673 0.967,-1.299 C 43.379,25.975 37.28,19.761 29.45,18.518"
     id="path86"
     inkscape:connector-curvature="0"
     style="fill:#ffffff" /><path
     clip-path="url(#SVGID_8_)"
     d="M 36.944,61.693 C 36.84,61.613 36.582,61.401 36.19,61.085 L 35.165,60.254 C 35.132,60.22 35.097,60.19 35.061,60.159 33.653,59.014 31.604,57.343 29.336,55.489 26.72,53.348 25.206,50.145 25.212,46.765 V 45.25 c -0.011,-2.283 -0.011,-4.353 -0.011,-5.956 v -3.219 c -0.003,-0.456 0.177,-0.895 0.5,-1.217 0.297,-0.297 0.69,-0.476 1.109,-0.503 0.448,-0.018 0.885,0.15 1.204,0.466 0.396,0.374 0.62,0.893 0.622,1.437 v 1.822 c 0,1.429 0,3.512 -0.011,5.932 v 0.133 c 0.016,4.026 1.821,7.839 4.925,10.404 0.471,0.392 0.933,0.772 1.361,1.119 0.491,0.398 1.213,0.322 1.611,-0.168 0.399,-0.492 0.323,-1.213 -0.169,-1.612 -0.42,-0.343 -0.874,-0.716 -1.344,-1.104 -2.58,-2.132 -4.08,-5.3 -4.095,-8.646 v -0.132 c 0.01,-2.405 0.01,-4.494 0.01,-5.926 v -1.822 c -0.002,-1.173 -0.486,-2.295 -1.338,-3.101 -0.779,-0.75 -1.833,-1.145 -2.913,-1.089 -0.979,0.062 -1.901,0.478 -2.594,1.17 -0.753,0.751 -1.174,1.773 -1.169,2.837 v 3.219 c 0,1.603 0,3.679 0.011,5.956 v 1.512 c -0.005,4.067 1.819,7.921 4.967,10.495 2.213,1.813 4.219,3.449 5.625,4.591 0.034,0.034 0.07,0.067 0.107,0.097 l 1.125,0.916 c 0.98,0.797 0.98,0.797 1.197,0.871 0.545,0.185 1.142,-0.063 1.396,-0.581 0.252,-0.516 0.085,-1.139 -0.394,-1.458"
     id="path88"
     inkscape:connector-curvature="0"
     style="fill:#ffffff" /><path
     clip-path="url(#SVGID_8_)"
     d="m 38.052,4.284 c 1.435,0.518 2.833,1.135 4.183,1.847 0.361,0.191 0.797,0.175 1.144,-0.042 C 43.726,5.872 43.93,5.486 43.915,5.076 43.9,4.668 43.668,4.298 43.306,4.106 41.862,3.344 40.366,2.683 38.83,2.129 38.236,1.914 37.578,2.222 37.364,2.817 c -0.215,0.595 0.092,1.251 0.688,1.467"
     id="path90"
     inkscape:connector-curvature="0"
     style="fill:#ffffff" /><path
     clip-path="url(#SVGID_8_)"
     d="m 5.009,16.251 c 0.313,0 0.612,-0.128 0.829,-0.354 C 13.192,8.18 24.176,5.101 34.47,7.873 34.869,7.995 35.304,7.891 35.604,7.6 35.905,7.31 36.023,6.879 35.912,6.476 35.802,6.073 35.481,5.762 35.074,5.664 23.97,2.668 12.115,5.988 4.181,14.315 c -0.317,0.331 -0.405,0.82 -0.225,1.241 0.18,0.422 0.595,0.695 1.053,0.695"
     id="path92"
     inkscape:connector-curvature="0"
     style="fill:#ffffff" /><path
     clip-path="url(#SVGID_8_)"
     d="M 39.538,7.219 C 39.46,7.194 39.381,7.176 39.3,7.167 39.231,7.146 39.162,7.133 39.092,7.125 h -0.01 C 39.027,7.132 38.974,7.143 38.921,7.159 38.752,7.157 38.588,7.219 38.462,7.332 38.399,7.365 38.34,7.403 38.285,7.447 38.221,7.516 38.165,7.593 38.12,7.676 38.089,7.715 38.059,7.756 38.033,7.799 V 7.808 C 38.011,7.879 37.995,7.952 37.986,8.026 37.963,8.1 37.947,8.177 37.94,8.255 v 0.008 c 0.006,0.049 0.016,0.097 0.03,0.143 0.006,0.097 0.026,0.193 0.057,0.285 0.032,0.066 0.071,0.129 0.115,0.188 0.035,0.063 0.075,0.124 0.121,0.18 0.069,0.065 0.146,0.12 0.229,0.166 0.038,0.032 0.078,0.06 0.121,0.085 4.468,1.979 8.377,5.032 11.379,8.887 0.393,0.482 1.1,0.564 1.592,0.18 0.491,-0.381 0.587,-1.087 0.215,-1.586 -3.234,-4.15 -7.444,-7.436 -12.254,-9.565 z"
     id="path94"
     inkscape:connector-curvature="0"
     style="fill:#ffffff" /><path
     clip-path="url(#SVGID_8_)"
     d="m 19.117,10.315 c -2.873,0.871 -5.575,2.223 -7.994,3.998 -0.51,0.375 -0.619,1.092 -0.245,1.602 0.374,0.509 1.091,0.619 1.601,0.245 2.21,-1.623 4.681,-2.859 7.306,-3.654 0.395,-0.115 0.698,-0.435 0.793,-0.837 0.095,-0.401 -0.033,-0.822 -0.336,-1.103 -0.303,-0.279 -0.732,-0.376 -1.125,-0.251"
     id="path96"
     inkscape:connector-curvature="0"
     style="fill:#ffffff" /><path
     clip-path="url(#SVGID_8_)"
     d="M 9.216,18.15 C 9.099,17.756 8.779,17.455 8.378,17.362 c -0.401,-0.093 -0.82,0.036 -1.1,0.337 -2.704,2.864 -4.735,6.293 -5.946,10.041 -0.196,0.6 0.133,1.246 0.734,1.443 0.601,0.195 1.248,-0.134 1.443,-0.736 1.107,-3.425 2.966,-6.561 5.438,-9.178 0.285,-0.297 0.387,-0.725 0.269,-1.119"
     id="path98"
     inkscape:connector-curvature="0"
     style="fill:#ffffff" /><path
     clip-path="url(#SVGID_8_)"
     d="m 26.919,9.162 c -0.998,10e-4 -1.995,0.058 -2.988,0.167 -0.409,0.042 -0.766,0.299 -0.933,0.675 -0.167,0.377 -0.119,0.814 0.126,1.145 0.244,0.331 0.648,0.506 1.056,0.457 0.91,-0.1 1.824,-0.152 2.739,-0.153 12.548,-0.028 23.098,9.412 24.459,21.887 0.064,0.579 0.554,1.018 1.138,1.019 0.042,0 0.084,-0.002 0.125,-0.007 0.628,-0.069 1.081,-0.632 1.014,-1.26 C 52.169,19.454 40.637,9.132 26.919,9.162"
     id="path100"
     inkscape:connector-curvature="0"
     style="fill:#ffffff" /><path
     clip-path="url(#SVGID_8_)"
     d="m 40.09,36.386 c 0.12,-4.894 -2.488,-9.451 -6.77,-11.827 -4.28,-2.376 -9.526,-2.178 -13.617,0.513 -1.684,1.1 -3.095,2.572 -4.123,4.302 -0.914,1.53 -1.5,3.233 -1.718,5.002 -0.077,0.563 -0.115,1.132 -0.114,1.7 v 15.026 c -0.008,4.062 1.811,7.91 4.953,10.482 l 2.3,1.891 c 2.254,1.853 4.362,3.586 5.955,4.882 0.49,0.4 1.213,0.326 1.613,-0.163 0.399,-0.491 0.326,-1.212 -0.165,-1.612 -1.585,-1.294 -3.692,-3.026 -5.943,-4.876 l -2.301,-1.89 c -2.626,-2.152 -4.139,-5.374 -4.122,-8.771 v -14.97 c 0,-0.469 0.031,-0.938 0.095,-1.403 0.179,-1.459 0.662,-2.863 1.417,-4.124 2.185,-3.675 6.311,-5.741 10.562,-5.288 5.6,0.685 9.78,5.485 9.687,11.125 v 3.355 c 10e-4,0.559 0.039,1.115 0.115,1.667 0.085,0.627 0.662,1.066 1.29,0.981 0.626,-0.086 1.066,-0.663 0.981,-1.29 -0.066,-0.469 -0.096,-0.941 -0.095,-1.415 z"
     id="path102"
     inkscape:connector-curvature="0"
     style="fill:#ffffff" /><path
     clip-path="url(#SVGID_8_)"
     d="m 9.613,8.17 c 1.603,0 2.9,-1.259 2.987,-2.84 C 19.227,2.311 26.667,1.508 33.807,3.065 34.425,3.201 35.037,2.81 35.173,2.192 35.309,1.575 34.918,0.963 34.3,0.827 26.74,-0.821 18.87,0.011 11.838,3.166 11.288,2.555 10.5,2.163 9.613,2.163 c -1.659,0 -3.004,1.345 -3.004,3.004 0,1.658 1.346,3.003 3.004,3.003"
     id="path104"
     inkscape:connector-curvature="0"
     style="fill:#ffffff" /><path
     clip-path="url(#SVGID_8_)"
     d="m 11.457,48.963 c 0,-0.57 -0.391,-1.099 -0.953,-1.188 -0.719,-0.117 -1.337,0.434 -1.337,1.128 v 2.99 c -10e-4,0.439 0.022,0.879 0.066,1.315 0.063,0.611 0.609,1.059 1.22,0.996 l 0.074,-0.008 c 0.618,-0.063 1.048,-0.621 0.986,-1.238 -0.038,-0.377 -0.058,-0.755 -0.056,-1.134 z"
     id="path106"
     inkscape:connector-curvature="0"
     style="fill:#ffffff" /><g
     id="g123">
	<defs
   id="defs111">
		<path
   d="m 25.439,27.618 c -2.002,0.35 -3.813,1.402 -5.11,2.966 -1.167,1.367 -1.856,3.078 -1.963,4.872 -0.028,0.205 -0.041,0.413 -0.037,0.62 v 5.395 c 0,2.143 0,4.733 0.012,7.467 -0.009,4.063 1.81,7.913 4.954,10.484 l 1.234,1.01 c 2.867,2.352 4.709,3.863 5.915,4.852 -0.08,0.27 -0.136,0.548 -0.136,0.845 0,1.658 1.345,3.003 3.005,3.003 1.657,0 3.003,-1.345 3.003,-3.003 0,-1.659 -1.346,-3.003 -3.003,-3.003 -0.519,0 -0.999,0.143 -1.425,0.373 -1.529,-1.253 -3.683,-3.018 -5.908,-4.843 l -1.237,-1.005 c -2.629,-2.157 -4.141,-5.387 -4.116,-8.788 -0.008,-2.665 -0.008,-5.251 -0.008,-7.392 v -5.395 c -0.003,-0.128 0.005,-0.256 0.022,-0.382 0.069,-1.339 0.576,-2.618 1.445,-3.64 0.955,-1.154 2.291,-1.928 3.767,-2.183 0.352,-0.065 0.709,-0.097 1.066,-0.094 3.403,0.017 6.183,2.726 6.287,6.127 -0.001,0.058 10e-4,0.115 0.012,0.172 v 5.841 c 0,2.373 0.626,4.704 1.815,6.757 0.196,0.374 0.579,0.609 0.999,0.614 0.422,0.006 0.812,-0.22 1.017,-0.587 0.204,-0.367 0.191,-0.817 -0.035,-1.173 -0.997,-1.729 -1.517,-3.694 -1.505,-5.692 v -5.761 c 10e-4,-0.087 -0.004,-0.175 -0.013,-0.262 -0.162,-4.628 -3.947,-8.302 -8.577,-8.328 -0.014,0 -0.029,0 -0.043,0 -0.481,0.001 -0.962,0.045 -1.437,0.133"
   id="SVGID_9_"
   inkscape:connector-curvature="0" />
	</defs>
	<clipPath
   id="SVGID_10_">
		<use
   id="use113"
   overflow="visible"
   xlink:href="#SVGID_9_"
   style="overflow:visible"
   x="0"
   y="0"
   width="100%"
   height="100%" />
	</clipPath>
	
		<linearGradient
   gradientTransform="matrix(0.3333,-72.6667,-72.6667,-0.3333,6108.8193,114.3952)"
   y2="83.685097"
   x2="1"
   y1="83.685097"
   x1="0"
   gradientUnits="userSpaceOnUse"
   id="SVGID_11_">
		<stop
   id="stop116"
   style="stop-color:#EF4136"
   offset="0" />
		<stop
   id="stop118"
   style="stop-color:#F7941E"
   offset="1" />
	</linearGradient>
	<polygon
   id="polygon121"
   points="18.134,69.13 18.325,27.399 37.444,27.487 37.252,69.218 "
   clip-path="url(#SVGID_10_)"
   style="fill:url(#SVGID_11_)" />
</g><g
     id="g138">
	<defs
   id="defs126">
		<path
   d="m 41.921,20.998 c -0.468,0.42 -0.511,1.137 -0.095,1.61 2.541,2.858 4.217,6.366 4.852,10.116 -0.986,0.493 -1.668,1.501 -1.668,2.677 0,1.658 1.345,3.003 3.004,3.003 1.658,0 3.002,-1.345 3.002,-3.003 0,-1.325 -0.862,-2.436 -2.051,-2.835 -0.676,-4.259 -2.552,-8.248 -5.434,-11.486 -0.226,-0.248 -0.536,-0.374 -0.847,-0.374 -0.271,0 -0.544,0.096 -0.763,0.292"
   id="SVGID_12_"
   inkscape:connector-curvature="0" />
	</defs>
	<clipPath
   id="SVGID_13_">
		<use
   id="use128"
   overflow="visible"
   xlink:href="#SVGID_12_"
   style="overflow:visible"
   x="0"
   y="0"
   width="100%"
   height="100%" />
	</clipPath>
	
		<linearGradient
   gradientTransform="matrix(0.3333,-72.6667,-72.6667,-0.3333,6127.2568,114.4577)"
   y2="83.686996"
   x2="1"
   y1="83.686996"
   x1="0"
   gradientUnits="userSpaceOnUse"
   id="SVGID_14_">
		<stop
   id="stop131"
   style="stop-color:#EF4136"
   offset="0" />
		<stop
   id="stop133"
   style="stop-color:#F7941E"
   offset="1" />
	</linearGradient>
	<polygon
   id="polygon136"
   points="41.329,38.404 41.41,20.662 51.097,20.707 51.016,38.448 "
   clip-path="url(#SVGID_13_)"
   style="fill:url(#SVGID_14_)" />
</g><g
     id="g153">
	<defs
   id="defs141">
		<path
   d="m 6.592,26.859 c -1.166,2.536 -1.838,5.271 -1.982,8.058 -0.014,0.379 -0.025,0.769 -0.025,1.159 0,2.562 0,3.935 0.014,4.079 0.037,0.604 0.54,1.074 1.145,1.068 H 5.801 C 6.428,41.19 6.913,40.66 6.89,40.032 6.876,39.73 6.876,36.265 6.876,36.076 c 0,-0.364 0.012,-0.731 0.022,-1.059 0.13,-2.493 0.735,-4.94 1.778,-7.208 3.312,-7.354 10.723,-11.995 18.785,-11.764 0.628,0.006 1.148,-0.486 1.176,-1.114 0.016,-0.633 -0.482,-1.159 -1.114,-1.176 -0.212,-0.006 -0.424,-0.009 -0.635,-0.009 -8.736,0 -16.689,5.115 -20.296,13.113"
   id="SVGID_15_"
   inkscape:connector-curvature="0" />
	</defs>
	<clipPath
   id="SVGID_16_">
		<use
   id="use143"
   overflow="visible"
   xlink:href="#SVGID_15_"
   style="overflow:visible"
   x="0"
   y="0"
   width="100%"
   height="100%" />
	</clipPath>
	
		<linearGradient
   gradientTransform="matrix(0.3333,-72.6667,-72.6667,-0.3333,6097.5693,114.3327)"
   y2="83.685097"
   x2="1"
   y1="83.685097"
   x1="0"
   gradientUnits="userSpaceOnUse"
   id="SVGID_17_">
		<stop
   id="stop146"
   style="stop-color:#EF4136"
   offset="0" />
		<stop
   id="stop148"
   style="stop-color:#F7941E"
   offset="1" />
	</linearGradient>
	<polygon
   id="polygon151"
   points="4.459,41.229 4.585,13.636 28.779,13.747 28.652,41.339 "
   clip-path="url(#SVGID_16_)"
   style="fill:url(#SVGID_17_)" />
</g><g
     id="g168">
	<defs
   id="defs156">
		<path
   d="m 31.147,15.27 c -0.15,0.604 0.208,1.217 0.809,1.381 l 0.406,0.099 c 2.184,0.581 4.247,1.541 6.099,2.834 0.52,0.363 1.234,0.235 1.595,-0.284 0.363,-0.52 0.235,-1.233 -0.284,-1.596 -2.077,-1.449 -4.391,-2.522 -6.839,-3.171 L 32.51,14.43 c -0.085,-0.019 -0.17,-0.028 -0.253,-0.028 -0.514,0 -0.98,0.348 -1.11,0.868"
   id="SVGID_18_"
   inkscape:connector-curvature="0" />
	</defs>
	<clipPath
   id="SVGID_19_">
		<use
   id="use158"
   overflow="visible"
   xlink:href="#SVGID_18_"
   style="overflow:visible"
   x="0"
   y="0"
   width="100%"
   height="100%" />
	</clipPath>
	
		<linearGradient
   gradientTransform="matrix(0.3333,-72.6667,-72.6667,-0.3333,6116.6318,114.3952)"
   y2="83.685097"
   x2="1"
   y1="83.685097"
   x1="0"
   gradientUnits="userSpaceOnUse"
   id="SVGID_20_">
		<stop
   id="stop161"
   style="stop-color:#EF4136"
   offset="0" />
		<stop
   id="stop163"
   style="stop-color:#F7941E"
   offset="1" />
	</linearGradient>
	<polygon
   id="polygon166"
   points="30.972,19.947 30.997,14.359 40.444,14.402 40.419,19.99 "
   clip-path="url(#SVGID_19_)"
   style="fill:url(#SVGID_20_)" />
</g><g
     id="g183">
	<defs
   id="defs171">
		<path
   d="m 52.429,38.404 c -0.553,0 -1.004,0.404 -1.092,0.943 -2.203,13.558 -17.286,32.797 -23.108,39.809 -0.756,0.91 -2.151,0.91 -2.907,0 C 19.499,72.144 4.417,52.905 2.214,39.347 2.126,38.808 1.674,38.404 1.128,38.404 H 1.1 c -0.611,0 -1.091,0.494 -1.1,1.082 v 0.031 c 0.001,0.054 0.005,0.109 0.014,0.164 2.836,17.428 24.929,42.503 25.932,43.633 0.441,0.497 1.218,0.497 1.659,0 1.002,-1.13 23.099,-26.21 25.932,-43.639 0.108,-0.667 -0.406,-1.271 -1.081,-1.271 z"
   id="SVGID_21_"
   inkscape:connector-curvature="0" />
	</defs>
	<clipPath
   id="SVGID_22_">
		<use
   id="use173"
   overflow="visible"
   xlink:href="#SVGID_21_"
   style="overflow:visible"
   x="0"
   y="0"
   width="100%"
   height="100%" />
	</clipPath>
	
		<linearGradient
   gradientTransform="matrix(0.3333,-72.6667,-72.6667,-0.3333,6107.8193,114.3952)"
   y2="83.684097"
   x2="1"
   y1="83.684097"
   x1="0"
   gradientUnits="userSpaceOnUse"
   id="SVGID_23_">
		<stop
   id="stop176"
   style="stop-color:#EF4136"
   offset="0" />
		<stop
   id="stop178"
   style="stop-color:#F7941E"
   offset="1" />
	</linearGradient>
	<polygon
   id="polygon181"
   points="-0.208,83.81 0.001,38.158 53.854,38.405 53.644,84.057 "
   clip-path="url(#SVGID_22_)"
   style="fill:url(#SVGID_23_)" />
</g></g>
</svg>