<?xml version="1.0" encoding="UTF-8" standalone="no"?>
<svg
   xmlns:dc="http://purl.org/dc/elements/1.1/"
   xmlns:cc="http://creativecommons.org/ns#"
   xmlns:rdf="http://www.w3.org/1999/02/22-rdf-syntax-ns#"
   xmlns:svg="http://www.w3.org/2000/svg"
   xmlns="http://www.w3.org/2000/svg"
   xml:space="preserve"
   enable-background="new 0 0 471 709"
   viewBox="0 0 471 709"
   height="709px"
   width="471px"
   y="0px"
   x="0px"
   id="Warstwa_1"
   version="1.1"><metadata
   id="metadata43"><rdf:RDF><cc:Work
       rdf:about=""><dc:format>image/svg+xml</dc:format><dc:type
         rdf:resource="http://purl.org/dc/dcmitype/StillImage" /><dc:title></dc:title></cc:Work></rdf:RDF></metadata><defs
   id="defs41" />
<path
   style="fill:#f5f5f5;fill-opacity:1"
   id="path2"
   d="M164.925,177.312c-0.289,3.456,1.348,6.794,4.3,8.765c2.949,1.972,6.77,2.274,10.013,0.792  c12.419-5.706,25.702-9.475,39.348-11.173c3.554-0.435,6.604-2.672,7.993-5.869c1.385-3.193,0.901-6.857-1.274-9.619  c-2.171-2.758-5.703-4.188-9.263-3.747c-15.743,1.957-31.063,6.306-45.401,12.876C167.399,170.822,165.22,173.857,164.925,177.312z"
   fill="none" />
<path
   style="fill:#f5f5f5;fill-opacity:1"
   id="path4"
   d="M147.291,188.026c-3.361-1.22-7.137-0.612-9.912,1.586c-22.122,17.73-38.763,40.993-48.103,67.25  c-5.603,15.612-8.454,32.021-8.436,48.542v81.542c0,5.35,4.493,9.695,10.044,9.695c5.542,0,10.04-4.345,10.04-9.695v-81.542  c0.032-30.834,11.329-60.668,31.902-84.254c5.224-6.023,11.015-11.564,17.307-16.55c2.773-2.197,4.121-5.657,3.532-9.076  C153.082,192.103,150.652,189.248,147.291,188.026z"
   fill="none" />
<path
   style="fill:#f5f5f5;fill-opacity:1"
   id="path6"
   d="M258.701,156.771c-3.547-0.488-7.102,0.889-9.318,3.615c-2.212,2.726-2.755,6.381-1.416,9.596  c1.329,3.219,4.341,5.497,7.897,5.985c59.861,9.28,106.419,55.216,114.717,113.197c0.723,4.756,4.935,8.278,9.912,8.292  c0.492,0,0.984-0.037,1.467-0.107c5.487-0.777,9.285-5.698,8.486-10.999C380.829,219.891,327.356,167.295,258.701,156.771z"
   fill="none" />
<path
   style="fill:#f5f5f5;fill-opacity:1"
   id="path8"
   d="M324.408,522.263c-0.907-0.675-3.179-2.474-6.605-5.156l-8.997-7.033c-0.284-0.285-0.588-0.548-0.907-0.8  c-12.349-9.694-30.313-23.845-50.205-39.528c-22.933-18.126-36.21-45.242-36.16-73.852v-12.828  c-0.097-19.325-0.097-36.841-0.097-50.417v-27.246c-0.024-3.863,1.555-7.574,4.388-10.305c2.598-2.508,6.053-4.023,9.723-4.254  c3.933-0.155,7.76,1.274,10.565,3.947c3.463,3.162,5.431,7.562,5.451,12.167v15.418c0,12.103,0,29.732-0.102,50.22v1.123  c0.147,34.088,15.968,66.356,43.188,88.079c4.135,3.313,8.183,6.541,11.931,9.471c4.304,3.371,10.633,2.73,14.129-1.427  c3.495-4.164,2.833-10.269-1.477-13.644c-3.684-2.904-7.67-6.056-11.783-9.337c-22.624-18.049-35.783-44.861-35.92-73.2v-1.115  c0.101-20.364,0.101-38.044,0.101-50.17v-15.418c-0.028-9.937-4.269-19.428-11.742-26.256c-6.826-6.349-16.075-9.689-25.544-9.213  c-8.579,0.52-16.66,4.041-22.74,9.902c-6.604,6.359-10.298,15.008-10.257,24.013v27.246c0,13.576,0,31.149,0.101,50.417v12.801  c-0.05,34.426,15.946,67.054,43.561,88.847c19.4,15.341,36.992,29.191,49.32,38.858c0.293,0.293,0.607,0.568,0.933,0.825  l9.861,7.758c8.597,6.744,8.597,6.744,10.505,7.367c4.773,1.558,10.008-0.541,12.229-4.911  C330.078,530.241,328.602,524.96,324.408,522.263z"
   fill="none" />
<path
   style="fill:#f5f5f5;fill-opacity:1"
   id="path10"
   d="M334.117,36.269c12.584,4.384,24.842,9.608,36.675,15.639c3.174,1.615,6.997,1.484,10.041-0.356  c3.04-1.842,4.829-5.11,4.695-8.574c-0.133-3.459-2.161-6.594-5.334-8.214c-12.667-6.452-25.78-12.043-39.251-16.737  c-5.216-1.821-10.976,0.792-12.861,5.826C326.197,28.889,328.896,34.444,334.117,36.269z"
   fill="none" />
<path
   style="fill:#f5f5f5;fill-opacity:1"
   id="path12"
   d="M44.385,137.575c2.741-0.002,5.367-1.087,7.262-3.001c64.488-65.325,160.802-91.387,251.065-67.927  c3.505,1.039,7.313,0.159,9.943-2.304c2.637-2.46,3.667-6.105,2.705-9.521c-0.965-3.41-3.786-6.045-7.35-6.869  c-97.373-25.364-201.315,2.738-270.888,73.23c-2.779,2.806-3.557,6.94-1.974,10.51C36.727,135.262,40.366,137.575,44.385,137.575z"
   fill="none" />
<path
   style="fill:#f5f5f5;fill-opacity:1"
   id="path14"
   d="M347.151,61.117c-0.681-0.218-1.38-0.364-2.088-0.444c-0.598-0.174-1.21-0.29-1.826-0.352h-0.083  c-0.479,0.057-0.953,0.151-1.417,0.285c-1.481-0.012-2.917,0.516-4.02,1.471c-0.548,0.271-1.072,0.599-1.556,0.968  c-0.56,0.586-1.048,1.238-1.443,1.94c-0.277,0.328-0.534,0.675-0.765,1.039v0.077c-0.193,0.603-0.33,1.22-0.413,1.842  c-0.203,0.634-0.337,1.283-0.4,1.94v0.07c0.055,0.413,0.142,0.819,0.261,1.218c0.06,0.816,0.231,1.625,0.5,2.407  c0.282,0.558,0.618,1.091,1.009,1.59c0.303,0.537,0.657,1.047,1.057,1.523c0.608,0.55,1.283,1.02,2.01,1.406  c0.336,0.269,0.69,0.51,1.067,0.725c39.172,16.749,73.452,42.592,99.774,75.229c3.444,4.084,9.644,4.77,13.954,1.526  c4.31-3.231,5.151-9.203,1.891-13.43c-28.355-35.133-65.27-62.947-107.454-80.966L347.151,61.117z"
   fill="none" />
<path
   style="fill:#f5f5f5;fill-opacity:1"
   id="path16"
   d="M168.089,87.324c-25.187,7.368-48.886,18.813-70.099,33.845c-4.466,3.175-5.427,9.24-2.147,13.557  c3.284,4.314,9.566,5.245,14.042,2.073c19.381-13.739,41.049-24.195,64.061-30.927c3.471-0.977,6.13-3.686,6.958-7.082  c0.827-3.397-0.294-6.962-2.948-9.336C175.306,87.084,171.534,86.267,168.089,87.324z"
   fill="none" />
<path
   style="fill:#f5f5f5;fill-opacity:1"
   id="path18"
   d="M81.272,153.655c-1.03-3.336-3.836-5.884-7.346-6.674c-3.518-0.786-7.197,0.302-9.645,2.859  c-23.709,24.236-41.518,53.272-52.143,84.994c-1.715,5.085,1.169,10.554,6.435,12.215c5.275,1.652,10.942-1.132,12.653-6.225  c9.714-29,26.005-55.544,47.686-77.698C81.405,160.608,82.307,156.99,81.272,153.655z"
   fill="none" />
<path
   style="fill:#f5f5f5;fill-opacity:1"
   id="path20"
   d="M236.5,77.561c-8.753,0.012-17.496,0.488-26.202,1.416c-3.588,0.351-6.709,2.531-8.178,5.715  c-1.463,3.189-1.044,6.888,1.104,9.689c2.142,2.806,5.68,4.284,9.262,3.873c7.977-0.854,15.992-1.289,24.014-1.298  c110.03-0.235,202.537,79.674,214.473,185.279c0.565,4.908,4.856,8.625,9.972,8.629c0.373,0,0.736-0.019,1.103-0.059  c5.501-0.586,9.475-5.351,8.891-10.664C457.909,164.688,356.788,77.317,236.5,77.561z"
   fill="none" />
<path
   style="fill:#f5f5f5;fill-opacity:1"
   id="path22"
   d="M351.99,308.024c1.053-41.433-21.815-80.007-59.355-100.121c-37.534-20.111-83.533-18.441-119.404,4.337  c-14.772,9.316-27.144,21.775-36.155,36.424c-8.016,12.949-13.149,27.371-15.057,42.344c-0.676,4.768-1.012,9.583-1.008,14.395  v127.206c-0.064,34.375,15.882,66.959,43.431,88.734l20.168,16.012c19.765,15.674,38.254,30.35,52.222,41.317  c4.295,3.389,10.628,2.768,14.129-1.385c3.508-4.148,2.866-10.257-1.435-13.642c-13.9-10.953-32.375-25.62-52.112-41.276  l-20.176-16.004c-23.025-18.218-36.302-45.496-36.142-74.238V305.403c-0.005-3.974,0.271-7.947,0.824-11.881  c1.571-12.35,5.808-24.24,12.431-34.911c19.151-31.113,55.334-48.6,92.617-44.764c49.094,5.795,85.747,46.428,84.938,94.176v28.404  c0.003,4.723,0.339,9.436,1.006,14.111c0.75,5.308,5.81,9.023,11.311,8.3c5.492-0.724,9.342-5.613,8.597-10.918  c-0.566-3.97-0.837-7.965-0.828-11.977V308.024z"
   fill="none" />
<path
   style="fill:#f5f5f5;fill-opacity:1"
   id="path24"
   d="M84.754,69.17c14.055,0,25.435-10.66,26.193-24.047c58.114-25.554,123.344-32.349,185.96-19.174  c5.419,1.156,10.778-2.154,11.968-7.384c1.196-5.23-2.235-10.409-7.649-11.559C234.938-6.943,165.915,0.098,104.265,26.803  c-4.821-5.171-11.737-8.486-19.511-8.486c-14.544,0-26.336,11.383-26.336,25.426C58.418,57.785,70.209,69.17,84.754,69.17z"
   fill="none" />
<path
   style="fill:#f5f5f5;fill-opacity:1"
   id="path26"
   d="M100.924,414.501c0-4.831-3.424-9.3-8.362-10.07c-6.295-0.981-11.723,3.677-11.723,9.558v25.308  c-0.003,3.727,0.2,7.441,0.589,11.136c0.545,5.174,5.333,8.962,10.691,8.435l0.648-0.064c5.42-0.534,9.188-5.256,8.639-10.488  c-0.334-3.184-0.503-6.386-0.483-9.598V414.501z"
   fill="none" />
<path
   style="fill:#f5f5f5;fill-opacity:1"
   id="path28"
   d="M307.651,412.057c1.712,3.157,5.079,5.152,8.763,5.199c3.688,0.045,7.11-1.856,8.908-4.969  c1.794-3.112,1.679-6.921-0.295-9.928c-8.751-14.645-13.311-31.278-13.209-48.187v-48.769c0.01-0.741-0.027-1.479-0.109-2.216  c-1.421-39.173-34.607-70.286-75.209-70.5c-4.351-0.021-8.692,0.352-12.975,1.115c-17.556,2.962-33.438,11.864-44.808,25.111  c-10.233,11.57-16.277,26.052-17.215,41.237c-0.249,1.74-0.354,3.5-0.322,5.253v45.665c0,18.144,0,40.074,0.102,63.218  c-0.079,34.386,15.876,66.982,43.44,88.752l10.818,8.548c25.142,19.909,41.296,32.7,51.871,41.067  c-0.697,2.283-1.187,4.649-1.187,7.149c0,14.042,11.792,25.426,26.336,25.426c14.545,0,26.336-11.384,26.336-25.426  c0-14.042-11.791-25.427-26.336-25.427c-4.546,0-8.756,1.212-12.488,3.17c-13.416-10.607-32.293-25.551-51.797-40.995l-10.854-8.512  c-23.048-18.263-36.312-45.598-36.097-74.384c-0.063-22.562-0.063-44.462-0.063-62.587v-45.665  c-0.029-1.083,0.036-2.162,0.193-3.236c0.606-11.332,5.059-22.157,12.665-30.811c8.377-9.77,20.096-16.319,33.042-18.482  c3.077-0.549,6.204-0.817,9.337-0.793c29.845,0.142,54.218,23.072,55.133,51.872c-0.024,0.484,0.009,0.972,0.101,1.451v49.448  C291.729,374.939,297.22,394.673,307.651,412.057z"
   fill="none" />
<path
   style="fill:#f5f5f5;fill-opacity:1"
   id="path30"
   d="M409.753,277.025c-8.634,4.174-14.619,12.703-14.619,22.66c0,14.042,11.791,25.425,26.336,25.425  s26.336-11.383,26.336-25.425c0-11.208-7.562-20.616-17.991-24c-5.94-36.046-22.383-69.822-47.646-97.232  c-3.715-3.934-10.011-4.24-14.12-0.692c-4.101,3.553-4.479,9.631-0.846,13.628C389.5,215.58,404.196,245.283,409.753,277.025z"
   fill="none" />
<path
   style="fill:#f5f5f5;fill-opacity:1"
   id="path32"
   d="M50.833,348.977h0.492c5.497-0.279,9.755-4.768,9.557-10.083c-0.127-2.557-0.127-31.892-0.127-33.49  c0-3.091,0.101-6.185,0.192-8.969c1.146-21.105,6.439-41.815,15.592-61.019c29.045-62.255,94.02-101.538,164.712-99.585  c5.51,0.058,10.072-4.116,10.312-9.432c0.147-5.354-4.227-9.803-9.77-9.946c-78.759-2.162-151.14,41.584-183.532,110.924  c-10.221,21.465-16.117,44.618-17.382,68.214c-0.11,3.209-0.212,6.51-0.212,9.813c0,21.692,0,33.308,0.121,34.529  C41.109,345.047,45.521,349.025,50.833,348.977z"
   fill="none" />
<path
   style="fill:#f5f5f5;fill-opacity:1"
   id="path34"
   d="M280.667,140.969l3.565,0.834c19.144,4.919,37.241,13.042,53.477,23.995c4.558,3.065,10.817,1.981,13.99-2.412  c3.175-4.4,2.057-10.442-2.5-13.505c-18.209-12.269-38.502-21.355-59.966-26.847l-3.703-0.874  c-5.326-1.156-10.629,2.003-11.949,7.114C272.26,134.384,275.407,139.573,280.667,140.969z"
   fill="none" />
<path
   style="fill:#f5f5f5;fill-opacity:1"
   id="path36"
   d="M460.421,325.11h-0.24c-4.842,0-8.8,3.418-9.568,7.983c-19.319,114.775-151.567,277.636-202.62,336.998  c-6.631,7.71-18.867,7.71-25.499,0C171.441,610.729,39.189,447.868,19.871,333.093c-0.769-4.564-4.729-7.983-9.518-7.983h-0.245  c-5.948,0-10.474,5.141-9.519,10.808C25.461,483.456,219.181,695.73,227.97,705.293c3.868,4.208,10.677,4.208,14.547,0  c8.789-9.564,202.546-221.882,227.386-369.421C470.853,330.229,466.343,325.11,460.421,325.11z"
   fill="none" />
</svg>