<?xml version="1.0" encoding="UTF-8" standalone="no"?>
<svg
   xmlns:dc="http://purl.org/dc/elements/1.1/"
   xmlns:cc="http://creativecommons.org/ns#"
   xmlns:rdf="http://www.w3.org/1999/02/22-rdf-syntax-ns#"
   xmlns:svg="http://www.w3.org/2000/svg"
   xmlns="http://www.w3.org/2000/svg"
   xmlns:sodipodi="http://sodipodi.sourceforge.net/DTD/sodipodi-0.dtd"
   xmlns:inkscape="http://www.inkscape.org/namespaces/inkscape"
   xml:space="preserve"
   enable-background="new 0 0 534 832"
   viewBox="0 0 534 832"
   height="832px"
   width="534px"
   y="0px"
   x="0px"
   id="Warstwa_1"
   version="1.1"
   sodipodi:docname="signet.svg"
   inkscape:version="0.92.4 (f8dce91, 2019-08-02)"><sodipodi:namedview
   pagecolor="#ffffff"
   bordercolor="#666666"
   borderopacity="1"
   objecttolerance="10"
   gridtolerance="10"
   guidetolerance="10"
   inkscape:pageopacity="0"
   inkscape:pageshadow="2"
   inkscape:window-width="1879"
   inkscape:window-height="1043"
   id="namedview23"
   showgrid="false"
   inkscape:zoom="0.28365385"
   inkscape:cx="267"
   inkscape:cy="416"
   inkscape:window-x="41"
   inkscape:window-y="0"
   inkscape:window-maximized="1"
   inkscape:current-layer="Warstwa_1" /><metadata
   id="metadata43"><rdf:RDF><cc:Work
       rdf:about=""><dc:format>image/svg+xml</dc:format><dc:type
         rdf:resource="http://purl.org/dc/dcmitype/StillImage" /><dc:title /></cc:Work></rdf:RDF></metadata><defs
   id="defs41" />
<path
   id="path2"
   d="M186.963,208.25c-0.327,4.058,1.525,7.977,4.864,10.292c3.336,2.315,7.659,2.669,11.327,0.929  c14.048-6.699,29.073-11.125,44.509-13.118c4.02-0.511,7.471-3.138,9.042-6.892c1.566-3.749,1.02-8.05-1.441-11.293  c-2.456-3.238-6.451-4.917-10.478-4.4c-17.808,2.298-35.138,7.404-51.356,15.119C189.763,200.629,187.297,204.193,186.963,208.25z"
   fill="none"
   style="fill:#ffffff" />
<path
   id="path4"
   d="M167.016,220.83c-3.802-1.434-8.073-0.719-11.212,1.861c-25.024,20.817-43.848,48.131-54.413,78.959  c-6.337,18.33-9.563,37.596-9.542,56.994v95.741c0,6.282,5.083,11.383,11.362,11.383c6.27,0,11.356-5.101,11.356-11.383v-95.741  c0.037-36.203,12.815-71.232,36.086-98.926c5.91-7.07,12.46-13.577,19.578-19.432c3.138-2.58,4.661-6.641,3.996-10.656  C173.566,225.616,170.819,222.263,167.016,220.83z"
   fill="none"
   style="fill:#ffffff" />
<path
   id="path6"
   d="M293.041,184.131c-4.012-0.573-8.033,1.043-10.541,4.244c-2.502,3.2-3.116,7.492-1.602,11.267  c1.503,3.779,4.911,6.455,8.933,7.027c67.713,10.896,120.379,64.832,129.765,132.908c0.817,5.584,5.583,9.719,11.212,9.735  c0.557,0,1.113-0.042,1.66-0.125c6.207-0.912,10.503-6.69,9.599-12.914C431.188,258.243,370.702,196.488,293.041,184.131z"
   fill="none"
   style="fill:#ffffff" />
<path
   id="path8"
   d="M367.367,613.265c-1.025-0.792-3.595-2.904-7.472-6.053l-10.177-8.257c-0.321-0.335-0.666-0.644-1.025-0.939  c-13.969-11.382-34.29-27.998-56.791-46.412c-25.942-21.283-40.961-53.119-40.903-86.711V449.83  c-0.11-22.689-0.11-43.256-0.11-59.195v-31.99c-0.026-4.536,1.759-8.893,4.964-12.1c2.939-2.945,6.847-4.724,10.998-4.996  c4.449-0.182,8.778,1.497,11.951,4.635c3.918,3.712,6.144,8.878,6.166,14.285v18.103c0,14.211,0,34.91-0.115,58.965v1.319  c0.167,40.023,18.063,77.911,48.853,103.416c4.678,3.889,9.256,7.679,13.496,11.121c4.869,3.958,12.028,3.205,15.983-1.675  c3.954-4.889,3.205-12.057-1.67-16.02c-4.167-3.41-8.677-7.111-13.329-10.963c-25.591-21.192-40.477-52.672-40.632-85.945v-1.31  c0.114-23.909,0.114-44.668,0.114-58.906v-18.103c-0.032-11.667-4.829-22.81-13.282-30.827  c-7.722-7.455-18.184-11.376-28.896-10.818c-9.704,0.61-18.846,4.744-25.723,11.626c-7.471,7.466-11.648,17.621-11.602,28.194v31.99  c0,15.939,0,36.574,0.114,59.195v15.031c-0.057,40.421,18.038,78.729,49.275,104.318c21.944,18.012,41.844,34.274,55.789,45.624  c0.333,0.344,0.687,0.667,1.056,0.968l11.155,9.109c9.724,7.919,9.724,7.919,11.882,8.649c5.4,1.83,11.322-0.635,13.834-5.767  C373.78,622.632,372.11,616.433,367.367,613.265z"
   fill="none"
   style="fill:#ffffff" />
<path
   id="path10"
   d="M378.349,42.647c14.235,5.146,28.101,11.281,41.486,18.362c3.591,1.897,7.914,1.742,11.358-0.417  c3.439-2.162,5.462-5.999,5.312-10.066c-0.151-4.061-2.445-7.742-6.034-9.645c-14.329-7.576-29.161-14.139-44.399-19.651  c-5.901-2.138-12.416,0.929-14.548,6.841C369.39,33.981,372.443,40.504,378.349,42.647z"
   fill="none"
   style="fill:#ffffff" />
<path
   id="path12"
   d="M50.613,161.593c3.1-0.003,6.07-1.276,8.214-3.524c72.947-76.701,181.895-107.3,283.998-79.755  c3.966,1.22,8.272,0.187,11.248-2.706c2.982-2.888,4.148-7.168,3.06-11.178c-1.092-4.004-4.282-7.097-8.314-8.065  C238.673,26.584,121.097,59.58,42.398,142.346c-3.143,3.295-4.023,8.149-2.233,12.341C41.949,158.877,46.066,161.593,50.613,161.593  z"
   fill="none"
   style="fill:#ffffff" />
<path
   id="path14"
   d="M393.093,71.823c-0.77-0.257-1.562-0.429-2.362-0.522c-0.676-0.203-1.369-0.34-2.065-0.412h-0.093  c-0.542,0.068-1.078,0.177-1.603,0.334c-1.675-0.015-3.299,0.605-4.546,1.727c-0.62,0.318-1.213,0.704-1.76,1.137  c-0.634,0.687-1.186,1.454-1.633,2.277c-0.313,0.386-0.604,0.793-0.865,1.22v0.09c-0.218,0.708-0.374,1.433-0.467,2.164  c-0.229,0.743-0.381,1.506-0.452,2.277v0.082c0.063,0.485,0.161,0.961,0.295,1.429c0.067,0.958,0.261,1.908,0.566,2.827  c0.318,0.655,0.698,1.281,1.141,1.866c0.342,0.631,0.743,1.23,1.196,1.789c0.688,0.645,1.451,1.198,2.273,1.651  c0.379,0.315,0.781,0.6,1.207,0.851c44.311,19.665,83.086,50.009,112.862,88.328c3.896,4.796,10.909,5.6,15.784,1.792  c4.875-3.794,5.828-10.806,2.139-15.769c-32.074-41.25-73.831-73.908-121.549-95.066L393.093,71.823z"
   fill="none"
   style="fill:#ffffff" />
<path
   id="path16"
   d="M190.543,102.592c-28.491,8.651-55.299,22.09-79.294,39.738c-5.052,3.728-6.139,10.85-2.429,15.917  c3.714,5.067,10.821,6.159,15.884,2.436c21.923-16.132,46.434-28.409,72.463-36.313c3.927-1.147,6.934-4.328,7.871-8.315  c0.937-3.989-0.332-8.175-3.334-10.962C198.707,102.311,194.439,101.351,190.543,102.592z"
   fill="none"
   style="fill:#ffffff" />
<path
   id="path18"
   d="M92.338,180.473c-1.166-3.917-4.339-6.909-8.31-7.836c-3.979-0.923-8.141,0.355-10.91,3.356  c-26.819,28.457-46.964,62.548-58.983,99.793c-1.94,5.971,1.322,12.392,7.28,14.343c5.967,1.939,12.377-1.33,14.313-7.309  c10.988-34.05,29.416-65.217,53.941-91.228C92.489,188.637,93.508,184.389,92.338,180.473z"
   fill="none"
   style="fill:#ffffff" />
<path
   id="path20"
   d="M267.928,91.129c-9.901,0.014-19.791,0.572-29.64,1.662c-4.059,0.412-7.59,2.971-9.251,6.71  c-1.655,3.744-1.181,8.088,1.25,11.376c2.423,3.295,6.424,5.03,10.478,4.547c9.023-1.002,18.09-1.513,27.164-1.524  c124.463-0.276,229.104,93.547,242.605,217.54c0.64,5.763,5.494,10.126,11.28,10.131c0.421,0,0.833-0.022,1.248-0.068  c6.223-0.688,10.718-6.283,10.058-12.521C518.38,193.428,403.994,90.842,267.928,91.129z"
   fill="none"
   style="fill:#ffffff" />
<path
   id="path22"
   d="M398.567,361.722c1.191-48.647-24.677-93.938-67.142-117.555c-42.458-23.613-94.49-21.652-135.066,5.093  c-16.71,10.938-30.705,25.567-40.898,42.767c-9.067,15.203-14.875,32.136-17.033,49.717c-0.765,5.598-1.145,11.251-1.14,16.901V508  c-0.072,40.36,17.965,78.618,49.127,104.185l22.814,18.799c22.356,18.404,43.271,35.635,59.072,48.512  c4.858,3.979,12.022,3.249,15.983-1.626c3.968-4.87,3.241-12.044-1.624-16.017c-15.723-12.861-36.622-30.081-58.947-48.464  l-22.823-18.791c-26.045-21.391-41.064-53.417-40.883-87.165v-148.79c-0.006-4.666,0.308-9.332,0.933-13.951  c1.777-14.5,6.57-28.46,14.062-40.989c21.664-36.532,62.593-57.063,104.766-52.558c55.534,6.803,96.994,54.512,96.079,110.574v33.35  c0.004,5.546,0.384,11.08,1.138,16.568c0.849,6.232,6.572,10.595,12.794,9.746c6.212-0.85,10.567-6.59,9.724-12.819  c-0.641-4.662-0.947-9.352-0.936-14.063V361.722z"
   fill="none"
   style="fill:#ffffff" />
<path
   id="path24"
   d="M96.276,81.277c15.899,0,28.771-12.516,29.628-28.234c65.738-30.003,139.524-37.981,210.354-22.512  c6.13,1.357,12.191-2.529,13.538-8.67c1.353-6.14-2.528-12.22-8.652-13.571C266.161-8.089,188.083,0.178,118.347,31.533  c-5.454-6.072-13.276-9.964-22.07-9.964c-16.452,0-29.791,13.366-29.791,29.854S79.824,81.277,96.276,81.277z"
   fill="none"
   style="fill:#ffffff" />
<path
   id="path26"
   d="M114.567,486.74c0-5.672-3.873-10.92-9.458-11.824c-7.121-1.151-13.261,4.318-13.261,11.223v29.715  c-0.004,4.375,0.226,8.737,0.667,13.075c0.617,6.075,6.032,10.522,12.093,9.902l0.733-0.075c6.131-0.626,10.393-6.171,9.772-12.314  c-0.378-3.738-0.568-7.498-0.547-11.268V486.74z"
   fill="none"
   style="fill:#ffffff" />
<path
   id="path28"
   d="M348.412,483.869c1.936,3.708,5.745,6.049,9.913,6.105c4.172,0.053,8.043-2.179,10.076-5.833  c2.029-3.655,1.899-8.126-0.333-11.657c-9.9-17.195-15.057-36.725-14.943-56.578v-57.26c0.011-0.87-0.031-1.736-0.123-2.601  c-1.608-45.994-39.146-82.524-85.075-82.776c-4.922-0.026-9.833,0.412-14.677,1.309c-19.858,3.478-37.823,13.931-50.685,29.484  c-11.575,13.584-18.412,30.587-19.474,48.417c-0.281,2.044-0.4,4.109-0.364,6.168v53.617c0,21.303,0,47.052,0.115,74.226  c-0.089,40.373,17.959,78.646,49.139,104.206l12.237,10.037c28.44,23.375,46.713,38.394,58.674,48.218  c-0.788,2.68-1.342,5.459-1.342,8.394c0,16.488,13.338,29.854,29.791,29.854c16.454,0,29.791-13.366,29.791-29.854  c0-16.487-13.337-29.854-29.791-29.854c-5.142,0-9.905,1.424-14.126,3.722c-15.176-12.454-36.529-30-58.591-48.132l-12.277-9.995  c-26.071-21.443-41.075-53.538-40.832-87.336c-0.071-26.49-0.071-52.204-0.071-73.485v-53.617c-0.033-1.271,0.041-2.538,0.218-3.8  c0.687-13.305,5.723-26.015,14.327-36.175c9.475-11.471,22.732-19.161,37.377-21.701c3.48-0.646,7.017-0.959,10.562-0.933  c33.76,0.167,61.329,27.09,62.365,60.905c-0.027,0.567,0.01,1.141,0.114,1.704v58.059  C330.402,440.289,336.613,463.458,348.412,483.869z"
   fill="none"
   style="fill:#ffffff" />
<path
   id="path30"
   d="M463.907,325.325c-9.767,4.9-16.537,14.915-16.537,26.606c0,16.486,13.338,29.852,29.791,29.852  s29.791-13.366,29.791-29.852c0-13.16-8.554-24.206-20.352-28.179c-6.719-42.322-25.318-81.979-53.896-114.163  c-4.203-4.619-11.324-4.979-15.972-0.813c-4.639,4.171-5.066,11.308-0.956,16.001C440.998,253.181,457.621,288.056,463.907,325.325z  "
   fill="none"
   style="fill:#ffffff" />
<path
   id="path32"
   d="M57.906,409.805h0.557c6.217-0.327,11.034-5.598,10.81-11.839c-0.144-3.002-0.144-37.445-0.144-39.321  c0-3.629,0.114-7.262,0.217-10.531c1.296-24.78,7.284-49.096,17.638-71.643c32.854-73.095,106.353-119.218,186.319-116.925  c6.232,0.067,11.393-4.833,11.664-11.074c0.167-6.287-4.782-11.51-11.051-11.678c-89.09-2.539-170.966,48.826-207.606,130.24  c-11.562,25.203-18.232,52.386-19.662,80.091c-0.125,3.768-0.24,7.644-0.24,11.521c0,25.469,0,39.107,0.137,40.541  C46.907,405.191,51.896,409.862,57.906,409.805z"
   fill="none"
   style="fill:#ffffff" />
<path
   id="path34"
   d="M317.888,165.578l4.033,0.979c21.654,5.776,42.125,15.313,60.491,28.173c5.156,3.6,12.236,2.326,15.826-2.832  c3.591-5.167,2.327-12.261-2.829-15.857c-20.597-14.405-43.552-25.073-67.832-31.522l-4.189-1.027  c-6.025-1.356-12.023,2.352-13.517,8.352C308.378,157.846,311.938,163.939,317.888,165.578z"
   fill="none"
   style="fill:#ffffff" />
<path
   id="path36"
   d="M521.222,381.783h-0.272c-5.477,0-9.955,4.013-10.823,9.373c-21.853,134.76-171.449,325.979-229.199,395.677  c-7.501,9.054-21.342,9.054-28.843,0c-57.75-69.698-207.35-260.917-229.203-395.677c-0.869-5.359-5.349-9.373-10.767-9.373h-0.277  c-6.728,0-11.848,6.036-10.768,12.689c28.136,173.229,247.267,422.465,257.208,433.694c4.376,4.939,12.078,4.939,16.455,0  c9.942-11.229,229.115-260.518,257.213-433.747C533.021,387.794,527.92,381.783,521.222,381.783z"
   fill="none"
   style="fill:#ffffff" />
</svg>