<?xml version="1.0" encoding="UTF-8" standalone="no"?>
<!-- Generator: Adobe Illustrator 19.0.0, SVG Export Plug-In . SVG Version: 6.00 Build 0)  -->

<svg
   xmlns:dc="http://purl.org/dc/elements/1.1/"
   xmlns:cc="http://creativecommons.org/ns#"
   xmlns:rdf="http://www.w3.org/1999/02/22-rdf-syntax-ns#"
   xmlns:svg="http://www.w3.org/2000/svg"
   xmlns="http://www.w3.org/2000/svg"
   xmlns:sodipodi="http://sodipodi.sourceforge.net/DTD/sodipodi-0.dtd"
   xmlns:inkscape="http://www.inkscape.org/namespaces/inkscape"
   version="1.1"
   id="Capa_1"
   x="0px"
   y="0px"
   viewBox="0 0 512 512"
   style="enable-background:new 0 0 512 512;"
   xml:space="preserve"
   sodipodi:docname="appointment.svg"
   inkscape:version="0.92.4 (5da689c313, 2019-01-14)"><metadata
   id="metadata103"><rdf:RDF><cc:Work
       rdf:about=""><dc:format>image/svg+xml</dc:format><dc:type
         rdf:resource="http://purl.org/dc/dcmitype/StillImage" /></cc:Work></rdf:RDF></metadata><defs
   id="defs101" /><sodipodi:namedview
   pagecolor="#ffffff"
   bordercolor="#666666"
   borderopacity="1"
   objecttolerance="10"
   gridtolerance="10"
   guidetolerance="10"
   inkscape:pageopacity="0"
   inkscape:pageshadow="2"
   inkscape:window-width="1920"
   inkscape:window-height="1001"
   id="namedview99"
   showgrid="false"
   inkscape:zoom="0.4609375"
   inkscape:cx="256"
   inkscape:cy="256"
   inkscape:window-x="-9"
   inkscape:window-y="-9"
   inkscape:window-maximized="1"
   inkscape:current-layer="Capa_1" />
<g
   id="g6"
   style="fill:#ffffff">
	<g
   id="g4"
   style="fill:#ffffff">
		<path
   d="M462,44h-47.667V30c0-16.542-13.458-30-30-30s-30,13.458-30,30v14h-168V30c0-16.542-13.458-30-30-30s-30,13.458-30,30    v14.37c-0.85-0.235-1.741-0.37-2.666-0.37H83.823c-27.57,0-50,22.43-50,50v170.333c0,5.523,4.478,10,10,10s10-4.477,10-10V147    h360.51c5.522,0,10-4.477,10-10s-4.478-10-10-10H53.823V94c0-16.542,13.458-30,30-30h39.844c0.925,0,1.816-0.136,2.666-0.37V76.5    c0,16.542,13.458,30,30,30s30-13.458,30-30V64h168v12.5c0,16.542,13.458,30,30,30s30-13.458,30-30V64H462    c16.542,0,30,13.458,30,30v379.994c0,9.928-8.077,18.006-18.006,18.006s-18.006-8.078-18.006-18.006v-25.869    c0-5.523-4.478-10-10-10H329.667c-5.522,0-10,4.477-10,10s4.478,10,10,10h106.321v15.869c0,6.511,1.648,12.643,4.545,18.006H38    c-9.925,0-18-8.075-18-18v-15.875h223.825c5.522,0,10-4.477,10-10s-4.478-10-10-10h-99.916    c17.474-15.049,28.57-37.309,28.57-62.125c0-45.215-36.785-82-82-82c-45.215,0-82,36.785-82,82    c0,24.816,11.096,47.076,28.57,62.125H10c-5.522,0-10,4.477-10,10V474c0,20.953,17.047,38,38,38h435.994    C494.95,512,512,494.951,512,473.994V94C512,66.43,489.57,44,462,44z M166.333,76.5c0,5.514-4.486,10-10,10s-10-4.486-10-10V30    c0-5.514,4.486-10,10-10s10,4.486,10,10V76.5z M394.333,76.5c0,5.514-4.486,10-10,10c-5.514,0-10-4.486-10-10V30    c0-5.514,4.486-10,10-10c5.514,0,10,4.486,10,10V76.5z M28.479,376c0-34.187,27.813-62,62-62s62,27.813,62,62s-27.813,62-62,62    S28.479,410.187,28.479,376z"
   id="path2"
   style="fill:#ffffff" />
	</g>
</g>
<g
   id="g12"
   style="fill:#ffffff">
	<g
   id="g10"
   style="fill:#ffffff">
		<path
   d="M468.309,129.93c-1.859-1.86-4.439-2.93-7.069-2.93c-2.631,0-5.21,1.07-7.07,2.93c-1.86,1.86-2.93,4.44-2.93,7.07    s1.069,5.21,2.93,7.07c1.861,1.86,4.439,2.93,7.07,2.93c2.63,0,5.21-1.07,7.069-2.93c1.86-1.86,2.931-4.44,2.931-7.07    S470.17,131.79,468.309,129.93z"
   id="path8"
   style="fill:#ffffff" />
	</g>
</g>
<g
   id="g18"
   style="fill:#ffffff">
	<g
   id="g16"
   style="fill:#ffffff">
		<path
   d="M298.649,441.05c-1.859-1.86-4.439-2.92-7.069-2.92s-5.21,1.06-7.07,2.92c-1.86,1.87-2.93,4.44-2.93,7.07    c0,2.64,1.069,5.21,2.93,7.08c1.86,1.86,4.44,2.92,7.07,2.92s5.21-1.06,7.069-2.92c1.86-1.87,2.931-4.45,2.931-7.08    C301.58,445.49,300.51,442.92,298.649,441.05z"
   id="path14"
   style="fill:#ffffff" />
	</g>
</g>
<g
   id="g24"
   style="fill:#ffffff">
	<g
   id="g22"
   style="fill:#ffffff">
		<path
   d="M226.245,304c-20.953,0-38,17.047-38,38s17.047,38,38,38s38-17.047,38-38S247.198,304,226.245,304z M226.245,360    c-9.925,0-18-8.075-18-18s8.075-18,18-18s18,8.075,18,18S236.17,360,226.245,360z"
   id="path20"
   style="fill:#ffffff" />
	</g>
</g>
<g
   id="g30"
   style="fill:#ffffff">
	<g
   id="g28"
   style="fill:#ffffff">
		<path
   d="M319.578,304c-20.953,0-38,17.047-38,38s17.047,38,38,38s38-17.047,38-38S340.531,304,319.578,304z M319.578,360    c-9.925,0-18-8.075-18-18s8.075-18,18-18s18,8.075,18,18S329.503,360,319.578,360z"
   id="path26"
   style="fill:#ffffff" />
	</g>
</g>
<g
   id="g36"
   style="fill:#ffffff">
	<g
   id="g34"
   style="fill:#ffffff">
		<path
   d="M412.912,304c-20.953,0-38,17.047-38,38s17.047,38,38,38c20.953,0,38-17.047,38-38S433.865,304,412.912,304z M412.912,360    c-9.925,0-18-8.075-18-18s8.075-18,18-18s18,8.075,18,18S422.837,360,412.912,360z"
   id="path32"
   style="fill:#ffffff" />
	</g>
</g>
<g
   id="g42"
   style="fill:#ffffff">
	<g
   id="g40"
   style="fill:#ffffff">
		<path
   d="M132.912,200c-20.953,0-38,17.047-38,38s17.047,38,38,38s38-17.047,38-38S153.865,200,132.912,200z M132.912,256    c-9.925,0-18-8.075-18-18s8.075-18,18-18c9.925,0,18,8.075,18,18S142.837,256,132.912,256z"
   id="path38"
   style="fill:#ffffff" />
	</g>
</g>
<g
   id="g48"
   style="fill:#ffffff">
	<g
   id="g46"
   style="fill:#ffffff">
		<path
   d="M319.578,200c-20.953,0-38,17.047-38,38s17.047,38,38,38s38-17.047,38-38S340.531,200,319.578,200z M319.578,256    c-9.925,0-18-8.075-18-18s8.075-18,18-18s18,8.075,18,18S329.503,256,319.578,256z"
   id="path44"
   style="fill:#ffffff" />
	</g>
</g>
<g
   id="g54"
   style="fill:#ffffff">
	<g
   id="g52"
   style="fill:#ffffff">
		<path
   d="M412.912,200c-20.953,0-38,17.047-38,38s17.047,38,38,38c20.953,0,38-17.047,38-38S433.865,200,412.912,200z M412.912,256    c-9.925,0-18-8.075-18-18s8.075-18,18-18s18,8.075,18,18S422.837,256,412.912,256z"
   id="path50"
   style="fill:#ffffff" />
	</g>
</g>
<g
   id="g60"
   style="fill:#ffffff">
	<g
   id="g58"
   style="fill:#ffffff">
		<path
   d="M226.245,200c-20.953,0-38,17.047-38,38s17.047,38,38,38s38-17.047,38-38S247.198,200,226.245,200z M226.245,256    c-9.925,0-18-8.075-18-18s8.075-18,18-18s18,8.075,18,18S236.17,256,226.245,256z"
   id="path56"
   style="fill:#ffffff" />
	</g>
</g>
<g
   id="g66"
   style="fill:#ffffff">
	<g
   id="g64"
   style="fill:#ffffff">
		<path
   d="M126.104,351.629c-3.906-3.905-10.236-3.905-14.143,0l-32.566,32.567l-11.129-11.129c-3.906-3.905-10.236-3.905-14.143,0    c-3.905,3.905-3.905,10.237,0,14.143l18.201,18.199c1.876,1.875,4.419,2.929,7.071,2.929c2.652,0,5.195-1.054,7.071-2.929    l39.638-39.638C130.009,361.866,130.009,355.534,126.104,351.629z"
   id="path62"
   style="fill:#ffffff" />
	</g>
</g>
<g
   id="g68"
   style="fill:#ffffff">
</g>
<g
   id="g70"
   style="fill:#ffffff">
</g>
<g
   id="g72"
   style="fill:#ffffff">
</g>
<g
   id="g74"
   style="fill:#ffffff">
</g>
<g
   id="g76"
   style="fill:#ffffff">
</g>
<g
   id="g78"
   style="fill:#ffffff">
</g>
<g
   id="g80"
   style="fill:#ffffff">
</g>
<g
   id="g82"
   style="fill:#ffffff">
</g>
<g
   id="g84"
   style="fill:#ffffff">
</g>
<g
   id="g86"
   style="fill:#ffffff">
</g>
<g
   id="g88"
   style="fill:#ffffff">
</g>
<g
   id="g90"
   style="fill:#ffffff">
</g>
<g
   id="g92"
   style="fill:#ffffff">
</g>
<g
   id="g94"
   style="fill:#ffffff">
</g>
<g
   id="g96"
   style="fill:#ffffff">
</g>
</svg>