<?xml version="1.0" encoding="UTF-8" standalone="no"?>
<!-- Generator: Adobe Illustrator 16.0.0, SVG Export Plug-In . SVG Version: 6.00 Build 0)  -->

<svg
   xmlns:dc="http://purl.org/dc/elements/1.1/"
   xmlns:cc="http://creativecommons.org/ns#"
   xmlns:rdf="http://www.w3.org/1999/02/22-rdf-syntax-ns#"
   xmlns:svg="http://www.w3.org/2000/svg"
   xmlns="http://www.w3.org/2000/svg"
   xmlns:sodipodi="http://sodipodi.sourceforge.net/DTD/sodipodi-0.dtd"
   xmlns:inkscape="http://www.inkscape.org/namespaces/inkscape"
   version="1.1"
   id="Warstwa_1"
   x="0px"
   y="0px"
   width="2456px"
   height="3837px"
   viewBox="0 0 2456 3837"
   enable-background="new 0 0 2456 3837"
   xml:space="preserve"
   sodipodi:docname="rout-signet.svg"
   inkscape:version="0.92.4 (5da689c313, 2019-01-14)"><metadata
   id="metadata43"><rdf:RDF><cc:Work
       rdf:about=""><dc:format>image/svg+xml</dc:format><dc:type
         rdf:resource="http://purl.org/dc/dcmitype/StillImage" /></cc:Work></rdf:RDF></metadata><defs
   id="defs41" /><sodipodi:namedview
   pagecolor="#ffffff"
   bordercolor="#666666"
   borderopacity="1"
   objecttolerance="10"
   gridtolerance="10"
   guidetolerance="10"
   inkscape:pageopacity="0"
   inkscape:pageshadow="2"
   inkscape:window-width="1920"
   inkscape:window-height="1001"
   id="namedview39"
   showgrid="false"
   inkscape:zoom="0.061506385"
   inkscape:cx="1228"
   inkscape:cy="1918.5"
   inkscape:window-x="-9"
   inkscape:window-y="-9"
   inkscape:window-maximized="1"
   inkscape:current-layer="Warstwa_1" />
<path
   fill="none"
   d="M859.045,960.331c-1.51,18.715,7.031,36.798,22.436,47.472c15.386,10.677,35.324,12.314,52.242,4.286  c64.795-30.902,134.098-51.318,205.299-60.511c18.542-2.357,34.459-14.474,41.706-31.787c7.224-17.294,4.703-37.137-6.648-52.093  c-11.328-14.937-29.756-22.682-48.33-20.297c-82.14,10.601-162.075,34.153-236.881,69.74  C871.956,925.178,860.582,941.619,859.045,960.331z"
   id="path2"
   style="fill:#ffc12d;fill-opacity:1" />
<path
   fill="none"
   d="M767.037,1018.362c-17.536-6.612-37.236-3.316-51.716,8.588c-115.423,96.026-202.248,222.018-250.981,364.223  c-29.23,84.554-44.108,173.425-44.012,262.903v441.635c0,28.977,23.442,52.507,52.407,52.507c28.919,0,52.384-23.53,52.384-52.507  v-441.635c0.169-166.995,59.11-328.581,166.448-456.326c27.258-32.616,57.471-62.629,90.302-89.634  c14.471-11.902,21.498-30.635,18.428-49.155C797.25,1040.442,784.577,1024.973,767.037,1018.362z"
   id="path4"
   style="fill:#ffc12d;fill-opacity:1" />
<path
   fill="none"
   d="M1348.325,849.078c-18.506-2.641-37.053,4.813-48.619,19.577c-11.543,14.763-14.375,34.561-7.389,51.975  c6.936,17.432,22.651,29.774,41.203,32.415c312.328,50.264,555.247,299.055,598.541,613.083  c3.77,25.758,25.748,44.831,51.716,44.904c2.567,0,5.133-0.197,7.654-0.577c28.63-4.209,48.445-30.861,44.277-59.572  C1985.529,1190.942,1706.535,906.078,1348.325,849.078z"
   id="path6"
   style="fill:#ffc12d;fill-opacity:1" />
<path
   fill="none"
   d="M1691.154,2828.593c-4.73-3.655-16.584-13.398-34.464-27.923l-46.94-38.091  c-1.482-1.545-3.069-2.967-4.73-4.333c-64.43-52.501-158.163-129.147-261.947-214.087  c-119.655-98.171-188.93-245.03-188.665-399.981v-69.479c-0.508-104.664-0.508-199.535-0.508-273.057v-147.565  c-0.124-20.921,8.112-41.021,22.894-55.812c13.556-13.586,31.581-21.792,50.728-23.044c20.519-0.839,40.489,6.904,55.124,21.38  c18.072,17.124,28.338,40.956,28.438,65.894v83.505c0,65.55,0,161.03-0.53,271.994v6.083  c0.769,184.621,83.315,359.388,225.333,477.036c21.576,17.941,42.694,35.423,62.248,51.296  c22.458,18.256,55.481,14.785,73.722-7.727c18.236-22.553,14.782-55.619-7.705-73.898c-19.219-15.727-40.022-32.801-61.479-50.573  c-118.04-97.754-186.697-242.967-187.416-396.45v-6.039c0.526-110.29,0.526-206.05,0.526-271.723v-83.505  c-0.147-53.818-22.271-105.219-61.264-142.201c-35.617-34.386-83.874-52.478-133.28-49.901  c-44.762,2.815-86.925,21.883-118.648,53.63c-34.458,34.442-53.729,81.285-53.514,130.055v147.565c0,73.522,0,168.706,0.526,273.057  v69.333c-0.261,186.454,83.201,363.165,227.282,481.199c101.218,83.088,193.006,158.1,257.327,210.456  c1.533,1.585,3.166,3.076,4.868,4.466l51.451,42.021c44.853,36.527,44.853,36.527,54.808,39.897  c24.907,8.441,52.22-2.929,63.808-26.602C1720.735,2871.805,1713.032,2843.204,1691.154,2828.593z"
   id="path8"
   style="fill:#ffc12d;fill-opacity:1" />
<path
   fill="none"
   d="M1741.809,196.437c65.656,23.74,129.614,52.038,191.354,84.7c16.562,8.754,36.504,8.037,52.389-1.926  c15.861-9.972,25.194-27.674,24.499-46.435c-0.696-18.735-11.277-35.712-27.834-44.487  c-66.091-34.947-134.505-65.224-204.792-90.648c-27.217-9.862-57.266,4.287-67.102,31.554  C1700.487,156.465,1714.569,186.552,1741.809,196.437z"
   id="path10"
   style="fill:#ffc12d;fill-opacity:1" />
<path
   fill="none"
   d="M230.126,745.111c14.302-0.014,27.999-5.887,37.89-16.254C604.481,375.05,1107.006,233.9,1577.954,360.961  c18.291,5.625,38.156,0.862,51.881-12.48c13.757-13.324,19.133-33.066,14.114-51.566c-5.037-18.468-19.75-32.736-38.348-37.202  C1097.554,122.34,555.236,274.544,192.236,656.329c-14.498,15.199-18.556,37.591-10.298,56.926  C190.168,732.584,209.155,745.111,230.126,745.111z"
   id="path12"
   style="fill:#ffc12d;fill-opacity:1" />
<path
   fill="none"
   d="M1809.816,331.017c-3.55-1.183-7.201-1.976-10.893-2.407c-3.12-0.939-6.313-1.567-9.525-1.902h-0.43  c-2.502,0.312-4.973,0.816-7.393,1.541c-7.728-0.07-15.217,2.792-20.972,7.963c-2.859,1.467-5.595,3.247-8.116,5.246  c-2.923,3.172-5.467,6.708-7.53,10.504c-1.446,1.779-2.786,3.658-3.99,5.63v0.412c-1.006,3.269-1.724,6.612-2.155,9.981  c-1.057,3.43-1.757,6.947-2.086,10.504v0.381c0.288,2.236,0.741,4.432,1.363,6.592c0.311,4.42,1.203,8.803,2.612,13.039  c1.469,3.022,3.221,5.91,5.261,8.61c1.579,2.907,3.427,5.672,5.518,8.248c3.17,2.976,6.694,5.526,10.486,7.616  c1.751,1.453,3.6,2.765,5.568,3.924c204.384,90.712,383.235,230.68,520.577,407.441c17.971,22.122,50.316,25.832,72.802,8.267  c22.486-17.501,26.878-49.848,9.864-72.74c-147.942-190.278-340.546-340.923-560.646-438.518L1809.816,331.017z"
   id="path14"
   style="fill:#ffc12d;fill-opacity:1" />
<path
   fill="none"
   d="M875.556,472.951C744.143,512.858,620.49,574.846,509.811,656.256c-23.301,17.193-28.315,50.049-11.204,73.422  c17.134,23.369,49.914,28.409,73.265,11.233c101.122-74.413,214.175-131.045,334.237-167.504  c18.113-5.291,31.984-19.963,36.303-38.357c4.319-18.399-1.533-37.711-15.381-50.566  C913.208,471.654,893.527,467.229,875.556,472.951z"
   id="path16"
   style="fill:#ffc12d;fill-opacity:1" />
<path
   fill="none"
   d="M422.584,832.201c-5.375-18.07-20.016-31.869-38.33-36.148c-18.354-4.259-37.552,1.637-50.321,15.484  C210.23,942.803,117.311,1100.059,61.875,1271.865c-8.948,27.542,6.099,57.16,33.577,66.16c27.523,8.946,57.087-6.135,66.017-33.713  c50.682-157.069,135.681-300.833,248.803-420.815C423.279,869.862,427.982,850.266,422.584,832.201z"
   id="path18"
   style="fill:#ffc12d;fill-opacity:1" />
<path
   fill="none"
   d="M1232.49,420.074c-45.668,0.064-91.286,2.641-136.711,7.665c-18.721,1.903-35.008,13.709-42.671,30.954  c-7.631,17.271-5.444,37.306,5.764,52.474c11.177,15.199,29.633,23.204,48.326,20.976c41.619-4.622,83.439-6.978,125.292-7.028  c574.086-1.275,1056.742,431.515,1119.018,1003.472c2.95,26.582,25.341,46.711,52.026,46.734c1.945,0,3.843-0.101,5.756-0.317  c28.703-3.173,49.438-28.981,46.391-57.756C2387.7,891.96,1860.095,418.753,1232.49,420.074z"
   id="path20"
   style="fill:#ffc12d;fill-opacity:1" />
<path
   fill="none"
   d="M1835.065,1668.271c5.495-224.403-113.822-433.318-309.692-542.261  c-195.833-108.923-435.834-99.877-622.994,23.493c-77.075,50.457-141.624,117.938-188.642,197.274  c-41.82,70.131-68.607,148.239-78.562,229.336c-3.527,25.822-5.28,51.901-5.256,77.961v688.954  c-0.334,186.174,82.863,362.65,226.6,480.583l105.23,86.718c103.121,84.895,199.589,164.378,272.47,223.775  c22.408,18.353,55.453,14.987,73.721-7.5c18.305-22.466,14.951-55.556-7.489-73.881c-72.524-59.324-168.919-138.757-271.894-223.555  l-105.271-86.678c-120.135-98.672-189.41-246.405-188.573-402.076v-686.341c-0.027-21.521,1.418-43.043,4.301-64.349  c8.199-66.885,30.305-131.283,64.86-189.076c99.923-168.514,288.711-263.22,483.232-242.44  c256.15,31.383,447.386,251.454,443.164,510.061v153.837c0.018,25.583,1.771,51.107,5.247,76.425  c3.917,28.748,30.314,48.871,59.013,44.955c28.654-3.919,48.743-30.402,44.854-59.135c-2.956-21.503-4.369-43.14-4.319-64.867  V1668.271z"
   id="path22"
   style="fill:#ffc12d;fill-opacity:1" />
<path
   fill="none"
   d="M440.751,374.629c73.333,0,132.707-57.733,136.66-130.239c303.214-138.4,643.554-175.203,970.255-103.844  c28.274,6.258,56.232-11.664,62.445-39.994c6.241-28.325-11.662-56.371-39.908-62.602C1224.342-37.598,864.21,0.534,542.55,145.168  c-25.154-28.01-61.236-45.959-101.798-45.959c-75.886,0-137.411,61.652-137.411,137.707  C303.34,312.971,364.865,374.629,440.751,374.629z"
   id="path24"
   style="fill:#ffc12d;fill-opacity:1" />
<path
   fill="none"
   d="M525.119,2244.954c0-26.161-17.865-50.37-43.627-54.538c-32.844-5.313-61.164,19.917-61.164,51.769v137.07  c-0.018,20.182,1.043,40.3,3.074,60.314c2.846,28.021,27.825,48.535,55.783,45.677l3.381-0.347  c28.279-2.89,47.938-28.468,45.073-56.803c-1.743-17.243-2.621-34.588-2.521-51.979V2244.954z"
   id="path26"
   style="fill:#ffc12d;fill-opacity:1" />
<path
   fill="none"
   d="M1603.726,2231.713c8.93,17.101,26.498,27.903,45.723,28.16c19.242,0.247,37.099-10.05,46.478-26.909  c9.36-16.858,8.761-37.486-1.538-53.771c-45.663-79.318-69.449-169.407-68.922-260.986v-264.131  c0.05-4.012-0.142-8.006-0.567-11.999c-7.416-212.161-180.563-380.669-392.408-381.83c-22.702-0.119-45.353,1.903-67.697,6.038  c-91.597,16.043-174.459,64.258-233.784,136.002c-53.39,62.661-84.926,141.095-89.821,223.339  c-1.295,9.427-1.844,18.953-1.679,28.449v247.324c0,98.267,0,217.043,0.531,342.39c-0.412,186.234,82.835,362.779,226.651,480.685  l56.442,46.299c131.18,107.827,215.465,177.104,270.635,222.422c-3.632,12.36-6.19,25.181-6.19,38.719  c0,76.054,61.524,137.708,137.411,137.708c75.891,0,137.411-61.654,137.411-137.708c0-76.055-61.52-137.711-137.411-137.711  c-23.717,0-45.687,6.57-65.158,17.169c-69.998-57.448-168.488-138.385-270.251-222.027l-56.629-46.102  c-120.254-98.915-189.456-246.96-188.335-402.87c-0.329-122.192-0.329-240.808-0.329-338.974v-247.324  c-0.151-5.864,0.188-11.705,1.006-17.528c3.166-61.374,26.398-120.005,66.082-166.871c43.705-52.915,104.851-88.389,172.4-100.102  c16.054-2.976,32.369-4.425,48.715-4.302c155.72,0.771,282.882,124.962,287.658,280.945c-0.124,2.618,0.046,5.262,0.526,7.858  v267.813C1520.652,2030.684,1549.301,2137.561,1603.726,2231.713z"
   id="path28"
   style="fill:#ffc12d;fill-opacity:1" />
<path
   fill="none"
   d="M2136.445,1500.376c-45.05,22.608-76.275,68.801-76.275,122.728c0,76.05,61.521,137.703,137.411,137.703  c75.89,0,137.41-61.653,137.41-137.703c0-60.704-39.455-111.656-93.87-129.982c-30.991-195.224-116.781-378.156-248.592-526.612  c-19.385-21.306-52.233-22.965-73.671-3.75c-21.397,19.243-23.37,52.163-4.411,73.812  C2030.776,1167.59,2107.448,1328.465,2136.445,1500.376z"
   id="path30"
   style="fill:#ffc12d;fill-opacity:1" />
<path
   fill="none"
   d="M263.767,1890.069h2.566c28.676-1.508,50.897-25.822,49.863-54.611c-0.664-13.851-0.664-172.726-0.664-181.383  c0-16.74,0.526-33.497,1.002-48.578c5.98-114.305,33.599-226.47,81.353-330.479c151.543-337.173,490.552-549.93,859.395-539.352  c28.749,0.311,52.548-22.293,53.802-51.085c0.769-29-22.056-53.093-50.975-53.868c-410.928-11.71-788.578,225.224-957.583,600.772  c-53.327,116.255-84.094,241.648-90.691,369.446c-0.576,17.383-1.107,35.258-1.107,53.144c0,117.483,0,180.397,0.631,187.009  C213.034,1868.785,236.046,1890.334,263.767,1890.069z"
   id="path32"
   style="fill:#ffc12d;fill-opacity:1" />
<path
   fill="none"
   d="M1462.934,763.492l18.602,4.52c99.882,26.644,194.306,70.635,279.016,129.959  c23.781,16.602,56.438,10.728,72.995-13.062c16.565-23.833,10.732-56.555-13.048-73.148  c-95.005-66.448-200.885-115.658-312.876-145.405l-19.321-4.736c-27.789-6.259-55.458,10.848-62.344,38.527  C1419.068,727.83,1435.488,755.935,1462.934,763.492z"
   id="path34"
   style="fill:#ffc12d;fill-opacity:1" />
<path
   fill="none"
   d="M2400.808,1760.807h-1.253c-25.264,0-45.916,18.514-49.923,43.235  c-100.797,621.624-790.806,1503.685-1057.177,1825.187c-34.601,41.764-98.44,41.764-133.042,0  C893.042,3307.728,203.015,2425.667,102.218,1804.042c-4.008-24.722-24.673-43.235-49.662-43.235H51.28  c-31.032,0-54.648,27.844-49.666,58.535c129.775,799.074,1140.515,1948.754,1186.371,2000.549c20.185,22.788,55.709,22.788,75.899,0  c45.856-51.799,1056.793-1201.718,1186.394-2000.796C2455.232,1788.537,2431.703,1760.807,2400.808,1760.807z"
   id="path36"
   style="fill:#ffc12d;fill-opacity:1" />
</svg>