<?xml version="1.0" encoding="UTF-8" standalone="no"?>
<!-- Generator: Adobe Illustrator 19.0.0, SVG Export Plug-In . SVG Version: 6.00 Build 0)  -->

<svg
   xmlns:dc="http://purl.org/dc/elements/1.1/"
   xmlns:cc="http://creativecommons.org/ns#"
   xmlns:rdf="http://www.w3.org/1999/02/22-rdf-syntax-ns#"
   xmlns:svg="http://www.w3.org/2000/svg"
   xmlns="http://www.w3.org/2000/svg"
   xmlns:sodipodi="http://sodipodi.sourceforge.net/DTD/sodipodi-0.dtd"
   xmlns:inkscape="http://www.inkscape.org/namespaces/inkscape"
   version="1.1"
   id="Capa_1"
   x="0px"
   y="0px"
   viewBox="0 0 480 480"
   style="enable-background:new 0 0 480 480;"
   xml:space="preserve"
   sodipodi:docname="icon_rating.svg"
   inkscape:version="0.92.4 (f8dce91, 2019-08-02)"><metadata
   id="metadata91"><rdf:RDF><cc:Work
       rdf:about=""><dc:format>image/svg+xml</dc:format><dc:type
         rdf:resource="http://purl.org/dc/dcmitype/StillImage" /></cc:Work></rdf:RDF></metadata><defs
   id="defs89" /><sodipodi:namedview
   pagecolor="#ffffff"
   bordercolor="#666666"
   borderopacity="1"
   objecttolerance="10"
   gridtolerance="10"
   guidetolerance="10"
   inkscape:pageopacity="0"
   inkscape:pageshadow="2"
   inkscape:window-width="1879"
   inkscape:window-height="1043"
   id="namedview87"
   showgrid="false"
   inkscape:zoom="0.49166667"
   inkscape:cx="240"
   inkscape:cy="240"
   inkscape:window-x="41"
   inkscape:window-y="0"
   inkscape:window-maximized="1"
   inkscape:current-layer="Capa_1" />
<g
   id="g6"
   style="fill:#ffffff">
	<g
   id="g4"
   style="fill:#ffffff">
		<path
   d="M160,0C93.726,0,40,53.726,40,120v88c0.035,30.913,25.087,55.965,56,56h8v-16h-8c-22.08-0.026-39.974-17.92-40-40v-88    c0-57.438,46.562-104,104-104s104,46.562,104,104v88c-0.026,22.08-17.92,39.974-40,40h-8v16h8c30.913-0.035,55.965-25.087,56-56    v-88C280,53.726,226.274,0,160,0z"
   id="path2"
   style="fill:#ffffff" />
	</g>
</g>
<g
   id="g12"
   style="fill:#ffffff">
	<g
   id="g10"
   style="fill:#ffffff">
		<path
   d="M65.928,377.032l5.848-9.208l-13.512-8.576l-5.848,9.216c-17.687,27.872-16.374,63.76,3.304,90.264V480h16v-24    c0.001-1.817-0.617-3.581-1.752-5C52.96,429.738,51.337,400.02,65.928,377.032z"
   id="path8"
   style="fill:#ffffff" />
	</g>
</g>
<g
   id="g18"
   style="fill:#ffffff">
	<g
   id="g16"
   style="fill:#ffffff">
		<path
   d="M440,0H336c-22.08,0.026-39.974,17.92-40,40v80c0.026,22.08,17.92,39.974,40,40h16v32    c-0.001,3.235,1.947,6.153,4.936,7.392c0.971,0.405,2.012,0.611,3.064,0.608c2.122,0,4.156-0.844,5.656-2.344L403.312,160H440    c22.08-0.026,39.974-17.92,40-40V40C479.974,17.92,462.08,0.026,440,0z M464,120c0,13.255-10.745,24-24,24h-40    c-2.122,0-4.156,0.844-5.656,2.344L368,172.688V152c0-4.418-3.582-8-8-8h-24c-13.255,0-24-10.745-24-24V40    c0-13.255,10.745-24,24-24h104c13.255,0,24,10.745,24,24V120z"
   id="path14"
   style="fill:#ffffff" />
	</g>
</g>
<g
   id="g24"
   style="fill:#ffffff">
	<g
   id="g22"
   style="fill:#ffffff">
		<rect
   x="336"
   y="40"
   width="56"
   height="16"
   id="rect20"
   style="fill:#ffffff" />
	</g>
</g>
<g
   id="g30"
   style="fill:#ffffff">
	<g
   id="g28"
   style="fill:#ffffff">
		<rect
   x="408"
   y="40"
   width="32"
   height="16"
   id="rect26"
   style="fill:#ffffff" />
	</g>
</g>
<g
   id="g36"
   style="fill:#ffffff">
	<g
   id="g34"
   style="fill:#ffffff">
		<rect
   x="336"
   y="72"
   width="104"
   height="16"
   id="rect32"
   style="fill:#ffffff" />
	</g>
</g>
<g
   id="g42"
   style="fill:#ffffff">
	<g
   id="g40"
   style="fill:#ffffff">
		<rect
   x="336"
   y="104"
   width="56"
   height="16"
   id="rect38"
   style="fill:#ffffff" />
	</g>
</g>
<g
   id="g48"
   style="fill:#ffffff">
	<g
   id="g46"
   style="fill:#ffffff">
		<path
   d="M267.584,368.464l-5.848-9.216l-13.512,8.576l5.848,9.216c14.592,22.985,12.969,52.701-4.04,73.96    c-1.135,1.419-1.753,3.183-1.752,5v24h16v-21.272C283.958,432.224,285.271,396.336,267.584,368.464z"
   id="path44"
   style="fill:#ffffff" />
	</g>
</g>
<g
   id="g54"
   style="fill:#ffffff">
	<g
   id="g52"
   style="fill:#ffffff">
		<path
   d="M472,272h-72c-30.016,0.035-54.666,23.729-55.888,53.72L320,369.128V336c-0.035-30.913-25.087-55.965-56-56h-29.24    l-0.216-0.168L234.4,280H216c-8.837,0-16-7.163-16-16v-18.824c24.719-14.272,39.962-40.633,40-69.176v-64    c-0.012-13.255-3.31-26.3-9.6-37.968c-2.015-3.712-6.569-5.219-10.4-3.44L84.592,134.304c-2.804,1.32-4.593,4.141-4.592,7.24V176    c0.038,28.543,15.281,54.904,40,69.176V264c0,8.837-7.163,16-16,16H56c-30.913,0.035-55.965,25.087-56,56v144h16V336    c0.026-22.08,17.92-39.974,40-40h25.456l72.04,100.656c1.48,2.069,3.856,3.31,6.4,3.344H160c2.518,0,4.889-1.186,6.4-3.2l76-100.8    H264c22.08,0.026,39.974,17.92,40,40v64c0.004,4.418,3.589,7.997,8.007,7.993c2.902-0.003,5.575-1.576,6.985-4.113L356.704,336    h45.864l-78,144h18.2L420.8,336h3.2c30.913-0.035,55.965-25.087,56-56C480,275.582,476.418,272,472,272z M96,176v-29.376    l123.528-58.128C222.483,95.98,224,103.954,224,112v64c0,35.346-28.654,64-64,64C124.654,240,96,211.346,96,176z M160.168,378.496    L135.48,344h50.688L160.168,378.496z M198.272,328H124l-22.904-32H104c17.673,0,32-14.327,32-32v-11.688    c15.622,4.917,32.378,4.917,48,0V264c0,17.673,14.327,32,32,32h6.4L198.272,328z M424,320h-63.2    c3.825-18.613,20.198-31.979,39.2-32h63.2C459.375,306.613,443.002,319.979,424,320z"
   id="path50"
   style="fill:#ffffff" />
	</g>
</g>
<g
   id="g56"
   style="fill:#ffffff">
</g>
<g
   id="g58"
   style="fill:#ffffff">
</g>
<g
   id="g60"
   style="fill:#ffffff">
</g>
<g
   id="g62"
   style="fill:#ffffff">
</g>
<g
   id="g64"
   style="fill:#ffffff">
</g>
<g
   id="g66"
   style="fill:#ffffff">
</g>
<g
   id="g68"
   style="fill:#ffffff">
</g>
<g
   id="g70"
   style="fill:#ffffff">
</g>
<g
   id="g72"
   style="fill:#ffffff">
</g>
<g
   id="g74"
   style="fill:#ffffff">
</g>
<g
   id="g76"
   style="fill:#ffffff">
</g>
<g
   id="g78"
   style="fill:#ffffff">
</g>
<g
   id="g80"
   style="fill:#ffffff">
</g>
<g
   id="g82"
   style="fill:#ffffff">
</g>
<g
   id="g84"
   style="fill:#ffffff">
</g>
</svg>