<?xml version="1.0" encoding="UTF-8" standalone="no"?>
<svg
   xmlns:dc="http://purl.org/dc/elements/1.1/"
   xmlns:cc="http://creativecommons.org/ns#"
   xmlns:rdf="http://www.w3.org/1999/02/22-rdf-syntax-ns#"
   xmlns:svg="http://www.w3.org/2000/svg"
   xmlns="http://www.w3.org/2000/svg"
   xmlns:xlink="http://www.w3.org/1999/xlink"
   xml:space="preserve"
   enable-background="new 0 0 323.505 83.687"
   viewBox="0 0 323.505 83.687"
   height="83.687px"
   width="323.505px"
   y="0px"
   x="0px"
   id="Warstwa_1"
   version="1.1"><metadata
   id="metadata190"><rdf:RDF><cc:Work
       rdf:about=""><dc:format>image/svg+xml</dc:format><dc:type
         rdf:resource="http://purl.org/dc/dcmitype/StillImage" /><dc:title></dc:title></cc:Work></rdf:RDF></metadata><defs
   id="defs188" />
<g
   id="g15">
	<defs
   id="defs3">
		<path
   d="M82.699,39.549h8.586c3.789,0,4.615,0.123,5.256,0.856c0.611,0.672,0.826,1.804,0.826,4.309    c0,4.614-0.398,4.92-6.021,4.92h-8.647V39.549z M76.587,34.446v20.382h14.698c6.876,0,8.679-0.306,10.237-1.711    c1.497-1.375,1.956-3.454,1.956-8.77c0-3.331-0.123-4.614-0.58-6.051c-0.612-1.894-1.957-3.055-3.973-3.453    c-1.742-0.366-2.444-0.397-7.64-0.397H76.587z"
   id="SVGID_1_" />
	</defs>
	<clipPath
   id="SVGID_2_">
		<use
   id="use5"
   overflow="visible"
   xlink:href="#SVGID_1_" />
	</clipPath>
	
		<linearGradient
   gradientTransform="matrix(0.3333 -18 -18 -0.3333 1596.1162 82.9421)"
   y2="83.6812"
   x2="1"
   y1="83.6812"
   x1="0"
   gradientUnits="userSpaceOnUse"
   id="SVGID_3_">
		<stop
   id="stop8"
   style="stop-color:#EF4136"
   offset="0" />
		<stop
   id="stop10"
   style="stop-color:#F7941E"
   offset="1" />
	</linearGradient>
	<polygon
   id="polygon13"
   points="76.209,54.821 76.596,33.948 103.855,34.453 103.469,55.326     "
   fill="url(#SVGID_3_)"
   clip-path="url(#SVGID_2_)" />
</g>
<g
   id="g30">
	<defs
   id="defs18">
		<path
   d="M115.73,49.114c-0.733-0.58-0.916-1.404-0.916-3.941c0-2.598,0.121-3.759,0.489-4.461    c0.611-1.192,1.191-1.283,7.302-1.283c5.684,0,6.357,0.091,7.059,0.916c0.55,0.672,0.733,1.833,0.733,4.858    c0,2.475-0.213,3.362-0.916,3.911c-0.825,0.611-1.833,0.733-6.814,0.733C117.534,49.847,116.555,49.755,115.73,49.114     M110.627,35.547c-1.559,1.191-2.017,3.27-2.017,8.954c0,5.988,0.429,8.006,2.017,9.229c1.559,1.19,3.453,1.405,12.04,1.405    c8.433,0,10.358-0.215,11.917-1.405c1.559-1.193,2.016-3.24,2.016-9.107c0-5.835-0.457-7.884-2.016-9.075    c-1.559-1.193-3.453-1.406-11.979-1.406C114.08,34.141,112.186,34.354,110.627,35.547"
   id="SVGID_4_" />
	</defs>
	<clipPath
   id="SVGID_5_">
		<use
   id="use20"
   overflow="visible"
   xlink:href="#SVGID_4_" />
	</clipPath>
	
		<linearGradient
   gradientTransform="matrix(0.3333 -18 -18 -0.3333 1628.7725 83.5514)"
   y2="83.686"
   x2="1"
   y1="83.686"
   x1="0"
   gradientUnits="userSpaceOnUse"
   id="SVGID_6_">
		<stop
   id="stop23"
   style="stop-color:#EF4136"
   offset="0" />
		<stop
   id="stop25"
   style="stop-color:#F7941E"
   offset="1" />
	</linearGradient>
	<polygon
   id="polygon28"
   points="108.221,55.126 108.62,33.623 136.989,34.148 136.59,55.652     "
   fill="url(#SVGID_6_)"
   clip-path="url(#SVGID_5_)" />
</g>
<g
   id="g108">
	<defs
   id="defs33">
		<rect
   height="83.687"
   width="323.505"
   id="SVGID_7_" />
	</defs>
	<clipPath
   id="SVGID_8_">
		<use
   id="use35"
   overflow="visible"
   xlink:href="#SVGID_7_" />
	</clipPath>
	<path
   id="path38"
   d="M184.329,34.447v12.191c0,3.851-0.306,5.317-1.313,6.51   c-1.346,1.527-3.424,1.985-9.138,1.985c-6.021,0-8.312-0.428-9.687-1.74c-1.009-1.01-1.375-2.354-1.375-5.227   c0-0.58,0-0.764,0.061-2.139h6.203c0,2.23,0.092,2.72,0.52,3.147c0.489,0.488,1.559,0.671,3.851,0.671   c2.353,0,3.545-0.183,4.095-0.701c0.489-0.397,0.581-0.856,0.581-2.628v-12.07H184.329z"
   fill="#FFFFFF"
   clip-path="url(#SVGID_8_)" />
	<path
   id="path40"
   d="M213.21,51.375h-13.476l-1.74,3.453h-7.091l10.787-20.381h9.656l10.664,20.381   h-7.058L213.21,51.375z M207.099,39.183h-1.222l-3.942,7.73h9.106L207.099,39.183z"
   fill="#FFFFFF"
   clip-path="url(#SVGID_8_)" />
	<polygon
   id="polygon42"
   points="252.97,34.447 252.97,39.122 238.058,49.939 253.428,49.725    253.428,54.828 228.219,54.828 228.219,50.062 242.948,39.335 228.555,39.55 228.555,34.447  "
   fill="#FFFFFF"
   clip-path="url(#SVGID_8_)" />
	<path
   id="path44"
   d="M261.591,34.446h14.698c5.194,0,5.897,0.031,7.64,0.397   c2.017,0.398,3.361,1.559,3.972,3.454c0.459,1.436,0.581,2.719,0.581,6.05c0,5.317-0.458,7.395-1.956,8.77   c-1.558,1.405-3.361,1.711-10.236,1.711h-14.698V34.446z M276.35,49.633c5.623,0,6.021-0.306,6.021-4.919   c0-2.506-0.215-3.637-0.826-4.309c-0.642-0.733-1.466-0.855-5.256-0.855h-8.586v10.083H276.35z"
   fill="#FFFFFF"
   clip-path="url(#SVGID_8_)" />
	<polygon
   id="polygon46"
   points="302.42,34.447 309.051,42.605 315.407,34.447 323.505,34.447    312.352,47.617 312.352,54.828 305.935,54.828 305.935,47.617 294.262,34.447  "
   fill="#FFFFFF"
   clip-path="url(#SVGID_8_)" />
	<rect
   id="rect48"
   height="5.104"
   width="10.035"
   fill="#FFFFFF"
   clip-path="url(#SVGID_8_)"
   y="42.239"
   x="144.509" />
	<path
   id="path50"
   d="M107.979,70.203c-0.06,0.508-0.217,1.018-0.471,1.525   c-0.254,0.509-0.603,0.97-1.047,1.384c-0.444,0.414-0.977,0.748-1.6,1.002c-0.623,0.254-1.334,0.381-2.131,0.381   c-0.808,0-1.559-0.125-2.251-0.374c-0.693-0.249-1.294-0.612-1.803-1.091c-0.508-0.479-0.907-1.062-1.196-1.75   c-0.289-0.688-0.434-1.475-0.434-2.364c0-0.646,0.113-1.303,0.337-1.966c0.224-0.663,0.569-1.261,1.032-1.794   c0.463-0.534,1.054-0.971,1.773-1.309c0.717-0.339,1.564-0.508,2.542-0.508c0.638,0,1.236,0.073,1.795,0.223   c0.558,0.149,1.057,0.375,1.495,0.674s0.81,0.673,1.114,1.121c0.304,0.449,0.526,0.972,0.666,1.571h-0.688   c-0.13-0.51-0.337-0.953-0.621-1.332c-0.283-0.378-0.62-0.69-1.009-0.936c-0.389-0.244-0.818-0.425-1.286-0.545   c-0.469-0.12-0.958-0.179-1.466-0.179c-0.768,0-1.459,0.132-2.071,0.396c-0.614,0.265-1.137,0.625-1.571,1.084   c-0.433,0.458-0.767,0.99-1.002,1.594c-0.234,0.603-0.351,1.238-0.351,1.905c0,0.669,0.106,1.306,0.321,1.908   c0.215,0.604,0.531,1.131,0.949,1.585c0.419,0.454,0.941,0.815,1.564,1.085c0.623,0.27,1.344,0.403,2.161,0.403   c0.588,0,1.139-0.085,1.652-0.255c0.514-0.168,0.967-0.41,1.362-0.726c0.393-0.313,0.725-0.699,0.994-1.157   c0.269-0.459,0.453-0.979,0.554-1.557H107.979z"
   fill="#FFFFFF"
   clip-path="url(#SVGID_8_)" />
	<path
   id="path52"
   d="M113.902,63.577h0.687v1.585h-0.687V63.577z M113.902,66.598h0.687v7.657   h-0.687V66.598z"
   fill="#FFFFFF"
   clip-path="url(#SVGID_8_)" />
	<path
   id="path54"
   d="M121.56,64.011h0.687v2.587h2.274v0.599h-2.274v5.52   c0,0.238,0.033,0.428,0.097,0.567c0.066,0.14,0.157,0.249,0.278,0.329c0.12,0.08,0.266,0.132,0.441,0.157   c0.174,0.025,0.366,0.037,0.575,0.037c0.159,0,0.319-0.009,0.48-0.029c0.158-0.02,0.318-0.04,0.477-0.061v0.599   c-0.179,0.04-0.371,0.065-0.575,0.074c-0.204,0.01-0.401,0.016-0.591,0.016c-0.398,0-0.721-0.041-0.965-0.121   c-0.244-0.079-0.433-0.2-0.568-0.365c-0.135-0.164-0.225-0.376-0.269-0.636c-0.045-0.259-0.067-0.572-0.067-0.942v-5.145h-1.735   v-0.599h1.735V64.011z"
   fill="#FFFFFF"
   clip-path="url(#SVGID_8_)" />
	<path
   id="path56"
   d="M128.978,66.598h0.777l3.44,6.896l3.155-6.896h0.778l-4.217,9.003   c-0.1,0.21-0.203,0.399-0.307,0.569c-0.105,0.169-0.231,0.316-0.381,0.441c-0.149,0.124-0.327,0.221-0.531,0.292   c-0.204,0.068-0.456,0.104-0.755,0.104h-0.958V76.41h0.823c0.219,0,0.402-0.019,0.546-0.053c0.145-0.034,0.276-0.1,0.397-0.194   c0.119-0.094,0.231-0.231,0.336-0.411c0.104-0.179,0.232-0.419,0.381-0.718l0.389-0.778L128.978,66.598z"
   fill="#FFFFFF"
   clip-path="url(#SVGID_8_)" />
	<path
   id="path58"
   d="M150.125,63.577h5.459c0.507,0,0.984,0.043,1.428,0.129   c0.444,0.084,0.824,0.233,1.144,0.447c0.319,0.214,0.571,0.503,0.756,0.867c0.183,0.365,0.276,0.825,0.276,1.384   c0,0.289-0.043,0.571-0.127,0.846c-0.085,0.273-0.218,0.53-0.396,0.77c-0.18,0.239-0.407,0.449-0.681,0.628   c-0.275,0.18-0.601,0.314-0.98,0.404v0.03c0.659,0.079,1.155,0.323,1.489,0.732s0.506,0.902,0.515,1.481   c0.01,0.498,0.023,0.912,0.037,1.24c0.016,0.328,0.033,0.605,0.053,0.83s0.047,0.404,0.082,0.538   c0.035,0.136,0.077,0.252,0.127,0.352h-0.687c-0.1-0.089-0.17-0.321-0.209-0.695c-0.04-0.373-0.071-0.97-0.091-1.787   c-0.01-0.458-0.06-0.842-0.15-1.151c-0.088-0.31-0.239-0.554-0.448-0.732c-0.209-0.18-0.489-0.307-0.838-0.382   c-0.348-0.075-0.788-0.112-1.315-0.112h-4.756v4.86h-0.688V63.577z M150.813,68.797h4.65c0.111,0,0.262-0.005,0.457-0.016   c0.194-0.01,0.404-0.037,0.628-0.082c0.225-0.046,0.453-0.114,0.688-0.21c0.234-0.095,0.443-0.231,0.629-0.41   c0.184-0.18,0.336-0.409,0.455-0.688c0.12-0.279,0.18-0.623,0.18-1.032c0-0.428-0.078-0.785-0.232-1.068   c-0.154-0.285-0.364-0.51-0.628-0.674c-0.265-0.165-0.568-0.278-0.912-0.344c-0.344-0.064-0.706-0.098-1.085-0.098h-4.83V68.797z"
   fill="#FFFFFF"
   clip-path="url(#SVGID_8_)" />
	<path
   id="path60"
   d="M164.632,70.427c0-0.539,0.097-1.052,0.291-1.541   c0.194-0.487,0.476-0.919,0.845-1.293s0.821-0.674,1.354-0.897c0.533-0.225,1.145-0.336,1.832-0.336   c0.688,0,1.299,0.111,1.832,0.336c0.533,0.224,0.984,0.523,1.354,0.897s0.65,0.806,0.846,1.293   c0.193,0.489,0.291,1.002,0.291,1.541c0,0.538-0.098,1.055-0.291,1.547c-0.195,0.494-0.477,0.929-0.846,1.303   s-0.82,0.67-1.354,0.89c-0.533,0.219-1.144,0.328-1.832,0.328c-0.688,0-1.299-0.109-1.832-0.328   c-0.532-0.22-0.984-0.516-1.354-0.89s-0.65-0.809-0.845-1.303C164.729,71.482,164.632,70.965,164.632,70.427 M165.318,70.427   c0,0.438,0.075,0.865,0.225,1.278c0.15,0.414,0.376,0.783,0.681,1.107c0.305,0.323,0.683,0.586,1.137,0.784   c0.453,0.2,0.984,0.3,1.593,0.3s1.139-0.1,1.594-0.3c0.452-0.198,0.832-0.461,1.136-0.784c0.304-0.324,0.532-0.693,0.681-1.107   c0.149-0.413,0.225-0.84,0.225-1.278c0-0.429-0.075-0.853-0.225-1.271c-0.148-0.419-0.377-0.791-0.681-1.115   s-0.684-0.586-1.136-0.785c-0.455-0.199-0.985-0.299-1.594-0.299s-1.14,0.1-1.593,0.299c-0.454,0.199-0.832,0.461-1.137,0.785   s-0.53,0.696-0.681,1.115C165.394,69.575,165.318,69.999,165.318,70.427"
   fill="#FFFFFF"
   clip-path="url(#SVGID_8_)" />
	<path
   id="path62"
   d="M186.452,74.255h-0.688v-1.524h-0.031c-0.119,0.229-0.274,0.448-0.464,0.657   c-0.188,0.209-0.416,0.396-0.68,0.561c-0.265,0.165-0.571,0.297-0.92,0.396s-0.738,0.149-1.166,0.149   c-0.589,0-1.082-0.057-1.481-0.171c-0.398-0.115-0.728-0.264-0.986-0.449c-0.26-0.185-0.462-0.391-0.605-0.621   c-0.146-0.229-0.249-0.461-0.314-0.694c-0.065-0.234-0.102-0.459-0.112-0.674c-0.011-0.214-0.016-0.401-0.016-0.561v-4.727h0.688   v4.696c0,0.39,0.042,0.743,0.127,1.063c0.086,0.318,0.234,0.593,0.449,0.822c0.214,0.229,0.503,0.406,0.867,0.53   c0.363,0.125,0.83,0.188,1.398,0.188s1.057-0.079,1.466-0.239c0.408-0.159,0.744-0.371,1.01-0.636   c0.263-0.265,0.458-0.565,0.583-0.904c0.124-0.339,0.188-0.689,0.188-1.048v-4.472h0.688V74.255z"
   fill="#FFFFFF"
   clip-path="url(#SVGID_8_)" />
	<path
   id="path64"
   d="M193.36,64.011h0.688v2.587h2.273v0.599h-2.273v5.52   c0,0.238,0.032,0.428,0.097,0.567c0.065,0.14,0.157,0.249,0.277,0.329c0.119,0.08,0.267,0.132,0.441,0.157   c0.174,0.025,0.366,0.037,0.575,0.037c0.159,0,0.319-0.009,0.479-0.029c0.159-0.02,0.319-0.04,0.479-0.061v0.599   c-0.18,0.04-0.372,0.065-0.575,0.074c-0.205,0.01-0.402,0.016-0.591,0.016c-0.399,0-0.721-0.041-0.965-0.121   c-0.245-0.079-0.434-0.2-0.568-0.365c-0.135-0.164-0.225-0.376-0.27-0.636c-0.045-0.259-0.067-0.572-0.067-0.942v-5.145h-1.734   v-0.599h1.734V64.011z"
   fill="#FFFFFF"
   clip-path="url(#SVGID_8_)" />
	<path
   id="path66"
   d="M202.05,70.577c0.01,0.479,0.097,0.921,0.262,1.323   c0.165,0.404,0.401,0.756,0.711,1.056c0.309,0.298,0.688,0.529,1.137,0.694c0.448,0.164,0.962,0.246,1.54,0.246   c0.598,0,1.092-0.082,1.481-0.246c0.388-0.165,0.702-0.36,0.941-0.591c0.239-0.229,0.421-0.469,0.546-0.718   c0.124-0.249,0.223-0.458,0.292-0.628h0.688c-0.319,0.967-0.813,1.673-1.48,2.117c-0.669,0.441-1.517,0.665-2.543,0.665   c-0.658,0-1.249-0.096-1.772-0.285c-0.522-0.189-0.97-0.463-1.337-0.822c-0.37-0.358-0.654-0.793-0.854-1.301   s-0.299-1.082-0.299-1.72c0-0.399,0.07-0.832,0.209-1.302c0.14-0.469,0.374-0.901,0.703-1.301c0.329-0.398,0.768-0.732,1.316-1.002   c0.549-0.269,1.23-0.404,2.05-0.404c0.667,0,1.26,0.105,1.778,0.314s0.957,0.501,1.316,0.875c0.358,0.374,0.633,0.821,0.823,1.338   c0.188,0.52,0.289,1.082,0.298,1.69H202.05z M209.079,69.978c-0.07-0.518-0.21-0.969-0.419-1.354   c-0.209-0.383-0.471-0.697-0.785-0.941c-0.313-0.245-0.668-0.427-1.062-0.546c-0.394-0.12-0.811-0.18-1.249-0.18   c-0.997,0-1.795,0.271-2.393,0.814c-0.599,0.543-0.973,1.279-1.122,2.206H209.079z"
   fill="#FFFFFF"
   clip-path="url(#SVGID_8_)" />
	<path
   id="path68"
   d="M223.512,70.726c0.009,0.997,0.336,1.775,0.979,2.333   c0.643,0.56,1.682,0.837,3.117,0.837c0.658,0,1.215-0.063,1.668-0.193c0.454-0.129,0.822-0.305,1.106-0.523   c0.284-0.22,0.489-0.472,0.613-0.756c0.125-0.284,0.188-0.585,0.188-0.904c0-0.299-0.043-0.561-0.128-0.786   c-0.084-0.224-0.231-0.421-0.439-0.59c-0.21-0.17-0.497-0.319-0.861-0.449c-0.364-0.129-0.825-0.254-1.383-0.374l-1.989-0.419   c-0.589-0.118-1.087-0.257-1.496-0.41c-0.408-0.155-0.742-0.342-1.002-0.562c-0.259-0.219-0.446-0.478-0.56-0.778   c-0.116-0.299-0.173-0.646-0.173-1.047c0-0.397,0.088-0.767,0.262-1.106c0.174-0.338,0.431-0.63,0.771-0.874   c0.338-0.245,0.76-0.437,1.264-0.576c0.503-0.139,1.085-0.209,1.741-0.209c0.669,0,1.274,0.062,1.817,0.187   c0.544,0.125,1.01,0.321,1.399,0.591c0.388,0.27,0.689,0.608,0.904,1.018c0.214,0.408,0.331,0.897,0.352,1.465h-0.688   c-0.02-0.309-0.087-0.621-0.202-0.934c-0.113-0.314-0.307-0.6-0.574-0.854c-0.271-0.254-0.632-0.464-1.086-0.628   c-0.453-0.165-1.029-0.247-1.727-0.247c-0.648,0-1.194,0.059-1.638,0.172c-0.443,0.115-0.799,0.27-1.069,0.465   c-0.27,0.194-0.461,0.424-0.576,0.688c-0.113,0.264-0.172,0.55-0.172,0.86c0,0.289,0.037,0.541,0.112,0.755   s0.204,0.407,0.389,0.576c0.186,0.17,0.441,0.315,0.771,0.44c0.33,0.125,0.749,0.237,1.256,0.336l2.2,0.436   c0.537,0.108,1.01,0.235,1.419,0.38s0.753,0.327,1.032,0.546c0.279,0.22,0.491,0.48,0.636,0.786   c0.145,0.304,0.217,0.67,0.217,1.099c0,0.359-0.067,0.72-0.202,1.084s-0.366,0.688-0.695,0.973   c-0.329,0.283-0.768,0.516-1.315,0.695c-0.549,0.18-1.242,0.27-2.079,0.27c-0.878,0-1.623-0.09-2.236-0.27   s-1.114-0.434-1.503-0.764c-0.389-0.328-0.67-0.724-0.845-1.188c-0.175-0.464-0.261-0.979-0.261-1.548H223.512z"
   fill="#FFFFFF"
   clip-path="url(#SVGID_8_)" />
	<path
   id="path70"
   d="M237.704,63.578h0.688v4.547h0.029c0.12-0.23,0.273-0.449,0.464-0.659   c0.189-0.209,0.416-0.396,0.681-0.56c0.264-0.164,0.568-0.297,0.912-0.396s0.734-0.149,1.174-0.149c0.588,0,1.082,0.057,1.48,0.172   c0.398,0.113,0.728,0.264,0.987,0.447c0.259,0.186,0.461,0.393,0.605,0.621c0.145,0.23,0.25,0.461,0.314,0.695   c0.064,0.235,0.103,0.462,0.112,0.681c0.009,0.22,0.015,0.404,0.015,0.555v4.725h-0.688v-4.696c0-0.389-0.042-0.741-0.127-1.062   c-0.085-0.318-0.234-0.592-0.448-0.822c-0.215-0.229-0.504-0.407-0.867-0.531c-0.364-0.125-0.83-0.187-1.397-0.187   c-0.569,0-1.059,0.08-1.467,0.239s-0.746,0.372-1.01,0.636c-0.265,0.264-0.458,0.565-0.583,0.905   c-0.125,0.339-0.187,0.688-0.187,1.047v4.471h-0.688V63.578z"
   fill="#FFFFFF"
   clip-path="url(#SVGID_8_)" />
	<path
   id="path72"
   d="M251.224,68.961c0.06-0.479,0.172-0.885,0.336-1.219   c0.165-0.334,0.39-0.604,0.674-0.808c0.284-0.205,0.636-0.352,1.054-0.44c0.419-0.09,0.918-0.136,1.496-0.136   c0.548,0,1.041,0.037,1.48,0.112c0.438,0.075,0.808,0.197,1.106,0.366c0.299,0.17,0.528,0.398,0.688,0.688   c0.16,0.289,0.24,0.649,0.24,1.077v4.293c0,0.289,0.02,0.515,0.06,0.673c0.039,0.16,0.189,0.239,0.448,0.239   c0.189,0,0.414-0.04,0.673-0.12v0.599c-0.238,0.08-0.518,0.12-0.837,0.12c-0.239,0-0.421-0.04-0.546-0.12   c-0.125-0.079-0.217-0.191-0.277-0.336c-0.06-0.145-0.095-0.319-0.105-0.524c-0.009-0.204-0.014-0.436-0.014-0.695h-0.03   c-0.209,0.39-0.471,0.7-0.785,0.936c-0.313,0.233-0.641,0.414-0.979,0.538c-0.34,0.125-0.677,0.205-1.01,0.238   c-0.334,0.035-0.626,0.054-0.875,0.054c-0.11,0-0.265-0.003-0.464-0.008c-0.199-0.006-0.414-0.03-0.644-0.074   c-0.229-0.045-0.466-0.115-0.71-0.21c-0.244-0.096-0.464-0.229-0.658-0.404c-0.194-0.174-0.354-0.394-0.479-0.658   c-0.125-0.264-0.186-0.591-0.186-0.979c0-0.391,0.076-0.719,0.23-0.988c0.154-0.269,0.364-0.49,0.628-0.665   c0.265-0.175,0.571-0.304,0.92-0.388c0.349-0.085,0.718-0.139,1.106-0.158l2.678-0.179c0.199-0.011,0.371-0.03,0.516-0.061   s0.267-0.082,0.366-0.157c0.1-0.073,0.172-0.182,0.218-0.32c0.045-0.141,0.066-0.325,0.066-0.555c0-0.259-0.042-0.495-0.127-0.711   c-0.085-0.214-0.234-0.396-0.448-0.545c-0.215-0.148-0.504-0.267-0.867-0.352c-0.365-0.084-0.829-0.127-1.398-0.127   c-0.509,0-0.933,0.041-1.271,0.12c-0.339,0.08-0.618,0.2-0.838,0.365s-0.387,0.374-0.501,0.629s-0.195,0.551-0.246,0.89H251.224z    M257.609,69.978h-0.029c-0.08,0.09-0.223,0.175-0.427,0.254c-0.204,0.08-0.472,0.131-0.8,0.15l-2.588,0.179   c-0.318,0.021-0.612,0.061-0.882,0.12c-0.27,0.061-0.501,0.152-0.696,0.277c-0.193,0.124-0.346,0.287-0.455,0.485   c-0.11,0.2-0.165,0.439-0.165,0.719c0,0.388,0.088,0.696,0.262,0.927c0.175,0.229,0.39,0.404,0.643,0.523   c0.255,0.119,0.526,0.197,0.815,0.231c0.289,0.035,0.549,0.052,0.778,0.052c0.378,0,0.777-0.044,1.196-0.134   s0.802-0.234,1.151-0.434c0.349-0.199,0.636-0.458,0.86-0.778c0.224-0.319,0.336-0.707,0.336-1.166V69.978z"
   fill="#FFFFFF"
   clip-path="url(#SVGID_8_)" />
	<path
   id="path74"
   d="M264.684,66.598h0.688v1.811h0.03c0.26-0.688,0.666-1.202,1.22-1.541   c0.553-0.338,1.203-0.508,1.951-0.508c0.109,0,0.204,0.007,0.284,0.021c0.079,0.015,0.174,0.037,0.284,0.067v0.688   c-0.08-0.03-0.178-0.053-0.292-0.067c-0.115-0.015-0.281-0.022-0.501-0.022c-0.499,0-0.935,0.087-1.309,0.261   c-0.374,0.176-0.683,0.404-0.928,0.688c-0.244,0.285-0.428,0.61-0.553,0.979s-0.188,0.747-0.188,1.137v4.143h-0.688V66.598z"
   fill="#FFFFFF"
   clip-path="url(#SVGID_8_)" />
	<path
   id="path76"
   d="M274.495,63.577h0.687v1.585h-0.687V63.577z M274.495,66.598h0.687v7.657   h-0.687V66.598z"
   fill="#FFFFFF"
   clip-path="url(#SVGID_8_)" />
	<path
   id="path78"
   d="M281.403,66.598h0.688v1.526h0.03c0.12-0.23,0.273-0.449,0.464-0.659   c0.188-0.209,0.416-0.396,0.68-0.56c0.265-0.164,0.568-0.297,0.912-0.396c0.345-0.1,0.735-0.149,1.175-0.149   c0.588,0,1.081,0.057,1.48,0.172c0.398,0.113,0.728,0.264,0.986,0.447c0.26,0.186,0.462,0.393,0.606,0.621   c0.145,0.23,0.249,0.461,0.314,0.695c0.064,0.235,0.102,0.462,0.111,0.681c0.01,0.22,0.016,0.404,0.016,0.555v4.725h-0.688v-4.696   c0-0.389-0.043-0.741-0.127-1.062c-0.085-0.318-0.234-0.592-0.448-0.822c-0.215-0.229-0.504-0.407-0.867-0.531   c-0.365-0.125-0.83-0.187-1.397-0.187c-0.569,0-1.059,0.08-1.468,0.239c-0.407,0.159-0.745,0.372-1.009,0.636   c-0.265,0.264-0.459,0.565-0.583,0.905c-0.125,0.339-0.188,0.688-0.188,1.047v4.471h-0.688V66.598z"
   fill="#FFFFFF"
   clip-path="url(#SVGID_8_)" />
	<path
   id="path80"
   d="M302.356,66.598h0.688v7.284c0,0.438-0.052,0.874-0.156,1.308   c-0.104,0.435-0.307,0.826-0.605,1.175c-0.3,0.349-0.724,0.633-1.271,0.853c-0.549,0.219-1.267,0.329-2.153,0.329   c-1.207,0-2.137-0.195-2.79-0.584c-0.653-0.388-1.044-1.052-1.174-1.988h0.688c0.039,0.298,0.126,0.57,0.262,0.815   c0.134,0.244,0.331,0.453,0.59,0.627c0.26,0.175,0.59,0.307,0.987,0.396c0.399,0.091,0.878,0.137,1.437,0.137   c0.748,0,1.348-0.094,1.802-0.277c0.453-0.186,0.808-0.421,1.062-0.71c0.255-0.29,0.424-0.614,0.51-0.973   c0.085-0.359,0.126-0.718,0.126-1.076v-1.585h-0.03c-0.339,0.637-0.819,1.103-1.442,1.397c-0.623,0.294-1.339,0.441-2.146,0.441   c-0.748,0-1.384-0.11-1.907-0.329c-0.522-0.219-0.952-0.511-1.286-0.875s-0.578-0.785-0.731-1.264   c-0.155-0.479-0.233-0.973-0.233-1.481c0-0.498,0.08-0.979,0.239-1.443c0.16-0.463,0.409-0.875,0.748-1.233s0.771-0.646,1.294-0.86   c0.523-0.214,1.153-0.321,1.892-0.321c0.339,0,0.684,0.027,1.032,0.082c0.349,0.056,0.681,0.15,0.994,0.285   c0.314,0.134,0.606,0.316,0.875,0.545c0.27,0.229,0.494,0.52,0.673,0.867l0.03,0.017V66.598z M298.752,66.958   c-0.449,0-0.885,0.064-1.309,0.193c-0.424,0.132-0.795,0.327-1.114,0.592c-0.319,0.264-0.576,0.601-0.77,1.01   c-0.195,0.409-0.292,0.887-0.292,1.435c0,1.107,0.307,1.947,0.92,2.521c0.613,0.574,1.492,0.86,2.64,0.86   c0.498,0,0.962-0.067,1.391-0.201c0.43-0.136,0.804-0.343,1.121-0.621c0.319-0.279,0.568-0.63,0.748-1.056   c0.18-0.423,0.27-0.929,0.27-1.517c0-1.028-0.316-1.82-0.949-2.379C300.773,67.236,299.889,66.958,298.752,66.958"
   fill="#FFFFFF"
   clip-path="url(#SVGID_8_)" />
	<path
   id="path82"
   d="M18.756,20.945c-0.033,0.408,0.154,0.803,0.49,1.035   c0.337,0.233,0.773,0.269,1.143,0.094c1.416-0.674,2.93-1.12,4.487-1.32c0.405-0.051,0.753-0.316,0.911-0.693   c0.158-0.378,0.103-0.81-0.145-1.137c-0.247-0.325-0.651-0.494-1.056-0.442c-1.796,0.231-3.543,0.745-5.178,1.521   C19.038,20.178,18.79,20.537,18.756,20.945"
   fill="#FFFFFF"
   clip-path="url(#SVGID_8_)" />
	<path
   id="path84"
   d="M16.745,22.211c-0.384-0.144-0.814-0.072-1.131,0.187   c-2.522,2.095-4.42,4.843-5.485,7.944c-0.64,1.845-0.965,3.783-0.962,5.734v9.633c0,0.632,0.512,1.146,1.145,1.146   c0.632,0,1.145-0.514,1.145-1.146v-9.633c0.004-3.642,1.292-7.166,3.639-9.952c0.595-0.712,1.255-1.367,1.973-1.955   c0.317-0.26,0.47-0.668,0.403-1.073C17.405,22.692,17.128,22.354,16.745,22.211"
   fill="#FFFFFF"
   clip-path="url(#SVGID_8_)" />
	<path
   id="path86"
   d="M29.45,18.518c-0.404-0.058-0.81,0.105-1.062,0.427s-0.314,0.754-0.162,1.134   c0.152,0.38,0.495,0.649,0.901,0.707c6.827,1.096,12.136,6.523,13.083,13.372c0.082,0.561,0.562,0.977,1.13,0.979   c0.056,0,0.112-0.004,0.168-0.013c0.626-0.091,1.058-0.673,0.967-1.299C43.379,25.975,37.28,19.761,29.45,18.518"
   fill="#FFFFFF"
   clip-path="url(#SVGID_8_)" />
	<path
   id="path88"
   d="M36.944,61.693c-0.104-0.08-0.362-0.292-0.754-0.608l-1.025-0.831   c-0.033-0.034-0.068-0.064-0.104-0.095c-1.408-1.145-3.457-2.816-5.725-4.67c-2.616-2.141-4.13-5.344-4.124-8.724V45.25   c-0.011-2.283-0.011-4.353-0.011-5.956v-3.219c-0.003-0.456,0.177-0.895,0.5-1.217c0.297-0.297,0.69-0.476,1.109-0.503   c0.448-0.018,0.885,0.15,1.204,0.466c0.396,0.374,0.62,0.893,0.622,1.437v1.822c0,1.429,0,3.512-0.011,5.932v0.133   c0.016,4.026,1.821,7.839,4.925,10.404c0.471,0.392,0.933,0.772,1.361,1.119c0.491,0.398,1.213,0.322,1.611-0.168   c0.399-0.492,0.323-1.213-0.169-1.612c-0.42-0.343-0.874-0.716-1.344-1.104c-2.58-2.132-4.08-5.3-4.095-8.646v-0.132   c0.01-2.405,0.01-4.494,0.01-5.926v-1.822c-0.002-1.173-0.486-2.295-1.338-3.101c-0.779-0.75-1.833-1.145-2.913-1.089   c-0.979,0.062-1.901,0.478-2.594,1.17c-0.753,0.751-1.174,1.773-1.169,2.837v3.219c0,1.603,0,3.679,0.011,5.956v1.512   c-0.005,4.067,1.819,7.921,4.967,10.495c2.213,1.813,4.219,3.449,5.625,4.591c0.034,0.034,0.07,0.067,0.107,0.097l1.125,0.916   c0.98,0.797,0.98,0.797,1.197,0.871c0.545,0.185,1.142-0.063,1.396-0.581C37.59,62.635,37.423,62.012,36.944,61.693"
   fill="#FFFFFF"
   clip-path="url(#SVGID_8_)" />
	<path
   id="path90"
   d="M38.052,4.284c1.435,0.518,2.833,1.135,4.183,1.847   c0.361,0.191,0.797,0.175,1.144-0.042c0.347-0.217,0.551-0.603,0.536-1.013c-0.015-0.408-0.247-0.778-0.609-0.97   c-1.444-0.762-2.94-1.423-4.476-1.977c-0.594-0.215-1.252,0.093-1.466,0.688C37.149,3.412,37.456,4.068,38.052,4.284"
   fill="#FFFFFF"
   clip-path="url(#SVGID_8_)" />
	<path
   id="path92"
   d="M5.009,16.251c0.313,0,0.612-0.128,0.829-0.354   C13.192,8.18,24.176,5.101,34.47,7.873c0.399,0.122,0.834,0.018,1.134-0.273c0.301-0.29,0.419-0.721,0.308-1.124   c-0.11-0.403-0.431-0.714-0.838-0.812C23.97,2.668,12.115,5.988,4.181,14.315c-0.317,0.331-0.405,0.82-0.225,1.241   C4.136,15.978,4.551,16.251,5.009,16.251"
   fill="#FFFFFF"
   clip-path="url(#SVGID_8_)" />
	<path
   id="path94"
   d="M39.538,7.219C39.46,7.194,39.381,7.176,39.3,7.167   c-0.069-0.021-0.138-0.034-0.208-0.042h-0.01c-0.055,0.007-0.108,0.018-0.161,0.034c-0.169-0.002-0.333,0.06-0.459,0.173   c-0.063,0.033-0.122,0.071-0.177,0.115c-0.064,0.069-0.12,0.146-0.165,0.229c-0.031,0.039-0.061,0.08-0.087,0.123v0.009   c-0.022,0.071-0.038,0.144-0.047,0.218C37.963,8.1,37.947,8.177,37.94,8.255v0.008c0.006,0.049,0.016,0.097,0.03,0.143   c0.006,0.097,0.026,0.193,0.057,0.285c0.032,0.066,0.071,0.129,0.115,0.188c0.035,0.063,0.075,0.124,0.121,0.18   c0.069,0.065,0.146,0.12,0.229,0.166c0.038,0.032,0.078,0.06,0.121,0.085c4.468,1.979,8.377,5.032,11.379,8.887   c0.393,0.482,1.1,0.564,1.592,0.18c0.491-0.381,0.587-1.087,0.215-1.586c-3.234-4.15-7.444-7.436-12.254-9.565L39.538,7.219z"
   fill="#FFFFFF"
   clip-path="url(#SVGID_8_)" />
	<path
   id="path96"
   d="M19.117,10.315c-2.873,0.871-5.575,2.223-7.994,3.998   c-0.51,0.375-0.619,1.092-0.245,1.602c0.374,0.509,1.091,0.619,1.601,0.245c2.21-1.623,4.681-2.859,7.306-3.654   c0.395-0.115,0.698-0.435,0.793-0.837c0.095-0.401-0.033-0.822-0.336-1.103C19.939,10.287,19.51,10.19,19.117,10.315"
   fill="#FFFFFF"
   clip-path="url(#SVGID_8_)" />
	<path
   id="path98"
   d="M9.216,18.15c-0.117-0.394-0.437-0.695-0.838-0.788   c-0.401-0.093-0.82,0.036-1.1,0.337c-2.704,2.864-4.735,6.293-5.946,10.041c-0.196,0.6,0.133,1.246,0.734,1.443   c0.601,0.195,1.248-0.134,1.443-0.736c1.107-3.425,2.966-6.561,5.438-9.178C9.232,18.972,9.334,18.544,9.216,18.15"
   fill="#FFFFFF"
   clip-path="url(#SVGID_8_)" />
	<path
   id="path100"
   d="M26.919,9.162c-0.998,0.001-1.995,0.058-2.988,0.167   c-0.409,0.042-0.766,0.299-0.933,0.675c-0.167,0.377-0.119,0.814,0.126,1.145c0.244,0.331,0.648,0.506,1.056,0.457   c0.91-0.1,1.824-0.152,2.739-0.153c12.548-0.028,23.098,9.412,24.459,21.887c0.064,0.579,0.554,1.018,1.138,1.019   c0.042,0,0.084-0.002,0.125-0.007c0.628-0.069,1.081-0.632,1.014-1.26C52.169,19.454,40.637,9.132,26.919,9.162"
   fill="#FFFFFF"
   clip-path="url(#SVGID_8_)" />
	<path
   id="path102"
   d="M40.09,36.386c0.12-4.894-2.488-9.451-6.77-11.827   c-4.28-2.376-9.526-2.178-13.617,0.513c-1.684,1.1-3.095,2.572-4.123,4.302c-0.914,1.53-1.5,3.233-1.718,5.002   c-0.077,0.563-0.115,1.132-0.114,1.7v15.026c-0.008,4.062,1.811,7.91,4.953,10.482l2.3,1.891c2.254,1.853,4.362,3.586,5.955,4.882   c0.49,0.4,1.213,0.326,1.613-0.163c0.399-0.491,0.326-1.212-0.165-1.612c-1.585-1.294-3.692-3.026-5.943-4.876l-2.301-1.89   c-2.626-2.152-4.139-5.374-4.122-8.771v-14.97c0-0.469,0.031-0.938,0.095-1.403c0.179-1.459,0.662-2.863,1.417-4.124   c2.185-3.675,6.311-5.741,10.562-5.288c5.6,0.685,9.78,5.485,9.687,11.125v3.355c0.001,0.559,0.039,1.115,0.115,1.667   c0.085,0.627,0.662,1.066,1.29,0.981c0.626-0.086,1.066-0.663,0.981-1.29c-0.066-0.469-0.096-0.941-0.095-1.415V36.386z"
   fill="#FFFFFF"
   clip-path="url(#SVGID_8_)" />
	<path
   id="path104"
   d="M9.613,8.17c1.603,0,2.9-1.259,2.987-2.84   c6.627-3.019,14.067-3.822,21.207-2.265c0.618,0.136,1.23-0.255,1.366-0.873c0.136-0.617-0.255-1.229-0.873-1.365   C26.74-0.821,18.87,0.011,11.838,3.166c-0.55-0.611-1.338-1.003-2.225-1.003c-1.659,0-3.004,1.345-3.004,3.004   C6.609,6.825,7.955,8.17,9.613,8.17"
   fill="#FFFFFF"
   clip-path="url(#SVGID_8_)" />
	<path
   id="path106"
   d="M11.457,48.963c0-0.57-0.391-1.099-0.953-1.188   c-0.719-0.117-1.337,0.434-1.337,1.128v2.99c-0.001,0.439,0.022,0.879,0.066,1.315c0.063,0.611,0.609,1.059,1.22,0.996l0.074-0.008   c0.618-0.063,1.048-0.621,0.986-1.238c-0.038-0.377-0.058-0.755-0.056-1.134V48.963z"
   fill="#FFFFFF"
   clip-path="url(#SVGID_8_)" />
</g>
<g
   id="g123">
	<defs
   id="defs111">
		<path
   d="M25.439,27.618c-2.002,0.35-3.813,1.402-5.11,2.966c-1.167,1.367-1.856,3.078-1.963,4.872    c-0.028,0.205-0.041,0.413-0.037,0.62v5.395c0,2.143,0,4.733,0.012,7.467c-0.009,4.063,1.81,7.913,4.954,10.484l1.234,1.01    c2.867,2.352,4.709,3.863,5.915,4.852c-0.08,0.27-0.136,0.548-0.136,0.845c0,1.658,1.345,3.003,3.005,3.003    c1.657,0,3.003-1.345,3.003-3.003c0-1.659-1.346-3.003-3.003-3.003c-0.519,0-0.999,0.143-1.425,0.373    c-1.529-1.253-3.683-3.018-5.908-4.843l-1.237-1.005c-2.629-2.157-4.141-5.387-4.116-8.788c-0.008-2.665-0.008-5.251-0.008-7.392    v-5.395c-0.003-0.128,0.005-0.256,0.022-0.382c0.069-1.339,0.576-2.618,1.445-3.64c0.955-1.154,2.291-1.928,3.767-2.183    c0.352-0.065,0.709-0.097,1.066-0.094c3.403,0.017,6.183,2.726,6.287,6.127c-0.001,0.058,0.001,0.115,0.012,0.172v5.841    c0,2.373,0.626,4.704,1.815,6.757c0.196,0.374,0.579,0.609,0.999,0.614c0.422,0.006,0.812-0.22,1.017-0.587    c0.204-0.367,0.191-0.817-0.035-1.173c-0.997-1.729-1.517-3.694-1.505-5.692v-5.761c0.001-0.087-0.004-0.175-0.013-0.262    c-0.162-4.628-3.947-8.302-8.577-8.328c-0.014,0-0.029,0-0.043,0C26.395,27.486,25.914,27.53,25.439,27.618"
   id="SVGID_9_" />
	</defs>
	<clipPath
   id="SVGID_10_">
		<use
   id="use113"
   overflow="visible"
   xlink:href="#SVGID_9_" />
	</clipPath>
	
		<linearGradient
   gradientTransform="matrix(0.3333 -72.6667 -72.6667 -0.3333 6108.8193 114.3952)"
   y2="83.6851"
   x2="1"
   y1="83.6851"
   x1="0"
   gradientUnits="userSpaceOnUse"
   id="SVGID_11_">
		<stop
   id="stop116"
   style="stop-color:#EF4136"
   offset="0" />
		<stop
   id="stop118"
   style="stop-color:#F7941E"
   offset="1" />
	</linearGradient>
	<polygon
   id="polygon121"
   points="18.134,69.13 18.325,27.399 37.444,27.487 37.252,69.218  "
   fill="url(#SVGID_11_)"
   clip-path="url(#SVGID_10_)" />
</g>
<g
   id="g138">
	<defs
   id="defs126">
		<path
   d="M41.921,20.998c-0.468,0.42-0.511,1.137-0.095,1.61c2.541,2.858,4.217,6.366,4.852,10.116    c-0.986,0.493-1.668,1.501-1.668,2.677c0,1.658,1.345,3.003,3.004,3.003c1.658,0,3.002-1.345,3.002-3.003    c0-1.325-0.862-2.436-2.051-2.835c-0.676-4.259-2.552-8.248-5.434-11.486c-0.226-0.248-0.536-0.374-0.847-0.374    C42.413,20.706,42.14,20.802,41.921,20.998"
   id="SVGID_12_" />
	</defs>
	<clipPath
   id="SVGID_13_">
		<use
   id="use128"
   overflow="visible"
   xlink:href="#SVGID_12_" />
	</clipPath>
	
		<linearGradient
   gradientTransform="matrix(0.3333 -72.6667 -72.6667 -0.3333 6127.2568 114.4577)"
   y2="83.687"
   x2="1"
   y1="83.687"
   x1="0"
   gradientUnits="userSpaceOnUse"
   id="SVGID_14_">
		<stop
   id="stop131"
   style="stop-color:#EF4136"
   offset="0" />
		<stop
   id="stop133"
   style="stop-color:#F7941E"
   offset="1" />
	</linearGradient>
	<polygon
   id="polygon136"
   points="41.329,38.404 41.41,20.662 51.097,20.707 51.016,38.448  "
   fill="url(#SVGID_14_)"
   clip-path="url(#SVGID_13_)" />
</g>
<g
   id="g153">
	<defs
   id="defs141">
		<path
   d="M6.592,26.859c-1.166,2.536-1.838,5.271-1.982,8.058c-0.014,0.379-0.025,0.769-0.025,1.159    c0,2.562,0,3.935,0.014,4.079c0.037,0.604,0.54,1.074,1.145,1.068h0.057c0.627-0.033,1.112-0.563,1.089-1.191    c-0.014-0.302-0.014-3.767-0.014-3.956c0-0.364,0.012-0.731,0.022-1.059c0.13-2.493,0.735-4.94,1.778-7.208    c3.312-7.354,10.723-11.995,18.785-11.764c0.628,0.006,1.148-0.486,1.176-1.114c0.016-0.633-0.482-1.159-1.114-1.176    c-0.212-0.006-0.424-0.009-0.635-0.009C18.152,13.746,10.199,18.861,6.592,26.859"
   id="SVGID_15_" />
	</defs>
	<clipPath
   id="SVGID_16_">
		<use
   id="use143"
   overflow="visible"
   xlink:href="#SVGID_15_" />
	</clipPath>
	
		<linearGradient
   gradientTransform="matrix(0.3333 -72.6667 -72.6667 -0.3333 6097.5693 114.3327)"
   y2="83.6851"
   x2="1"
   y1="83.6851"
   x1="0"
   gradientUnits="userSpaceOnUse"
   id="SVGID_17_">
		<stop
   id="stop146"
   style="stop-color:#EF4136"
   offset="0" />
		<stop
   id="stop148"
   style="stop-color:#F7941E"
   offset="1" />
	</linearGradient>
	<polygon
   id="polygon151"
   points="4.459,41.229 4.585,13.636 28.779,13.747 28.652,41.339  "
   fill="url(#SVGID_17_)"
   clip-path="url(#SVGID_16_)" />
</g>
<g
   id="g168">
	<defs
   id="defs156">
		<path
   d="M31.147,15.27c-0.15,0.604,0.208,1.217,0.809,1.381l0.406,0.099c2.184,0.581,4.247,1.541,6.099,2.834    c0.52,0.363,1.234,0.235,1.595-0.284c0.363-0.52,0.235-1.233-0.284-1.596c-2.077-1.449-4.391-2.522-6.839-3.171L32.51,14.43    c-0.085-0.019-0.17-0.028-0.253-0.028C31.743,14.402,31.277,14.75,31.147,15.27"
   id="SVGID_18_" />
	</defs>
	<clipPath
   id="SVGID_19_">
		<use
   id="use158"
   overflow="visible"
   xlink:href="#SVGID_18_" />
	</clipPath>
	
		<linearGradient
   gradientTransform="matrix(0.3333 -72.6667 -72.6667 -0.3333 6116.6318 114.3952)"
   y2="83.6851"
   x2="1"
   y1="83.6851"
   x1="0"
   gradientUnits="userSpaceOnUse"
   id="SVGID_20_">
		<stop
   id="stop161"
   style="stop-color:#EF4136"
   offset="0" />
		<stop
   id="stop163"
   style="stop-color:#F7941E"
   offset="1" />
	</linearGradient>
	<polygon
   id="polygon166"
   points="30.972,19.947 30.997,14.359 40.444,14.402 40.419,19.99  "
   fill="url(#SVGID_20_)"
   clip-path="url(#SVGID_19_)" />
</g>
<g
   id="g183">
	<defs
   id="defs171">
		<path
   d="M52.429,38.404c-0.553,0-1.004,0.404-1.092,0.943c-2.203,13.558-17.286,32.797-23.108,39.809    c-0.756,0.91-2.151,0.91-2.907,0C19.499,72.144,4.417,52.905,2.214,39.347c-0.088-0.539-0.54-0.943-1.086-0.943H1.1    c-0.611,0-1.091,0.494-1.1,1.082v0.031c0.001,0.054,0.005,0.109,0.014,0.164C2.85,57.109,24.943,82.184,25.946,83.314    c0.441,0.497,1.218,0.497,1.659,0c1.002-1.13,23.099-26.21,25.932-43.639c0.108-0.667-0.406-1.271-1.081-1.271H52.429z"
   id="SVGID_21_" />
	</defs>
	<clipPath
   id="SVGID_22_">
		<use
   id="use173"
   overflow="visible"
   xlink:href="#SVGID_21_" />
	</clipPath>
	
		<linearGradient
   gradientTransform="matrix(0.3333 -72.6667 -72.6667 -0.3333 6107.8193 114.3952)"
   y2="83.6841"
   x2="1"
   y1="83.6841"
   x1="0"
   gradientUnits="userSpaceOnUse"
   id="SVGID_23_">
		<stop
   id="stop176"
   style="stop-color:#EF4136"
   offset="0" />
		<stop
   id="stop178"
   style="stop-color:#F7941E"
   offset="1" />
	</linearGradient>
	<polygon
   id="polygon181"
   points="-0.208,83.81 0.001,38.158 53.854,38.405 53.644,84.057  "
   fill="url(#SVGID_23_)"
   clip-path="url(#SVGID_22_)" />
</g>
</svg>